<?xml version="1.0" encoding="utf-8"?>
<!-- Generator: Adobe Illustrator 18.0.0, SVG Export Plug-In . SVG Version: 6.00 Build 0)  -->
<!DOCTYPE svg PUBLIC "-//W3C//DTD SVG 1.1//EN" "http://www.w3.org/Graphics/SVG/1.1/DTD/svg11.dtd">
<svg version="1.1" id="Layer_1" xmlns="http://www.w3.org/2000/svg" xmlns:xlink="http://www.w3.org/1999/xlink" x="0px" y="0px"
	 viewBox="28.7 295.4 952.7 144" enable-background="new 28.7 295.4 952.7 144" xml:space="preserve">
<g>
	<path fill="#F2F2F2" stroke="#FFFFFF" stroke-width="5" stroke-miterlimit="10" d="M593.7,438.1l-8.2-8.2l-16.6-69.7h-11.3
		l-8.2-8.2l39-16.2l8.2,8.2v16.2h-12.1l17.7,55.8l17.7-55.8h-10.1l-8.2-8.2l8.2-8l36.5-8.2l8.2,8.2v16.2h-10.1l17.7,55.8l17.7-55.8
		h-12.7l-8.2-8.2l8.2-8l33.6-8.2l8.2,8.2v16.2h-13.3l-25,77.9h-17.1l-8.2-8.2l-13-58.7l-21.6,66.9H593.7z"/>
	<path fill="#F2F2F2" stroke="#FFFFFF" stroke-width="5" stroke-miterlimit="10" d="M52.2,420v-99.7H37.1l-8.2-8.2l50.8-16.6
		l8.2,8.2v16.6H72.3v38.1h57.8v-38.1h-15.6l-8-8.2l50.4-16.8l8.4,8.3v16.6h-15.1v99.7l7-8.2l8.2,8.2v16.7h-50.8l-8.2-8.2l23.7-8.4
		v-45H72.3v45l7.5-8.2l8.2,8.2v16.6H37.1l-8.4-8.2L52.2,420z"/>
	<path fill="#333333" stroke="#FFFFFF" stroke-width="5" stroke-miterlimit="10" d="M44.1,411.8v-99.7H28.9v-16.6h50.8v16.6H64.1
		v38.1h57.8v-38.1h-15.6v-16.6h50.8v16.6h-15.1v99.7h15.1v16.6h-50.8v-16.6h15.6v-45H64.1v45h15.7v16.6H28.9v-16.6H44.1z"/>
	<path fill="#F2F2F2" stroke="#FFFFFF" stroke-width="5" stroke-miterlimit="10" d="M275.4,394.9h-77.8c1.1,8.5,4.5,15.4,10.1,20.8
		c5.6,5.3,12.8,8,21.5,8c12.7,0,30.6-6.2,38-16.4l8.2,8.2c-5.2,8.1-12,14.1-20.4,18s-17.1,5.8-26.2,5.8c-14.1,0-26.2-4.4-36.2-13.2
		c-10-8.8-15-20.7-15-35.7c0-14.2,4.9-25.9,14.6-35.1c9.8-9.2,21-13.7,33.7-13.7c12.4,0,15.2-3.4,25.6,5.2
		c12.3,10.2,15.9,16.6,18.4,21.9C273.2,376,275.1,384.7,275.4,394.9z M256.7,381.7c-1.2-6.5-4.6-12.4-10.1-17.6
		c-5.5-5.2-12.2-7.9-20.2-7.9c-7.3,0-13.5,2.4-18.6,7.2c-5.1,4.7-8.3,10.8-9.4,18.4h58.3V381.7z"/>
	<path fill="#333333" stroke="#FFFFFF" stroke-width="5" stroke-miterlimit="10" d="M267.2,386.7h-77.8c1.1,8.5,4.5,15.4,10.1,20.8
		c5.6,5.3,12.8,8,21.5,8c12.7,0,22.7-5.1,30.1-15.2l16.1,7.1c-5.2,8.1-12,14.1-20.4,18c-8.4,3.9-17.1,5.8-26.2,5.8
		c-14.1,0-26.2-4.4-36.2-13.2c-10-8.8-15-20.7-15-35.7c0-14.2,4.9-25.9,14.6-35.1c9.8-9.2,21-13.7,33.7-13.7
		c12.4,0,23.6,4.5,33.8,13.4C261.6,355.6,266.8,369,267.2,386.7z M248.5,373.5c-1.2-6.5-4.6-12.4-10.1-17.6
		c-5.5-5.2-12.2-7.9-20.2-7.9c-7.3,0-13.5,2.4-18.6,7.2c-5.1,4.7-8.3,10.8-9.4,18.4h58.3V373.5z"/>
	<path fill="#F2F2F2" stroke="#FFFFFF" stroke-width="5" stroke-miterlimit="10" d="M346,430.5c-7.3,5.3-14.6,7.6-23.1,7.6
		c-8.4,0-18.7-4.1-32.7-19c6.7-2.4,1.4-1.7,1.4-10.2c0-8.6,3.3-15.8,9.9-21.4c6.5-5.6,14.5-8.5,23.8-8.5c8.7,0,17.1,2.7,25.2,7.9
		v-9.2c0-4.7-0.4-8.4-1.3-10.8c-0.9-2.6-3-4.8-6.2-6.9c-3.3-2-7.6-3.1-12.9-3.1c-9.1,0-15.7,3.6-19.7,10.8l-17.4-4.6l-8.2-8.2
		c0,0,32-13.4,48.1-13.4c7,0,9.6-6.4,15.7-2.7c6,3.9,11.2,9.7,13.7,12.7c2.5,3,4.2,6.1,5,9.6c0.8,3.5,1.3,8.9,1.3,16.5v34.1h7.4
		l8.2,8.7v16.2h-31.7L346,430.5z M350.5,402.2c-7.9-6.1-15.8-9.2-23.8-9.2c-5,0-9.2,1.4-12.6,4.4c-3.4,3-5,6.8-5,11.4
		c0,4.3,1.4,8,4.4,10.8c3,3,7,4.4,12.1,4.4c8.8,0,17.1-6.2,25-13.6V402.2z"/>
	<path fill="#333333" stroke="#FFFFFF" stroke-width="5" stroke-miterlimit="10" d="M375.8,412.2v16.2H344v-11.3
		c-8.8,8.5-18.6,12.8-29.5,12.8c-8.4,0-15.8-2.8-21.9-8.2c-6.2-5.5-9.3-12.5-9.3-21c0-8.6,3.3-15.8,9.9-21.4
		c6.5-5.6,14.5-8.5,23.8-8.5c8.7,0,17.1,2.7,25.2,7.9v-9.2c0-4.7-0.4-8.4-1.3-10.8c-0.9-2.6-3-4.8-6.2-6.9c-3.3-2-7.6-3.1-12.9-3.1
		c-9.1,0-15.7,3.6-19.7,10.8l-17.4-4.6c7.7-14.4,21-21.6,39.9-21.6c7,0,13,0.9,18,2.9c5,1.8,8.8,4.3,11.4,7.3c2.5,3,4.2,6.1,5,9.6
		c0.8,3.5,1.3,8.9,1.3,16.5v42.8h15.4V412.2z M342.3,394c-7.9-6.1-15.8-9.2-23.8-9.2c-5,0-9.2,1.4-12.6,4.4c-3.4,3-5,6.8-5,11.4
		c0,4.3,1.4,8,4.4,10.8c3,3,7,4.4,12.1,4.4c8.8,0,17.1-3.7,25-11V394z"/>
	<path fill="#F2F2F2" stroke="#FFFFFF" stroke-width="5" stroke-miterlimit="10" d="M392.4,360.2l-8.2-8.2l20.3-8l9.9-39.1l8.2,8.2
		v30.9l8.9-8.2l8.2,8.2v16.2h-17.1v44.9c0,7.2,0.4,11.7,1.2,13.3c0.8,1.7,7.7-7.6,7.7-7.6l8.2,8.2v16.6c-4.6,1.6-9.3,2.5-13.9,2.5
		c-5.5,0-10-1.2-13.5-3.7c-3.5-2.5-10.2-8.3-13.1-13.4c-2.9-5,5.2-5.9,5.2-14.9v-45.8H392.4L392.4,360.2z"/>
	<path fill="#333333" stroke="#FFFFFF" stroke-width="5" stroke-miterlimit="10" d="M384.2,352.1v-16.2h12.1v-14.2l18.1-16.6V336
		h17.1v16.2h-17.1v44.9c0,7.2,0.4,11.7,1.2,13.3c0.8,1.7,2.8,2.6,5.9,2.6c3.4,0,6.7-0.6,9.9-1.9v16.6c-4.6,1.6-9.3,2.5-13.9,2.5
		c-5.5,0-10-1.2-13.5-3.7s-5.6-5.5-6.5-9.2c-0.9-3.7-1.3-10-1.3-19.1v-45.8h-12V352.1z"/>
	<path fill="#F2F2F2" stroke="#FFFFFF" stroke-width="5" stroke-miterlimit="10" d="M491.9,420v-99.7h-27.4v34H448l-8.2-8.2
		l8.2-42.4l99.4-8.2l8.2,8.2v50.5h-16.5l-8.2-8.2l8.2-25.8h-27.3v95.2l9.1-3.7l8.2,8.2v16.6h-54.3l-8.2-8.2L491.9,420z"/>
	<path fill="#91E8FB" stroke="#FFFFFF" stroke-width="5" stroke-miterlimit="10" d="M483.7,411.8v-99.7h-27.4v34h-16.5v-50.5h107.6
		v50.5H531v-34h-27.3v99.7h17.3v16.6h-54.3v-16.6H483.7z"/>
	<path fill="#91E8FB" stroke="#FFFFFF" stroke-width="5" stroke-miterlimit="10" d="M585.5,429.9l-24.8-77.9h-11.3v-16.2h39v16.2
		h-12.1l17.7,55.8l17.7-55.8h-10.1v-16.2h44.7v16.2h-10.1l17.7,55.8l17.7-55.8H659v-16.2h41.7v16.2h-13.3l-25,77.9h-17.1L624.2,363
		l-21.6,66.9H585.5z"/>
	<path fill="#F2F2F2" stroke="#FFFFFF" stroke-width="5" stroke-miterlimit="10" d="M808.7,394.9H731c1.1,8.5,4.5,15.4,10.1,20.8
		c5.6,5.3,12.8,8,21.5,8c12.7,0,30.6-6.2,38-16.4l8.2,8.2c-5.2,8.1-12,14.1-20.4,18s-17.1,5.8-26.2,5.8c-14.1,0-26.2-4.4-36.2-13.2
		s-15-20.7-15-35.7c0-14.2,4.9-25.9,14.6-35.1c9.8-9.2,21-13.7,33.7-13.7c12.4,0,15.2-3.4,25.6,5.2c12.3,10.2,15.9,16.6,18.4,21.9
		C806.7,376,808.5,384.7,808.7,394.9z M790,381.7c-1.2-6.5-4.6-12.4-10.1-17.6s-12.2-7.9-20.2-7.9c-7.3,0-13.5,2.4-18.6,7.2
		c-5.1,4.7-8.3,10.8-9.4,18.4H790V381.7z"/>
	<path fill="#91E8FB" stroke="#FFFFFF" stroke-width="5" stroke-miterlimit="10" d="M800.6,386.7h-77.8c1.1,8.5,4.5,15.4,10.1,20.8
		c5.6,5.3,12.8,8,21.5,8c12.7,0,22.7-5.1,30.1-15.2l16.1,7.1c-5.2,8.1-12,14.1-20.4,18s-17.1,5.8-26.2,5.8
		c-14.1,0-26.2-4.4-36.2-13.2c-10-8.8-15-20.7-15-35.7c0-14.2,4.9-25.9,14.6-35.1c9.8-9.2,21-13.7,33.7-13.7
		c12.4,0,23.6,4.5,33.8,13.4C794.9,355.6,800.2,369,800.6,386.7z M781.8,373.5c-1.2-6.5-4.6-12.4-10.1-17.6
		c-5.5-5.2-12.2-7.9-20.2-7.9c-7.3,0-13.5,2.4-18.6,7.2c-5.1,4.7-8.3,10.8-9.4,18.4h58.3V373.5z"/>
	<path fill="#F2F2F2" stroke="#FFFFFF" stroke-width="5" stroke-miterlimit="10" d="M921,394.9h-77.8c1.1,8.5,4.5,15.4,10.1,20.8
		s12.8,8,21.5,8c12.7,0,30.6-6.2,38-16.4l8.2,8.2c-5.2,8.1-12,14.1-20.4,18s-17.1,5.8-26.2,5.8c-14.1,0-26.2-4.4-36.2-13.2
		c-10-8.8-15-20.7-15-35.7c0-14.2,4.9-25.9,14.6-35.1c9.8-9.2,21-13.7,33.7-13.7c12.4,0,15.2-3.4,25.6,5.2
		c12.3,10.2,15.9,16.6,18.4,21.9C918.9,376,920.8,384.7,921,394.9z M902.3,381.7c-1.2-6.5-4.6-12.4-10.1-17.6s-12.2-7.9-20.2-7.9
		c-7.3,0-13.5,2.4-18.6,7.2c-5.1,4.7-8.3,10.8-9.4,18.4h58.3V381.7z"/>
	<path fill="#91E8FB" stroke="#FFFFFF" stroke-width="5" stroke-miterlimit="10" d="M912.8,386.7H835c1.1,8.5,4.5,15.4,10.1,20.8
		c5.6,5.3,12.8,8,21.5,8c12.7,0,22.7-5.1,30.1-15.2l16.1,7.1c-5.2,8.1-12,14.1-20.4,18s-17.1,5.8-26.2,5.8
		c-14.1,0-26.2-4.4-36.2-13.2c-10-8.8-15-20.7-15-35.7c0-14.2,4.9-25.9,14.6-35.1c9.8-9.2,21-13.7,33.7-13.7
		c12.4,0,23.6,4.5,33.8,13.4C907.2,355.6,912.4,369,912.8,386.7z M894.1,373.5c-1.2-6.5-4.6-12.4-10.1-17.6
		c-5.5-5.2-12.2-7.9-20.2-7.9c-7.3,0-13.5,2.4-18.6,7.2c-5.1,4.7-8.3,10.8-9.4,18.4h58.3V373.5z"/>
	<path fill="#F2F2F2" stroke="#FFFFFF" stroke-width="5" stroke-miterlimit="10" d="M934.2,360.2l-8.2-8.2l20.3-8l9.9-39.1l8.2,8.2
		v30.9l8.9-8.2l8.2,8.2v16.2h-17.1v44.9c0,7.2,0.4,11.7,1.2,13.3c0.8,1.7,7.7-7.6,7.7-7.6l8.2,8.2v16.6c-4.6,1.6-9.3,2.5-13.9,2.5
		c-5.5,0-10-1.2-13.5-3.7c-3.5-2.5-10.2-8.3-13.1-13.4s5.2-5.9,5.2-14.9v-45.8H934.2L934.2,360.2z"/>
	<path fill="#91E8FB" stroke="#FFFFFF" stroke-width="5" stroke-miterlimit="10" d="M926,352.1v-16.2h12.1v-14.2l18.1-16.6V336h17.1
		v16.2h-17.1v44.9c0,7.2,0.4,11.7,1.2,13.3c0.8,1.7,2.8,2.6,5.9,2.6c3.4,0,6.7-0.6,9.9-1.9v16.6c-4.6,1.6-9.3,2.5-13.9,2.5
		c-5.5,0-10-1.2-13.5-3.7s-5.6-5.5-6.5-9.2c-0.9-3.7-1.3-10-1.3-19.1v-45.8h-12V352.1z"/>
</g>
<g>
	<path fill="#F2F2F2" d="M593.7,438.1l-8.2-8.2l-16.6-69.7h-11.3l-8.2-8.2l39-16.2l8.2,8.2v16.2h-12.1l17.7,55.8l17.7-55.8h-10.1
		l-8.2-8.2l8.2-8l36.5-8.2l8.2,8.2v16.2h-10.1l17.7,55.8l17.7-55.8h-12.7l-8.2-8.2l8.2-8l33.6-8.2l8.2,8.2v16.2h-13.3l-25,77.9
		h-17.1l-8.2-8.2l-13-58.7l-21.6,66.9H593.7z"/>
	<path fill="#F2F2F2" d="M52.2,420v-99.7H37.1l-8.2-8.2l50.8-16.6l8.2,8.2v16.6H72.3v38.1h57.8v-38.1h-15.6l-8-8.2l50.4-16.8
		l8.4,8.3v16.6h-15.1v99.7l7-8.2l8.2,8.2v16.7h-50.8l-8.2-8.2l23.7-8.4v-45H72.3v45l7.5-8.2l8.2,8.2v16.6H37.1l-8.4-8.2L52.2,420z"
		/>
	<path fill="#333333" d="M44.1,411.8v-99.7H28.9v-16.6h50.8v16.6H64.1v38.1h57.8v-38.1h-15.6v-16.6h50.8v16.6h-15.1v99.7h15.1v16.6
		h-50.8v-16.6h15.6v-45H64.1v45h15.7v16.6H28.9v-16.6H44.1z"/>
	<path fill="#F2F2F2" d="M275.4,394.9h-77.8c1.1,8.5,4.5,15.4,10.1,20.8c5.6,5.3,12.8,8,21.5,8c12.7,0,30.6-6.2,38-16.4l8.2,8.2
		c-5.2,8.1-12,14.1-20.4,18s-17.1,5.8-26.2,5.8c-14.1,0-26.2-4.4-36.2-13.2c-10-8.8-15-20.7-15-35.7c0-14.2,4.9-25.9,14.6-35.1
		c9.8-9.2,21-13.7,33.7-13.7c12.4,0,15.2-3.4,25.6,5.2c12.3,10.2,15.9,16.6,18.4,21.9C273.2,376,275.1,384.7,275.4,394.9z
		 M256.7,381.7c-1.2-6.5-4.6-12.4-10.1-17.6c-5.5-5.2-12.2-7.9-20.2-7.9c-7.3,0-13.5,2.4-18.6,7.2c-5.1,4.7-8.3,10.8-9.4,18.4h58.3
		V381.7z"/>
	<path fill="#333333" d="M267.2,386.7h-77.8c1.1,8.5,4.5,15.4,10.1,20.8c5.6,5.3,12.8,8,21.5,8c12.7,0,22.7-5.1,30.1-15.2l16.1,7.1
		c-5.2,8.1-12,14.1-20.4,18c-8.4,3.9-17.1,5.8-26.2,5.8c-14.1,0-26.2-4.4-36.2-13.2c-10-8.8-15-20.7-15-35.7
		c0-14.2,4.9-25.9,14.6-35.1c9.8-9.2,21-13.7,33.7-13.7c12.4,0,23.6,4.5,33.8,13.4C261.6,355.6,266.8,369,267.2,386.7z M248.5,373.5
		c-1.2-6.5-4.6-12.4-10.1-17.6c-5.5-5.2-12.2-7.9-20.2-7.9c-7.3,0-13.5,2.4-18.6,7.2c-5.1,4.7-8.3,10.8-9.4,18.4h58.3V373.5z"/>
	<path fill="#F2F2F2" d="M346,430.5c-7.3,5.3-14.6,7.6-23.1,7.6c-8.4,0-18.7-4.1-32.7-19c6.7-2.4,1.4-1.7,1.4-10.2
		c0-8.6,3.3-15.8,9.9-21.4c6.5-5.6,14.5-8.5,23.8-8.5c8.7,0,17.1,2.7,25.2,7.9v-9.2c0-4.7-0.4-8.4-1.3-10.8c-0.9-2.6-3-4.8-6.2-6.9
		c-3.3-2-7.6-3.1-12.9-3.1c-9.1,0-15.7,3.6-19.7,10.8l-17.4-4.6l-8.2-8.2c0,0,32-13.4,48.1-13.4c7,0,9.6-6.4,15.7-2.7
		c6,3.9,11.2,9.7,13.7,12.7c2.5,3,4.2,6.1,5,9.6c0.8,3.5,1.3,8.9,1.3,16.5v34.1h7.4l8.2,8.7v16.2h-31.7L346,430.5z M350.5,402.2
		c-7.9-6.1-15.8-9.2-23.8-9.2c-5,0-9.2,1.4-12.6,4.4c-3.4,3-5,6.8-5,11.4c0,4.3,1.4,8,4.4,10.8c3,3,7,4.4,12.1,4.4
		c8.8,0,17.1-6.2,25-13.6V402.2z"/>
	<path fill="#333333" d="M375.8,412.2v16.2H344v-11.3c-8.8,8.5-18.6,12.8-29.5,12.8c-8.4,0-15.8-2.8-21.9-8.2
		c-6.2-5.5-9.3-12.5-9.3-21c0-8.6,3.3-15.8,9.9-21.4c6.5-5.6,14.5-8.5,23.8-8.5c8.7,0,17.1,2.7,25.2,7.9v-9.2
		c0-4.7-0.4-8.4-1.3-10.8c-0.9-2.6-3-4.8-6.2-6.9c-3.3-2-7.6-3.1-12.9-3.1c-9.1,0-15.7,3.6-19.7,10.8l-17.4-4.6
		c7.7-14.4,21-21.6,39.9-21.6c7,0,13,0.9,18,2.9c5,1.8,8.8,4.3,11.4,7.3c2.5,3,4.2,6.1,5,9.6c0.8,3.5,1.3,8.9,1.3,16.5v42.8h15.4
		V412.2z M342.3,394c-7.9-6.1-15.8-9.2-23.8-9.2c-5,0-9.2,1.4-12.6,4.4c-3.4,3-5,6.8-5,11.4c0,4.3,1.4,8,4.4,10.8
		c3,3,7,4.4,12.1,4.4c8.8,0,17.1-3.7,25-11V394z"/>
	<path fill="#F2F2F2" d="M392.4,360.2l-8.2-8.2l20.3-8l9.9-39.1l8.2,8.2v30.9l8.9-8.2l8.2,8.2v16.2h-17.1v44.9
		c0,7.2,0.4,11.7,1.2,13.3c0.8,1.7,7.7-7.6,7.7-7.6l8.2,8.2v16.6c-4.6,1.6-9.3,2.5-13.9,2.5c-5.5,0-10-1.2-13.5-3.7
		c-3.5-2.5-10.2-8.3-13.1-13.4c-2.9-5,5.2-5.9,5.2-14.9v-45.8H392.4L392.4,360.2z"/>
	<path fill="#333333" d="M384.2,352.1v-16.2h12.1v-14.2l18.1-16.6V336h17.1v16.2h-17.1v44.9c0,7.2,0.4,11.7,1.2,13.3
		c0.8,1.7,2.8,2.6,5.9,2.6c3.4,0,6.7-0.6,9.9-1.9v16.6c-4.6,1.6-9.3,2.5-13.9,2.5c-5.5,0-10-1.2-13.5-3.7s-5.6-5.5-6.5-9.2
		c-0.9-3.7-1.3-10-1.3-19.1v-45.8h-12V352.1z"/>
	<path fill="#F2F2F2" d="M491.9,420v-99.7h-27.4v34H448l-8.2-8.2l8.2-42.4l99.4-8.2l8.2,8.2v50.5h-16.5l-8.2-8.2l8.2-25.8h-27.3
		v95.2l9.1-3.7l8.2,8.2v16.6h-54.3l-8.2-8.2L491.9,420z"/>
	<path fill="#91E8FB" d="M483.7,411.8v-99.7h-27.4v34h-16.5v-50.5h107.6v50.5H531v-34h-27.3v99.7h17.3v16.6h-54.3v-16.6H483.7z"/>
	<path fill="#91E8FB" d="M585.5,429.9l-24.8-77.9h-11.3v-16.2h39v16.2h-12.1l17.7,55.8l17.7-55.8h-10.1v-16.2h44.7v16.2h-10.1
		l17.7,55.8l17.7-55.8H659v-16.2h41.7v16.2h-13.3l-25,77.9h-17.1L624.2,363l-21.6,66.9H585.5z"/>
	<path fill="#F2F2F2" d="M808.7,394.9H731c1.1,8.5,4.5,15.4,10.1,20.8c5.6,5.3,12.8,8,21.5,8c12.7,0,30.6-6.2,38-16.4l8.2,8.2
		c-5.2,8.1-12,14.1-20.4,18s-17.1,5.8-26.2,5.8c-14.1,0-26.2-4.4-36.2-13.2s-15-20.7-15-35.7c0-14.2,4.9-25.9,14.6-35.1
		c9.8-9.2,21-13.7,33.7-13.7c12.4,0,15.2-3.4,25.6,5.2c12.3,10.2,15.9,16.6,18.4,21.9C806.7,376,808.5,384.7,808.7,394.9z
		 M790,381.7c-1.2-6.5-4.6-12.4-10.1-17.6s-12.2-7.9-20.2-7.9c-7.3,0-13.5,2.4-18.6,7.2c-5.1,4.7-8.3,10.8-9.4,18.4H790V381.7z"/>
	<path fill="#91E8FB" d="M800.6,386.7h-77.8c1.1,8.5,4.5,15.4,10.1,20.8c5.6,5.3,12.8,8,21.5,8c12.7,0,22.7-5.1,30.1-15.2l16.1,7.1
		c-5.2,8.1-12,14.1-20.4,18s-17.1,5.8-26.2,5.8c-14.1,0-26.2-4.4-36.2-13.2c-10-8.8-15-20.7-15-35.7c0-14.2,4.9-25.9,14.6-35.1
		c9.8-9.2,21-13.7,33.7-13.7c12.4,0,23.6,4.5,33.8,13.4C794.9,355.6,800.2,369,800.6,386.7z M781.8,373.5
		c-1.2-6.5-4.6-12.4-10.1-17.6c-5.5-5.2-12.2-7.9-20.2-7.9c-7.3,0-13.5,2.4-18.6,7.2c-5.1,4.7-8.3,10.8-9.4,18.4h58.3V373.5z"/>
	<path fill="#F2F2F2" d="M921,394.9h-77.8c1.1,8.5,4.5,15.4,10.1,20.8s12.8,8,21.5,8c12.7,0,30.6-6.2,38-16.4l8.2,8.2
		c-5.2,8.1-12,14.1-20.4,18s-17.1,5.8-26.2,5.8c-14.1,0-26.2-4.4-36.2-13.2c-10-8.8-15-20.7-15-35.7c0-14.2,4.9-25.9,14.6-35.1
		c9.8-9.2,21-13.7,33.7-13.7c12.4,0,15.2-3.4,25.6,5.2c12.3,10.2,15.9,16.6,18.4,21.9C918.9,376,920.8,384.7,921,394.9z
		 M902.3,381.7c-1.2-6.5-4.6-12.4-10.1-17.6s-12.2-7.9-20.2-7.9c-7.3,0-13.5,2.4-18.6,7.2c-5.1,4.7-8.3,10.8-9.4,18.4h58.3V381.7z"
		/>
	<path fill="#91E8FB" d="M912.8,386.7H835c1.1,8.5,4.5,15.4,10.1,20.8c5.6,5.3,12.8,8,21.5,8c12.7,0,22.7-5.1,30.1-15.2l16.1,7.1
		c-5.2,8.1-12,14.1-20.4,18s-17.1,5.8-26.2,5.8c-14.1,0-26.2-4.4-36.2-13.2c-10-8.8-15-20.7-15-35.7c0-14.2,4.9-25.9,14.6-35.1
		c9.8-9.2,21-13.7,33.7-13.7c12.4,0,23.6,4.5,33.8,13.4C907.2,355.6,912.4,369,912.8,386.7z M894.1,373.5
		c-1.2-6.5-4.6-12.4-10.1-17.6c-5.5-5.2-12.2-7.9-20.2-7.9c-7.3,0-13.5,2.4-18.6,7.2c-5.1,4.7-8.3,10.8-9.4,18.4h58.3V373.5z"/>
	<path fill="#F2F2F2" d="M934.2,360.2l-8.2-8.2l20.3-8l9.9-39.1l8.2,8.2v30.9l8.9-8.2l8.2,8.2v16.2h-17.1v44.9
		c0,7.2,0.4,11.7,1.2,13.3c0.8,1.7,7.7-7.6,7.7-7.6l8.2,8.2v16.6c-4.6,1.6-9.3,2.5-13.9,2.5c-5.5,0-10-1.2-13.5-3.7
		c-3.5-2.5-10.2-8.3-13.1-13.4s5.2-5.9,5.2-14.9v-45.8H934.2L934.2,360.2z"/>
	<path fill="#91E8FB" d="M926,352.1v-16.2h12.1v-14.2l18.1-16.6V336h17.1v16.2h-17.1v44.9c0,7.2,0.4,11.7,1.2,13.3
		c0.8,1.7,2.8,2.6,5.9,2.6c3.4,0,6.7-0.6,9.9-1.9v16.6c-4.6,1.6-9.3,2.5-13.9,2.5c-5.5,0-10-1.2-13.5-3.7s-5.6-5.5-6.5-9.2
		c-0.9-3.7-1.3-10-1.3-19.1v-45.8h-12V352.1z"/>
</g>
</svg>
