<?xml version="1.0" encoding="utf-8"?>
<!-- Generator: Adobe Illustrator 18.0.0, SVG Export Plug-In . SVG Version: 6.00 Build 0)  -->
<!DOCTYPE svg PUBLIC "-//W3C//DTD SVG 1.1//EN" "http://www.w3.org/Graphics/SVG/1.1/DTD/svg11.dtd">
<svg version="1.1" id="Layer_1" xmlns="http://www.w3.org/2000/svg" xmlns:xlink="http://www.w3.org/1999/xlink" x="0px" y="0px"
	 viewBox="24 117.1 938.3 146" enable-background="new 24 117.1 938.3 146" xml:space="preserve">
<g>
	<path fill="#F2F2F2" stroke="#FFFFFF" stroke-width="5" stroke-miterlimit="10" d="M580.8,259.5l-8-8l-16.2-68.1h-11l-8-8
		l38.1-15.8l8,8v15.8h-11.8l17.3,54.5l17.3-54.5h-9.9l-8-8l8-7.8l35.7-8l8,8v15.8h-9.9l17.3,54.5l17.3-54.5h-12.4l-8-8l8-7.8l32.8-8
		l8,8v15.8h-13L656,259.5h-16.7l-8-8l-12.7-57.4l-21.1,65.4H580.8z"/>
	<path fill="#F2F2F2" stroke="#FFFFFF" stroke-width="5" stroke-miterlimit="10" d="M51.6,241.8v-97.4H36.8l-8-8l49.7-16.2l8,8v16.2
		H71.2v37.2h56.5v-37.2h-15.2l-7.8-8L154,120l8.2,8.1v16.2h-14.8v97.4l6.8-8l8,8V258h-49.7l-8-8l23.2-8.2v-44H71.2v44l7.3-8l8,8V258
		H36.8l-8.2-8L51.6,241.8z"/>
	<path fill="#333333" stroke="#FFFFFF" stroke-width="5" stroke-miterlimit="10" d="M43.6,233.8v-97.4H28.8v-16.2h49.7v16.2H63.2
		v37.2h56.5v-37.2h-15.2v-16.2h49.7v16.2h-14.8v97.4h14.8V250h-49.7v-16.2h15.2v-44H63.2v44h15.3V250H28.8v-16.2H43.6z"/>
	<path fill="#F2F2F2" stroke="#FFFFFF" stroke-width="5" stroke-miterlimit="10" d="M269.7,217.3h-76c1.1,8.3,4.4,15.1,9.9,20.3
		c5.5,5.2,12.5,7.8,21,7.8c12.4,0,29.9-6.1,37.1-16l8,8c-5.1,7.9-11.7,13.8-19.9,17.6c-8.2,3.8-16.7,5.7-25.6,5.7
		c-13.8,0-25.6-4.3-35.4-12.9c-9.8-8.6-14.7-20.2-14.7-34.9c0-13.9,4.8-25.3,14.3-34.3c9.6-9,20.5-13.4,32.9-13.4
		c12.1,0,14.9-3.3,25,5.1c12,10,15.5,16.2,18,21.4C267.6,198.8,269.4,207.3,269.7,217.3z M251.4,204.4c-1.2-6.4-4.5-12.1-9.9-17.2
		c-5.4-5.1-11.9-7.7-19.7-7.7c-7.1,0-13.2,2.3-18.2,7c-5,4.6-8.1,10.6-9.2,18H251.4z"/>
	<path fill="#333333" stroke="#FFFFFF" stroke-width="5" stroke-miterlimit="10" d="M261.7,209.3h-76c1.1,8.3,4.4,15.1,9.9,20.3
		c5.5,5.2,12.5,7.8,21,7.8c12.4,0,22.2-5,29.4-14.9l15.7,6.9c-5.1,7.9-11.7,13.8-19.9,17.6c-8.2,3.8-16.7,5.7-25.6,5.7
		c-13.8,0-25.6-4.3-35.4-12.9c-9.8-8.6-14.7-20.2-14.7-34.9c0-13.9,4.8-25.3,14.3-34.3c9.6-9,20.5-13.4,32.9-13.4
		c12.1,0,23.1,4.4,33,13.1C256.2,178.9,261.3,192,261.7,209.3z M243.4,196.4c-1.2-6.4-4.5-12.1-9.9-17.2c-5.4-5.1-11.9-7.7-19.7-7.7
		c-7.1,0-13.2,2.3-18.2,7c-5,4.6-8.1,10.6-9.2,18H243.4z"/>
	<path fill="#F2F2F2" stroke="#FFFFFF" stroke-width="5" stroke-miterlimit="10" d="M338.7,252.1c-7.1,5.2-14.3,7.4-22.6,7.4
		c-8.2,0-18.3-4-32-18.6c6.5-2.3,1.4-1.7,1.4-10c0-8.4,3.2-15.4,9.7-20.9c6.4-5.5,14.2-8.3,23.3-8.3c8.5,0,16.7,2.6,24.6,7.7v-9
		c0-4.6-0.4-8.2-1.3-10.6c-0.9-2.5-2.9-4.7-6.1-6.7c-3.2-2-7.4-3-12.6-3c-8.9,0-15.3,3.5-19.3,10.6l-17-4.5l-8-8
		c0,0,31.3-13.1,47-13.1c6.8,0,9.4-6.3,15.3-2.6c5.9,3.8,10.9,9.5,13.4,12.4c2.4,2.9,4.1,6,4.9,9.4c0.8,3.4,1.3,8.7,1.3,16.1v33.3
		h7.2l8,8.5V258h-31L338.7,252.1z M343.1,224.4c-7.7-6-15.4-9-23.3-9c-4.9,0-9,1.4-12.3,4.3c-3.3,2.9-4.9,6.6-4.9,11.1
		c0,4.2,1.4,7.8,4.3,10.6c2.9,2.9,6.8,4.3,11.8,4.3c8.6,0,16.7-6.1,24.4-13.3V224.4z"/>
	<path fill="#333333" stroke="#FFFFFF" stroke-width="5" stroke-miterlimit="10" d="M367.8,234.2V250h-31v-11
		c-8.6,8.3-18.2,12.5-28.8,12.5c-8.2,0-15.4-2.7-21.4-8c-6.1-5.4-9.1-12.2-9.1-20.5c0-8.4,3.2-15.4,9.7-20.9
		c6.4-5.5,14.2-8.3,23.3-8.3c8.5,0,16.7,2.6,24.6,7.7v-9c0-4.6-0.4-8.2-1.3-10.6c-0.9-2.5-2.9-4.7-6.1-6.7c-3.2-2-7.4-3-12.6-3
		c-8.9,0-15.3,3.5-19.3,10.6l-17-4.5c7.5-14.1,20.5-21.1,39-21.1c6.8,0,12.7,0.9,17.6,2.8c4.9,1.8,8.6,4.2,11.1,7.1
		c2.4,2.9,4.1,6,4.9,9.4c0.8,3.4,1.3,8.7,1.3,16.1v41.8H367.8z M335.1,216.4c-7.7-6-15.4-9-23.3-9c-4.9,0-9,1.4-12.3,4.3
		c-3.3,2.9-4.9,6.6-4.9,11.1c0,4.2,1.4,7.8,4.3,10.6c2.9,2.9,6.8,4.3,11.8,4.3c8.6,0,16.7-3.6,24.4-10.8V216.4z"/>
	<path fill="#F2F2F2" stroke="#FFFFFF" stroke-width="5" stroke-miterlimit="10" d="M384.1,183.4l-8-8l19.8-7.8l9.7-38.2l8,8v30.2
		l8.7-8l8,8v15.8h-16.7v43.9c0,7,0.4,11.4,1.2,13c0.8,1.7,7.5-7.4,7.5-7.4l8,8v16.2c-4.5,1.6-9.1,2.4-13.6,2.4
		c-5.4,0-9.8-1.2-13.2-3.6c-3.4-2.4-10-8.1-12.8-13.1c-2.8-4.9,5.1-5.8,5.1-14.6v-44.8H384.1z"/>
	<path fill="#333333" stroke="#FFFFFF" stroke-width="5" stroke-miterlimit="10" d="M376.1,175.4v-15.8h11.8v-13.9l17.7-16.2v30.2
		h16.7v15.8h-16.7v43.9c0,7,0.4,11.4,1.2,13c0.8,1.7,2.7,2.5,5.8,2.5c3.3,0,6.5-0.6,9.7-1.9v16.2c-4.5,1.6-9.1,2.4-13.6,2.4
		c-5.4,0-9.8-1.2-13.2-3.6c-3.4-2.4-5.5-5.4-6.4-9c-0.9-3.6-1.3-9.8-1.3-18.7v-44.8H376.1z"/>
	<path fill="#F2F2F2" stroke="#FFFFFF" stroke-width="5" stroke-miterlimit="10" d="M481.3,241.8v-97.4h-26.8v33.2h-16.1l-8-8
		l8-41.4l97.2-8l8,8v49.4h-16.1l-8-8l8-25.2h-26.7v93l8.9-3.6l8,8V258h-53.1l-8-8L481.3,241.8z"/>
	<path fill="#91E8FB" stroke="#FFFFFF" stroke-width="5" stroke-miterlimit="10" d="M473.3,233.8v-97.4h-26.8v33.2h-16.1v-49.4
		h105.2v49.4h-16.1v-33.2h-26.7v97.4h16.9V250h-53.1v-16.2H473.3z"/>
	<path fill="#91E8FB" stroke="#FFFFFF" stroke-width="5" stroke-miterlimit="10" d="M572.8,251.5l-24.2-76.1h-11v-15.8h38.1v15.8
		h-11.8l17.3,54.5l17.3-54.5h-9.9v-15.8h43.7v15.8h-9.9l17.3,54.5l17.3-54.5h-12.4v-15.8h40.8v15.8h-13L648,251.5h-16.7l-20.7-65.4
		l-21.1,65.4H572.8z"/>
	<path fill="#F2F2F2" stroke="#FFFFFF" stroke-width="5" stroke-miterlimit="10" d="M791,217.3h-76c1.1,8.3,4.4,15.1,9.9,20.3
		c5.5,5.2,12.5,7.8,21,7.8c12.4,0,29.9-6.1,37.1-16l8,8c-5.1,7.9-11.7,13.8-19.9,17.6c-8.2,3.8-16.7,5.7-25.6,5.7
		c-13.8,0-25.6-4.3-35.4-12.9c-9.8-8.6-14.7-20.2-14.7-34.9c0-13.9,4.8-25.3,14.3-34.3c9.6-9,20.5-13.4,32.9-13.4
		c12.1,0,14.9-3.3,25,5.1c12,10,15.5,16.2,18,21.4C789,198.8,790.8,207.3,791,217.3z M772.7,204.4c-1.2-6.4-4.5-12.1-9.9-17.2
		c-5.4-5.1-11.9-7.7-19.7-7.7c-7.1,0-13.2,2.3-18.2,7c-5,4.6-8.1,10.6-9.2,18H772.7z"/>
	<path fill="#91E8FB" stroke="#FFFFFF" stroke-width="5" stroke-miterlimit="10" d="M783,209.3h-76c1.1,8.3,4.4,15.1,9.9,20.3
		c5.5,5.2,12.5,7.8,21,7.8c12.4,0,22.2-5,29.4-14.9l15.7,6.9c-5.1,7.9-11.7,13.8-19.9,17.6c-8.2,3.8-16.7,5.7-25.6,5.7
		c-13.8,0-25.6-4.3-35.4-12.9c-9.8-8.6-14.7-20.2-14.7-34.9c0-13.9,4.8-25.3,14.3-34.3c9.6-9,20.5-13.4,32.9-13.4
		c12.1,0,23.1,4.4,33,13.1C777.5,178.9,782.7,192,783,209.3z M764.7,196.4c-1.2-6.4-4.5-12.1-9.9-17.2c-5.4-5.1-11.9-7.7-19.7-7.7
		c-7.1,0-13.2,2.3-18.2,7c-5,4.6-8.1,10.6-9.2,18H764.7z"/>
	<path fill="#F2F2F2" stroke="#FFFFFF" stroke-width="5" stroke-miterlimit="10" d="M900.7,217.3h-76c1.1,8.3,4.4,15.1,9.9,20.3
		c5.5,5.2,12.5,7.8,21,7.8c12.4,0,29.9-6.1,37.1-16l8,8c-5.1,7.9-11.7,13.8-19.9,17.6c-8.2,3.8-16.7,5.7-25.6,5.7
		c-13.8,0-25.6-4.3-35.4-12.9c-9.8-8.6-14.7-20.2-14.7-34.9c0-13.9,4.8-25.3,14.3-34.3c9.6-9,20.5-13.4,32.9-13.4
		c12.1,0,14.9-3.3,25,5.1c12,10,15.5,16.2,18,21.4C898.7,198.8,900.5,207.3,900.7,217.3z M882.4,204.4c-1.2-6.4-4.5-12.1-9.9-17.2
		c-5.4-5.1-11.9-7.7-19.7-7.7c-7.1,0-13.2,2.3-18.2,7c-5,4.6-8.1,10.6-9.2,18H882.4z"/>
	<path fill="#91E8FB" stroke="#FFFFFF" stroke-width="5" stroke-miterlimit="10" d="M892.7,209.3h-76c1.1,8.3,4.4,15.1,9.9,20.3
		c5.5,5.2,12.5,7.8,21,7.8c12.4,0,22.2-5,29.4-14.9l15.7,6.9c-5.1,7.9-11.7,13.8-19.9,17.6c-8.2,3.8-16.7,5.7-25.6,5.7
		c-13.8,0-25.6-4.3-35.4-12.9c-9.8-8.6-14.7-20.2-14.7-34.9c0-13.9,4.8-25.3,14.3-34.3c9.6-9,20.5-13.4,32.9-13.4
		c12.1,0,23.1,4.4,33,13.1C887.2,178.9,892.3,192,892.7,209.3z M874.4,196.4c-1.2-6.4-4.5-12.1-9.9-17.2c-5.4-5.1-11.9-7.7-19.7-7.7
		c-7.1,0-13.2,2.3-18.2,7c-5,4.6-8.1,10.6-9.2,18H874.4z"/>
	<path fill="#F2F2F2" stroke="#FFFFFF" stroke-width="5" stroke-miterlimit="10" d="M913.6,183.4l-8-8l19.8-7.8l9.7-38.2l8,8v30.2
		l8.7-8l8,8v15.8h-16.7v43.9c0,7,0.4,11.4,1.2,13c0.8,1.7,7.5-7.4,7.5-7.4l8,8v16.2c-4.5,1.6-9.1,2.4-13.6,2.4
		c-5.4,0-9.8-1.2-13.2-3.6c-3.4-2.4-10-8.1-12.8-13.1s5.1-5.8,5.1-14.6v-44.8H913.6z"/>
	<path fill="#91E8FB" stroke="#FFFFFF" stroke-width="5" stroke-miterlimit="10" d="M905.6,175.4v-15.8h11.8v-13.9l17.7-16.2v30.2
		h16.7v15.8h-16.7v43.9c0,7,0.4,11.4,1.2,13c0.8,1.7,2.7,2.5,5.8,2.5c3.3,0,6.5-0.6,9.7-1.9v16.2c-4.5,1.6-9.1,2.4-13.6,2.4
		c-5.4,0-9.8-1.2-13.2-3.6c-3.4-2.4-5.5-5.4-6.4-9c-0.9-3.6-1.3-9.8-1.3-18.7v-44.8H905.6z"/>
</g>
<g>
	<path fill="#F2F2F2" d="M580.8,259.5l-8-8l-16.2-68.1h-11l-8-8l38.1-15.8l8,8v15.8h-11.8l17.3,54.5l17.3-54.5h-9.9l-8-8l8-7.8
		l35.7-8l8,8v15.8h-9.9l17.3,54.5l17.3-54.5h-12.4l-8-8l8-7.8l32.8-8l8,8v15.8h-13L656,259.5h-16.7l-8-8l-12.7-57.4l-21.1,65.4
		H580.8z"/>
	<path fill="#F2F2F2" d="M51.6,241.8v-97.4H36.8l-8-8l49.7-16.2l8,8v16.2H71.2v37.2h56.5v-37.2h-15.2l-7.8-8L154,120l8.2,8.1v16.2
		h-14.8v97.4l6.8-8l8,8V258h-49.7l-8-8l23.2-8.2v-44H71.2v44l7.3-8l8,8V258H36.8l-8.2-8L51.6,241.8z"/>
	<path fill="#333333" d="M43.6,233.8v-97.4H28.8v-16.2h49.7v16.2H63.2v37.2h56.5v-37.2h-15.2v-16.2h49.7v16.2h-14.8v97.4h14.8V250
		h-49.7v-16.2h15.2v-44H63.2v44h15.3V250H28.8v-16.2H43.6z"/>
	<path fill="#F2F2F2" d="M269.7,217.3h-76c1.1,8.3,4.4,15.1,9.9,20.3c5.5,5.2,12.5,7.8,21,7.8c12.4,0,29.9-6.1,37.1-16l8,8
		c-5.1,7.9-11.7,13.8-19.9,17.6c-8.2,3.8-16.7,5.7-25.6,5.7c-13.8,0-25.6-4.3-35.4-12.9c-9.8-8.6-14.7-20.2-14.7-34.9
		c0-13.9,4.8-25.3,14.3-34.3c9.6-9,20.5-13.4,32.9-13.4c12.1,0,14.9-3.3,25,5.1c12,10,15.5,16.2,18,21.4
		C267.6,198.8,269.4,207.3,269.7,217.3z M251.4,204.4c-1.2-6.4-4.5-12.1-9.9-17.2c-5.4-5.1-11.9-7.7-19.7-7.7
		c-7.1,0-13.2,2.3-18.2,7c-5,4.6-8.1,10.6-9.2,18H251.4z"/>
	<path fill="#333333" d="M261.7,209.3h-76c1.1,8.3,4.4,15.1,9.9,20.3c5.5,5.2,12.5,7.8,21,7.8c12.4,0,22.2-5,29.4-14.9l15.7,6.9
		c-5.1,7.9-11.7,13.8-19.9,17.6c-8.2,3.8-16.7,5.7-25.6,5.7c-13.8,0-25.6-4.3-35.4-12.9c-9.8-8.6-14.7-20.2-14.7-34.9
		c0-13.9,4.8-25.3,14.3-34.3c9.6-9,20.5-13.4,32.9-13.4c12.1,0,23.1,4.4,33,13.1C256.2,178.9,261.3,192,261.7,209.3z M243.4,196.4
		c-1.2-6.4-4.5-12.1-9.9-17.2c-5.4-5.1-11.9-7.7-19.7-7.7c-7.1,0-13.2,2.3-18.2,7c-5,4.6-8.1,10.6-9.2,18H243.4z"/>
	<path fill="#F2F2F2" d="M338.7,252.1c-7.1,5.2-14.3,7.4-22.6,7.4c-8.2,0-18.3-4-32-18.6c6.5-2.3,1.4-1.7,1.4-10
		c0-8.4,3.2-15.4,9.7-20.9c6.4-5.5,14.2-8.3,23.3-8.3c8.5,0,16.7,2.6,24.6,7.7v-9c0-4.6-0.4-8.2-1.3-10.6c-0.9-2.5-2.9-4.7-6.1-6.7
		c-3.2-2-7.4-3-12.6-3c-8.9,0-15.3,3.5-19.3,10.6l-17-4.5l-8-8c0,0,31.3-13.1,47-13.1c6.8,0,9.4-6.3,15.3-2.6
		c5.9,3.8,10.9,9.5,13.4,12.4c2.4,2.9,4.1,6,4.9,9.4c0.8,3.4,1.3,8.7,1.3,16.1v33.3h7.2l8,8.5V258h-31L338.7,252.1z M343.1,224.4
		c-7.7-6-15.4-9-23.3-9c-4.9,0-9,1.4-12.3,4.3c-3.3,2.9-4.9,6.6-4.9,11.1c0,4.2,1.4,7.8,4.3,10.6c2.9,2.9,6.8,4.3,11.8,4.3
		c8.6,0,16.7-6.1,24.4-13.3V224.4z"/>
	<path fill="#333333" d="M367.8,234.2V250h-31v-11c-8.6,8.3-18.2,12.5-28.8,12.5c-8.2,0-15.4-2.7-21.4-8c-6.1-5.4-9.1-12.2-9.1-20.5
		c0-8.4,3.2-15.4,9.7-20.9c6.4-5.5,14.2-8.3,23.3-8.3c8.5,0,16.7,2.6,24.6,7.7v-9c0-4.6-0.4-8.2-1.3-10.6c-0.9-2.5-2.9-4.7-6.1-6.7
		c-3.2-2-7.4-3-12.6-3c-8.9,0-15.3,3.5-19.3,10.6l-17-4.5c7.5-14.1,20.5-21.1,39-21.1c6.8,0,12.7,0.9,17.6,2.8
		c4.9,1.8,8.6,4.2,11.1,7.1c2.4,2.9,4.1,6,4.9,9.4c0.8,3.4,1.3,8.7,1.3,16.1v41.8H367.8z M335.1,216.4c-7.7-6-15.4-9-23.3-9
		c-4.9,0-9,1.4-12.3,4.3c-3.3,2.9-4.9,6.6-4.9,11.1c0,4.2,1.4,7.8,4.3,10.6c2.9,2.9,6.8,4.3,11.8,4.3c8.6,0,16.7-3.6,24.4-10.8
		V216.4z"/>
	<path fill="#F2F2F2" d="M384.1,183.4l-8-8l19.8-7.8l9.7-38.2l8,8v30.2l8.7-8l8,8v15.8h-16.7v43.9c0,7,0.4,11.4,1.2,13
		c0.8,1.7,7.5-7.4,7.5-7.4l8,8v16.2c-4.5,1.6-9.1,2.4-13.6,2.4c-5.4,0-9.8-1.2-13.2-3.6c-3.4-2.4-10-8.1-12.8-13.1
		c-2.8-4.9,5.1-5.8,5.1-14.6v-44.8H384.1z"/>
	<path fill="#333333" d="M376.1,175.4v-15.8h11.8v-13.9l17.7-16.2v30.2h16.7v15.8h-16.7v43.9c0,7,0.4,11.4,1.2,13
		c0.8,1.7,2.7,2.5,5.8,2.5c3.3,0,6.5-0.6,9.7-1.9v16.2c-4.5,1.6-9.1,2.4-13.6,2.4c-5.4,0-9.8-1.2-13.2-3.6c-3.4-2.4-5.5-5.4-6.4-9
		c-0.9-3.6-1.3-9.8-1.3-18.7v-44.8H376.1z"/>
	<path fill="#F2F2F2" d="M481.3,241.8v-97.4h-26.8v33.2h-16.1l-8-8l8-41.4l97.2-8l8,8v49.4h-16.1l-8-8l8-25.2h-26.7v93l8.9-3.6l8,8
		V258h-53.1l-8-8L481.3,241.8z"/>
	<path fill="#91E8FB" d="M473.3,233.8v-97.4h-26.8v33.2h-16.1v-49.4h105.2v49.4h-16.1v-33.2h-26.7v97.4h16.9V250h-53.1v-16.2H473.3z
		"/>
	<path fill="#91E8FB" d="M572.8,251.5l-24.2-76.1h-11v-15.8h38.1v15.8h-11.8l17.3,54.5l17.3-54.5h-9.9v-15.8h43.7v15.8h-9.9
		l17.3,54.5l17.3-54.5h-12.4v-15.8h40.8v15.8h-13L648,251.5h-16.7l-20.7-65.4l-21.1,65.4H572.8z"/>
	<path fill="#F2F2F2" d="M791,217.3h-76c1.1,8.3,4.4,15.1,9.9,20.3c5.5,5.2,12.5,7.8,21,7.8c12.4,0,29.9-6.1,37.1-16l8,8
		c-5.1,7.9-11.7,13.8-19.9,17.6c-8.2,3.8-16.7,5.7-25.6,5.7c-13.8,0-25.6-4.3-35.4-12.9c-9.8-8.6-14.7-20.2-14.7-34.9
		c0-13.9,4.8-25.3,14.3-34.3c9.6-9,20.5-13.4,32.9-13.4c12.1,0,14.9-3.3,25,5.1c12,10,15.5,16.2,18,21.4
		C789,198.8,790.8,207.3,791,217.3z M772.7,204.4c-1.2-6.4-4.5-12.1-9.9-17.2c-5.4-5.1-11.9-7.7-19.7-7.7c-7.1,0-13.2,2.3-18.2,7
		c-5,4.6-8.1,10.6-9.2,18H772.7z"/>
	<path fill="#91E8FB" d="M783,209.3h-76c1.1,8.3,4.4,15.1,9.9,20.3c5.5,5.2,12.5,7.8,21,7.8c12.4,0,22.2-5,29.4-14.9l15.7,6.9
		c-5.1,7.9-11.7,13.8-19.9,17.6c-8.2,3.8-16.7,5.7-25.6,5.7c-13.8,0-25.6-4.3-35.4-12.9c-9.8-8.6-14.7-20.2-14.7-34.9
		c0-13.9,4.8-25.3,14.3-34.3c9.6-9,20.5-13.4,32.9-13.4c12.1,0,23.1,4.4,33,13.1C777.5,178.9,782.7,192,783,209.3z M764.7,196.4
		c-1.2-6.4-4.5-12.1-9.9-17.2c-5.4-5.1-11.9-7.7-19.7-7.7c-7.1,0-13.2,2.3-18.2,7c-5,4.6-8.1,10.6-9.2,18H764.7z"/>
	<path fill="#F2F2F2" d="M900.7,217.3h-76c1.1,8.3,4.4,15.1,9.9,20.3c5.5,5.2,12.5,7.8,21,7.8c12.4,0,29.9-6.1,37.1-16l8,8
		c-5.1,7.9-11.7,13.8-19.9,17.6c-8.2,3.8-16.7,5.7-25.6,5.7c-13.8,0-25.6-4.3-35.4-12.9c-9.8-8.6-14.7-20.2-14.7-34.9
		c0-13.9,4.8-25.3,14.3-34.3c9.6-9,20.5-13.4,32.9-13.4c12.1,0,14.9-3.3,25,5.1c12,10,15.5,16.2,18,21.4
		C898.7,198.8,900.5,207.3,900.7,217.3z M882.4,204.4c-1.2-6.4-4.5-12.1-9.9-17.2c-5.4-5.1-11.9-7.7-19.7-7.7
		c-7.1,0-13.2,2.3-18.2,7c-5,4.6-8.1,10.6-9.2,18H882.4z"/>
	<path fill="#91E8FB" d="M892.7,209.3h-76c1.1,8.3,4.4,15.1,9.9,20.3c5.5,5.2,12.5,7.8,21,7.8c12.4,0,22.2-5,29.4-14.9l15.7,6.9
		c-5.1,7.9-11.7,13.8-19.9,17.6c-8.2,3.8-16.7,5.7-25.6,5.7c-13.8,0-25.6-4.3-35.4-12.9c-9.8-8.6-14.7-20.2-14.7-34.9
		c0-13.9,4.8-25.3,14.3-34.3c9.6-9,20.5-13.4,32.9-13.4c12.1,0,23.1,4.4,33,13.1C887.2,178.9,892.3,192,892.7,209.3z M874.4,196.4
		c-1.2-6.4-4.5-12.1-9.9-17.2c-5.4-5.1-11.9-7.7-19.7-7.7c-7.1,0-13.2,2.3-18.2,7c-5,4.6-8.1,10.6-9.2,18H874.4z"/>
	<path fill="#F2F2F2" d="M913.6,183.4l-8-8l19.8-7.8l9.7-38.2l8,8v30.2l8.7-8l8,8v15.8h-16.7v43.9c0,7,0.4,11.4,1.2,13
		c0.8,1.7,7.5-7.4,7.5-7.4l8,8v16.2c-4.5,1.6-9.1,2.4-13.6,2.4c-5.4,0-9.8-1.2-13.2-3.6c-3.4-2.4-10-8.1-12.8-13.1s5.1-5.8,5.1-14.6
		v-44.8H913.6z"/>
	<path fill="#91E8FB" d="M905.6,175.4v-15.8h11.8v-13.9l17.7-16.2v30.2h16.7v15.8h-16.7v43.9c0,7,0.4,11.4,1.2,13
		c0.8,1.7,2.7,2.5,5.8,2.5c3.3,0,6.5-0.6,9.7-1.9v16.2c-4.5,1.6-9.1,2.4-13.6,2.4c-5.4,0-9.8-1.2-13.2-3.6c-3.4-2.4-5.5-5.4-6.4-9
		c-0.9-3.6-1.3-9.8-1.3-18.7v-44.8H905.6z"/>
</g>
</svg>
