<?xml version="1.0" encoding="utf-8"?>
<!-- Generator: Adobe Illustrator 18.0.0, SVG Export Plug-In . SVG Version: 6.00 Build 0)  -->
<!DOCTYPE svg PUBLIC "-//W3C//DTD SVG 1.1//EN" "http://www.w3.org/Graphics/SVG/1.1/DTD/svg11.dtd">
<svg version="1.1" id="Layer_1" xmlns="http://www.w3.org/2000/svg" xmlns:xlink="http://www.w3.org/1999/xlink" x="0px" y="0px"
	 viewBox="43.7 -0.2 873.6 400.2" enable-background="new 43.7 -0.2 873.6 400.2" xml:space="preserve">
<g id="bg">
</g>
<g id="back_1_">
</g>
<g id="mid">
</g>
<g id="front">
</g>
<g id="Layer_2">
	<defs>
		<filter id="Adobe_OpacityMaskFilter" filterUnits="userSpaceOnUse" x="-478.7" y="0" width="1859.1" height="583.1">
			<feColorMatrix  type="matrix" values="1 0 0 0 0  0 1 0 0 0  0 0 1 0 0  0 0 0 1 0"/>
		</filter>
	</defs>
	<mask maskUnits="userSpaceOnUse" x="-478.7" y="0" width="1859.1" height="583.1" id="SVGID_1_">
		<g filter="url(#Adobe_OpacityMaskFilter)">
			<rect x="43.6" y="0" fill="#FFFFFF" width="872.7" height="400"/>
		</g>
	</mask>
	<g mask="url(#SVGID_1_)">
		<rect x="5.4" y="0" fill="#C5EFF7" width="964.5" height="384.1"/>
		<g id="sun">
			<path fill="#FFFBE9" d="M678.3,120.6h19.3c6,0,10.9-4.9,10.9-10.9V90.5c0-6-4.9-10.9-10.9-10.9h-19.3c-6,0-10.9,4.9-10.9,10.9
				v19.3C667.4,115.7,672.3,120.6,678.3,120.6z"/>
			<g>
				<path fill="#FFFBE9" d="M702.5,129.5h-6.6c-1.2,0-2.2-1-2.2-2.2v-0.2c0-1.2,1-2.2,2.2-2.2h8.2c0.2,0,0.4,0,0.5,0l0.1,2.3
					C703.8,128.1,703.4,128.5,702.5,129.5z M680.5,129.5h-6.6c-1.2,0-2.2-1-2.2-2.2v-0.2c0-1.2,1-2.2,2.2-2.2h6.6
					c1.2,0,2.2,1,2.2,2.2v0.2C682.7,128.5,681.7,129.5,680.5,129.5z M662.5,122c-1.2,0.7-2.7,0.3-3.2-1c-0.5-1.5-0.8-3.1-0.8-4.6
					v-2.7c0-1.2,1-2.2,2.2-2.2h0.2c1.2,0,2.2,1,2.2,2.2v2.7c0,1,0.2,2,0.5,3c0.4,1,0,2.1-0.9,2.6L662.5,122z M713.5,121.5l-0.2-0.1
					c-0.9-0.5-1.4-1.5-1-2.5c0.3-0.8,0.4-1.7,0.4-2.5v-3.3c0-1.2,1-2.2,2.2-2.2h0.2c1.2,0,2.2,1,2.2,2.2v3.3c0,1.4-0.2,2.6-0.6,3.9
					C716.3,121.5,714.7,122.2,713.5,121.5z M660.9,100.4h-0.2c-1.2,0-2.2-1-2.2-2.2v-6.6c0-1.2,1-2.2,2.2-2.2h0.2
					c1.2,0,2.2,1,2.2,2.2v6.6C663.1,99.4,662.1,100.4,660.9,100.4z M715.1,99.8h-0.2c-1.2,0-2.2-1-2.2-2.2V91c0-1.2,1-2.2,2.2-2.2
					h0.2c1.2,0,2.2,1,2.2,2.2v6.6C717.3,98.8,716.4,99.8,715.1,99.8z M662.5,78.7l-0.2-0.1c-1.2-0.6-1.5-2.2-0.6-3.3
					c1.7-2.1,4.1-3.5,6.7-4.3c1.4-0.4,2.7,0.5,2.7,2v0.2c0.1,1-0.6,2-1.6,2.2c-1.7,0.5-3.2,1.4-4.4,2.7
					C664.5,79.1,663.4,79.3,662.5,78.7z M710.4,77.9c-1.2-1.3-2.8-2.2-4.5-2.5c-1-0.2-1.7-1.1-1.7-2.1v-0.2c0-1.4,1.3-2.4,2.6-2.1
					c2.6,0.5,5,1.9,6.8,3.8c1,1,0.8,2.6-0.4,3.4l-0.2,0.1C712.2,78.8,711.1,78.7,710.4,77.9z M690.9,75.3h-6.6c-1.2,0-2.2-1-2.2-2.2
					v-0.2c0-1.2,1-2.2,2.2-2.2h6.6c1.2,0,2.2,1,2.2,2.2v0.2C693.1,74.3,692.2,75.3,690.9,75.3z"/>
			</g>
			<g>
				<path fill="#FFFBE9" d="M702.9,141.5h-6.4c-1.3,0-2.3-1-2.3-2.3l0,0c0-1.3,1-2.3,2.3-2.3h6.4c1.3,0,2.3,1,2.3,2.3l0,0
					C705.2,140.5,704.2,141.5,702.9,141.5z M673.8,141.5h-6.4c-1.3,0-2.3-1-2.3-2.3l0,0c0-1.3,1-2.3,2.3-2.3h6.4
					c1.3,0,2.3,1,2.3,2.3l0,0C676.1,140.5,675.1,141.5,673.8,141.5z M651,134.9c-1.5-1.8-2.7-4-3.5-6.3c-0.5-1.3,0.4-2.7,1.7-2.9
					l0,0c1.1-0.2,2.2,0.5,2.5,1.5c0.5,1.7,1.5,3.5,2.7,4.8c0.7,0.8,0.6,2.1-0.1,2.9l0,0C653.5,136,651.9,135.9,651,134.9z
					 M722,134.4L722,134.4c-0.8-0.8-0.9-2.1-0.2-2.9c1.2-1.5,2-3.2,2.5-5c0.3-1.1,1.4-1.7,2.5-1.6l0,0c1.4,0.2,2.3,1.5,1.9,2.8
					c-0.6,2.4-1.7,4.5-3.2,6.5C724.5,135.3,723,135.4,722,134.4z M648.8,107.5L648.8,107.5c-1.3,0-2.3-1-2.3-2.3v-6.4
					c0-1.3,1-2.3,2.3-2.3l0,0c1.3,0,2.3,1,2.3,2.3v6.4C651.1,106.5,650.1,107.5,648.8,107.5z M727,106.7L727,106.7
					c-1.3,0-2.3-1-2.3-2.3v-6.4c0-1.3,1-2.3,2.3-2.3l0,0c1.3,0,2.3,1,2.3,2.3v6.4C729.3,105.7,728.3,106.7,727,106.7z M649.5,78.5
					h-1.5c-0.7,0-1.3-0.5-1.3-1.3v-0.3c0-2.9,0.6-5.2,2-7.8c0.6-1.3,2.2-1.6,3.4-0.8l0,0c0.9,0.6,1.2,1.9,0.7,2.9
					c-1,1.9-1.5,3.5-1.5,5.6l0,0C651.1,77.7,650.4,78.5,649.5,78.5z M728.1,77.6c-0.6,0.2-2.5,0-3,0s-0.5,0-0.4-1.5
					s-0.6-3.6-1.8-5.7c-0.5-1-0.3-2.2,0.6-2.9l0,0c1.1-0.8,2.6-0.5,3.4,0.6c1.5,2.8,2.5,6.8,2.4,7.9
					C729.2,77.4,728.7,77.5,728.1,77.6z M705.2,63.3h-6.4c-1.3,0-2.3-1-2.3-2.3l0,0c0-1.3,1-2.3,2.3-2.3h6.4c1.3,0,2.3,1,2.3,2.3
					l0,0C707.5,62.3,706.5,63.3,705.2,63.3z M676.1,63.3h-6.4c-1.3,0-2.3-1-2.3-2.3l0,0c0-1.3,1-2.3,2.3-2.3h6.4
					c1.3,0,2.3,1,2.3,2.3l0,0C678.4,62.3,677.4,63.3,676.1,63.3z"/>
			</g>
		</g>
		<rect x="5.4" y="204.5" fill="#3968BC" width="964.5" height="179.5"/>
		<path fill="#477CC9" d="M969.9,204.5H425.4c-2,0-2,1.6,0,3.6l38.6,38.6c2,2,5.3,3.6,7.3,3.6h498.6V204.5z"/>
		<path fill="#5B93D6" d="M553,234h339.4c2,0,2-1.6,0-3.6l-22.2-22.2c-2-2-5.3-3.6-7.3-3.6H523.5c-2,0-2,1.6,0,3.6l22.2,22.2
			C547.7,232.4,551,234,553,234z"/>
		<path fill="#6CA6E0" d="M613.2,224.4h231.6c2,0,2-1.6,0-3.6l-12.5-12.5c-2-2-5.3-3.6-7.3-3.6H593.4c-2,0-2,1.6,0,3.6l12.5,12.5
			C607.9,222.7,611.2,224.4,613.2,224.4z"/>
		<path fill="#7FB9EA" d="M684.9,217.8h118.9c2,0,2-1.6,0-3.6l-6-6c-2-2-5.3-3.6-7.3-3.6h-119c-2,0-2,1.6,0,3.6l6,6
			C679.6,216.2,682.9,217.8,684.9,217.8z"/>
		<path fill="#A6D4F4" d="M708.1,211.8h56.5c2,0,2-1.6,0-3.6l0,0c-2-2-5.3-3.6-7.3-3.6h-56.5c-2,0-2,1.6,0,3.6l0,0
			C702.8,210.2,706.1,211.8,708.1,211.8z"/>
		<g>
			<path fill="#E6FCFF" d="M470.3,179.2H269.2c-5.4,0-9.7-4.4-9.7-9.7l0,0c0-5.4,4.4-9.7,9.7-9.7h201.1c5.4,0,9.7,4.4,9.7,9.7l0,0
				C480,174.8,475.6,179.2,470.3,179.2z"/>
			<path fill="#E6FCFF" d="M384.2,188.9h-76.3c-5.4,0-9.7-4.4-9.7-9.7l0,0c0-5.4,4.4-9.7,9.7-9.7h76.3c5.4,0,9.7,4.4,9.7,9.7l0,0
				C393.9,184.5,389.5,188.9,384.2,188.9z"/>
			<path fill="#E6FCFF" d="M432.1,164.6h-76.3c-5.4,0-9.7-4.4-9.7-9.7l0,0c0-5.4,4.4-9.7,9.7-9.7h76.3c5.4,0,9.7,4.4,9.7,9.7l0,0
				C441.8,160.3,437.5,164.6,432.1,164.6z"/>
		</g>
		<g>
			<g>
				<path fill="#E6FCFF" d="M653.5,167h220.6c4.8,0,8.8-4,8.8-8.8l0,0c0-4.8-4-8.8-8.8-8.8H653.5c-4.8,0-8.8,4-8.8,8.8l0,0
					C644.6,163.1,648.5,167,653.5,167z"/>
				<path fill="#E6FCFF" d="M731.9,158.2h126.5c4.8,0,8.8-4,8.8-8.8l0,0c0-4.8-4-8.8-8.8-8.8H731.9c-4.8,0-8.8,4-8.8,8.8l0,0
					C723,154.2,727,158.2,731.9,158.2z"/>
				<path fill="#E6FCFF" d="M772.6,173h126.5c4.8,0,8.8-4,8.8-8.8l0,0c0-4.8-4-8.8-8.8-8.8H772.6c-4.8,0-8.8,4-8.8,8.8l0,0
					C763.7,169,767.7,173,772.6,173z"/>
			</g>
			<path fill="#FFFFFF" d="M733.1,161.5H812c3.3,0,5.9-2.6,5.9-5.9v-5.5c0-3.3-2.6-5.9-5.9-5.9h-78.9c-3.3,0-5.9,2.6-5.9,5.9v5.5
				C727.2,158.9,729.8,161.5,733.1,161.5z"/>
			<path fill="#FFFFFF" d="M829.5,167h-43.9c-5.5,0-9.9-4.5-9.9-9.9l0,0c0-5.5,4.5-9.9,9.9-9.9h43.9c5.5,0,9.9,4.5,9.9,9.9l0,0
				C839.5,162.6,835,167,829.5,167z"/>
			<path fill="#FFFFFF" d="M680.5,160.5H736c2.2,0,3.9-1.7,3.9-3.9v-3.5c0-2.2-1.7-3.9-3.9-3.9h-55.5c-2.2,0-3.9,1.7-3.9,3.9v3.5
				C676.6,158.8,678.5,160.5,680.5,160.5z"/>
		</g>
		<g>
			<path fill="#3184C9" d="M498.5,427.4H-15.7c-20.1,0-52.9-16.5-73-36.5l-109.5-109.5c-20.1-20.1-20.1-36.5,0-36.5h514.2
				c20.1,0,52.9,16.5,73,36.5l109.5,109.5C518.5,410.9,518.5,427.4,498.5,427.4z"/>
			<path fill="#3184C9" d="M669.1,438.5H205.4c-20.1,0-52.9-16.5-73-36.5L12.2,281.8c-20.1-20.1-20.1-36.5,0-36.5h463.7
				c20.1,0,52.9,16.5,73,36.5L669.1,402C689.2,422.1,689.2,438.5,669.1,438.5z"/>
			<path fill="#3184C9" d="M854.5,432.8H340.4c-20.1,0-52.9-16.5-73-36.5L157.8,286.7c-20.1-20.1-20.1-36.5,0-36.5H672
				c20.1,0,52.9,16.5,73,36.5l109.5,109.5C874.6,416.4,874.6,432.8,854.5,432.8z"/>
			<path fill="#3184C9" d="M468.1,422H129c-20.1,0-52.9-16.5-73-36.5L-53.5,275.9c-20.1-20.1-20.1-36.5,0-36.5h339.1
				c20.1,0,52.9,16.5,73,36.5l109.5,109.5C488.2,405.5,488.2,422,468.1,422z"/>
			<path fill="#3184C9" d="M1219.3,439.7l-416-1.1c-20.1-0.1-53-16.5-73-36.6L615.4,286.8c-20-20.1-19.9-36.5,0.2-36.5l416,1.1
				c20.1,0.1,53,16.5,73,36.6l114.9,115.2C1239.5,423.4,1239.4,439.7,1219.3,439.7z"/>
			<path fill="#3184C9" d="M669.1,443.5H205.4c-20.1,0-52.9-16.5-73-36.5L12.2,286.9c-20.1-20.1-20.1-36.5,0-36.5h463.7
				c20.1,0,52.9,16.5,73,36.5l120.2,120.2C689.2,427.2,689.2,443.5,669.1,443.5z"/>
			<path fill="#3299C6" d="M781,440.2H266.8c-20.1,0-52.9-16.5-73-36.5L84.3,294.2c-20.1-20.1-20.1-36.5,0-36.5h514.2
				c20.1,0,52.9,16.5,73,36.5L781,403.7C801,423.8,801,440.2,781,440.2z"/>
			<path fill="#3299C6" d="M334.1,286.8h568.2c20.1,0,52.9,16.5,73,36.5l89.2,89.2c20.1,20.1,20.1,36.5,0,36.5H496.4
				c-20.1,0-52.9-16.5-73-36.5l-89.2-89.2C314,303.2,314,286.8,334.1,286.8z"/>
			<path fill="#3299C6" d="M922.9,275.6h77.3c20.1,0,52.9,16.5,73,36.5l89.2,89.2c20.1,20.1,20.1,36.5,0,36.5h-77.3
				c-20.1,0-52.9-16.5-73-36.5l-89.2-89.2C902.8,292,902.8,275.6,922.9,275.6z"/>
			<path fill="#3299C6" d="M800.4,279H642.1c-6.3,0-6.3,5.2,0,11.5l0,0c6.3,6.3,16.6,11.5,22.9,11.5h158.3c6.3,0,6.3-5.2,0-11.5l0,0
				C817,284.2,806.6,279,800.4,279z"/>
			<path fill="#3299C6" d="M121.5,275.8H9.1c-8.7,0-23-7.1-31.7-15.8l0,0c-8.7-8.7-8.7-15.8,0-15.8H89.8c8.7,0,23,7.1,31.7,15.8l0,0
				C130.2,268.7,130.2,275.8,121.5,275.8z"/>
			<path fill="#3299C6" d="M227.9,275.6H126.4c-5.8,0-15.5-4.8-21.3-10.6l0,0c-5.8-5.8-5.8-10.6,0-10.6h101.5
				c5.8,0,15.5,4.8,21.3,10.6l0,0C233.7,270.8,233.7,275.6,227.9,275.6z"/>
			<path fill="#3DA5C9" d="M226.5,270.1h-74.8c-4.3,0-11.4-3.5-15.6-7.8l0,0c-4.3-4.3-4.3-7.8,0-7.8h74.8c4.3,0,11.4,3.5,15.6,7.8
				l0,0C230.8,266.5,230.8,270.1,226.5,270.1z"/>
			<path fill="#3299C6" d="M620.9,268.9H496.4c-7.2,0-18.9-5.9-26.1-13.1l0,0c-7.2-7.2-7.2-13.1,0-13.1h124.6
				c7.2,0,18.9,5.9,26.1,13.1l0,0C628.1,263.1,628.1,268.9,620.9,268.9z"/>
			<path fill="#3DA5C9" d="M619.3,262.1h-91.8c-5.3,0-13.9-4.4-19.3-9.6l0,0c-5.3-5.3-5.3-9.6,0-9.6H600c5.3,0,13.9,4.4,19.3,9.6
				l0,0C624.5,257.7,624.5,262.1,619.3,262.1z"/>
			<path fill="#3299C6" d="M688.4,281.6h-45.6c-2.6,0-6.9-2.7-9.5-6l0,0c-2.6-3.3-2.6-6,0-6h45.6c2.6,0,6.9,2.7,9.5,6l0,0
				C691,278.9,691,281.6,688.4,281.6z"/>
			<path fill="#3DA5C9" d="M687.8,278.5h-33.6c-1.9,0-5.1-2-7.1-4.5l0,0c-1.9-2.5-1.9-4.5,0-4.5h33.6c1.9,0,5.1,2,7.1,4.5l0,0
				C689.7,276.5,689.7,278.5,687.8,278.5z"/>
			<path fill="#3DA5C9" d="M540.1,246.5h-23c-2.5,0-6.8-2.1-9.4-4.6l-3.5-3.5c-2.5-2.5-2.5-4.6,0-4.6h23c2.5,0,6.8,2.1,9.4,4.6
				l3.5,3.5C542.7,244.5,542.7,246.5,540.1,246.5z"/>
		</g>
		<path fill="#3299C6" d="M-67.4,264.6h509.3c18,0,47.5,14.7,65.5,32.7l80,80c18,18,18,32.7,0,32.7H78.1c-18,0-47.5-14.7-65.5-32.7
			l-80-80C-85.4,279.4-85.4,264.6-67.4,264.6z"/>
		<path fill="#3DA5C9" d="M581.2,303.2H416c-10.3,0-27-8.4-37.3-18.6l0,0c-10.3-10.3-10.3-18.6,0-18.6h165.2
			c10.3,0,27,8.4,37.3,18.6l0,0C591.5,294.8,591.5,303.2,581.2,303.2z"/>
		<path fill="#3299C6" d="M81.5,267.7h61.2c6.4,0,6.4-5.2,0-11.5l0,0c-6.4-6.4-16.7-11.5-23-11.5H58.5c-6.4,0-6.4,5.2,0,11.5l0,0
			C64.9,262.5,75.3,267.7,81.5,267.7z"/>
		<path fill="#3DA5C9" d="M642.5,271.2h-7.9c-2.9,0-7.6-2.4-10.5-5.3l0,0c-2.9-2.9-2.9-5.3,0-5.3h7.9c2.9,0,7.6,2.4,10.5,5.3l0,0
			C645.4,268.8,645.4,271.2,642.5,271.2z"/>
		<g>
			<g>
				<g>
					<g>
						<path fill="#E6FCFF" d="M415.5,83.2h228.3c4.8,0,8.8-4,8.8-8.8l0,0c0-4.8-4-8.8-8.8-8.8H415.5c-4.8,0-8.8,4-8.8,8.8l0,0
							C406.7,79.2,410.7,83.2,415.5,83.2z"/>
						<path fill="#E6FCFF" d="M496.5,74.4h126.5c4.8,0,8.8-4,8.8-8.8v-6.6c0-4.8-4-8.8-8.8-8.8H496.5c-4.8,0-8.8,4-8.8,8.8v6.6
							C487.6,70.4,491.6,74.4,496.5,74.4z"/>
						<path fill="#E6FCFF" d="M453.3,92h126.5c4.8,0,8.8-4,8.8-8.8l0,0c0-4.8-4-8.8-8.8-8.8H453.3c-4.8,0-8.8,4-8.8,8.8l0,0
							C444.5,88,448.5,92,453.3,92z"/>
					</g>
					<g>
						<path fill="#FFFFFF" d="M497.4,80h124.8c4.8,0,8.8-4,8.8-8.8V58.3c0-4.8-4-8.8-8.8-8.8H497.4c-4.8,0-8.8,4-8.8,8.8v12.8
							C488.5,76,492.5,80,497.4,80z"/>
						<path fill="#E6FCFF" d="M429.4,83.2h214.5c4.8,0,8.8-4,8.8-8.8l0,0c0-4.8-4-8.8-8.8-8.8H429.4c-4.8,0-8.8,4-8.8,8.8l0,0
							C420.5,79.2,424.5,83.2,429.4,83.2z"/>
						<path fill="#E6FCFF" d="M483.2,75.8h119.4c4.8,0,8.8-4,8.8-8.8v-4.9c0-4.8-4-8.8-8.8-8.8H483.2c-4.8,0-8.8,4-8.8,8.8V67
							C474.3,71.9,478.3,75.8,483.2,75.8z"/>
						<path fill="#E6FCFF" d="M453.3,92h126.5c4.8,0,8.8-4,8.8-8.8l0,0c0-4.8-4-8.8-8.8-8.8H453.3c-4.8,0-8.8,4-8.8,8.8l0,0
							C444.5,88,448.5,92,453.3,92z"/>
					</g>
				</g>
				<path fill="#FFFFFF" d="M585.7,80h59.5c4,0,7.3-3.3,7.3-7.3l0,0c0-4-3.3-7.3-7.3-7.3h-59.5c-4,0-7.3,3.3-7.3,7.3l0,0
					C578.5,76.7,581.7,80,585.7,80z"/>
				<path fill="#E6FCFF" d="M570.4,65.5h46.5c5.9,0,10.6,4.8,10.6,10.6l0,0c0,5.9-4.8,10.6-10.6,10.6h-46.5
					c-5.9,0-10.7-4.8-10.7-10.6l0,0C559.7,70.3,564.5,65.5,570.4,65.5z"/>
			</g>
			<path fill="#32BCBF" d="M942,572.8H436.5c-18,0-47.5-14.7-65.5-32.7L214.9,384c-18-18-18-32.7,0-32.7h505.5
				c18,0,47.5,14.7,65.5,32.7L942,540.1C960,558.1,960,572.8,942,572.8z"/>
			<path fill="#32BCBF" d="M1366.9,583.1H861.4c-18,0-47.5-14.7-65.5-32.7L639.8,394.3c-18-18-18-32.7,0-32.7h505.5
				c18,0,47.5,14.7,65.5,32.7l156.1,156.1C1384.9,568.4,1384.9,583.1,1366.9,583.1z"/>
			<path fill="#32BCBF" d="M1003.5,525.5h-170c-18,0-47.5-14.7-65.5-32.7L611.9,336.7c-18-18-18-32.7,0-32.7h170
				c18,0,47.5,14.7,65.5,32.7l156.1,156.1C1021.5,510.8,1021.5,525.5,1003.5,525.5z"/>
			<path fill="#32BCBF" d="M638.9,573.8H133.4c-18,0-47.5-14.7-65.5-32.7L-88.2,385c-18-18-18-32.7,0-32.7h505.5
				c18,0,47.5,14.7,65.5,32.7l156.1,156.1C656.9,559.1,656.9,573.8,638.9,573.8z"/>
			<path fill="#32BCBF" d="M261.9,573.8h-505.5c-18,0-47.5-14.7-65.5-32.7L-465.2,385c-18-18-18-32.7,0-32.7H40.4
				c18,0,47.5,14.7,65.5,32.7l156.1,156.1C279.9,559.1,279.9,573.8,261.9,573.8z"/>
			<path fill="#32BCBF" d="M783.6,399.5H632.5c-18,0-47.5-14.7-65.5-32.7l-10.5-10.5c-18-18-18-32.7,0-32.7h151
				c18,0,47.5,14.7,65.5,32.7l10.5,10.5C801.6,384.7,801.6,399.5,783.6,399.5z"/>
			<path fill="#32BCBF" d="M744.5,412.1h-151c-18,0-47.5-14.7-65.5-32.7l-10.5-10.5c-18-18-18-32.7,0-32.7h151
				c18,0,47.5,14.7,65.5,32.7l10.5,10.5C762.5,397.4,762.5,412.1,744.5,412.1z"/>
			<path fill="#32BCBF" d="M343.3,414.2h-151c-18,0-47.5-14.7-65.5-32.7l-10.5-10.5c-18-18-18-32.7,0-32.7h151
				c18,0,47.5,14.7,65.5,32.7l10.5,10.5C361.3,399.5,361.3,414.2,343.3,414.2z"/>
			<path fill="#32BCBF" d="M153,406.5H2c-18,0-47.5-14.7-65.5-32.7L-74,363.2c-18-18-18-32.7,0-32.7H77c18,0,47.5,14.7,65.5,32.7
				l10.5,10.5C171,391.7,171,406.5,153,406.5z"/>
			<path fill="#32BCBF" d="M26,376.2h-151c-18,0-47.5-14.7-65.5-32.7l-10.5-10.5c-18-18-18-32.7,0-32.7h151
				c18,0,47.5,14.7,65.5,32.7L26,343.5C44,361.5,44,376.2,26,376.2z"/>
			<path fill="#32BCBF" d="M470.3,399h-151c-18,0-47.5-14.7-65.5-32.7l-10.5-10.5c-18-18-18-32.7,0-32.7h151
				c18,0,47.5,14.7,65.5,32.7l10.5,10.5C488.3,384.3,488.3,399,470.3,399z"/>
			<path fill="#32BCBF" d="M1040.5,480.5H901c-18,0-47.5-14.7-65.5-32.7l-88.3-88.4c-18-18-18-32.7,0-32.7h139.5
				c18,0,47.5,14.7,65.5,32.7l88.4,88.4C1058.5,465.7,1058.5,480.5,1040.5,480.5z"/>
			<path fill="#32BCBF" d="M1229.6,518.4h-139.5c-18,0-47.5-14.7-65.5-32.7l-88.4-88.4c-18-18-18-32.7,0-32.7h139.5
				c18,0,47.5,14.7,65.5,32.7l88.4,88.4C1247.6,503.6,1247.6,518.4,1229.6,518.4z"/>
			<path fill="#4CCCCC" d="M475.5,370.4h-24.4c-7,0-18.4-5.7-25.4-12.6l0,0c-7-7-7-12.6,0-12.6h24.4c7,0,18.4,5.7,25.4,12.6l0,0
				C482.5,364.6,482.5,370.4,475.5,370.4z"/>
			<path fill="#4CCCCC" d="M426,357.6h-24.4c-7,0-18.4-5.7-25.4-12.6l0,0c-7-7-7-12.6,0-12.6h24.4c7,0,18.4,5.7,25.4,12.6l0,0
				C433,352,433,357.6,426,357.6z"/>
			<path fill="#4CCCCC" d="M418.2,472.4h125.7c18,0,18-14.7,0-32.7l-55.5-55.5c-18-18-47.5-32.7-65.5-32.7H297.2
				c-18,0-18,14.7,0,32.7l55.5,55.5C370.7,457.6,400.2,472.4,418.2,472.4z"/>
			<path fill="#4CCCCC" d="M101.3,461.4H227c18,0,18-14.7,0-32.7l-55.5-55.5c-18-18-47.5-32.7-65.5-32.7H-19.7c-18,0-18,14.7,0,32.7
				l55.5,55.5C53.8,446.6,83.3,461.4,101.3,461.4z"/>
			<path fill="#4CCCCC" d="M281.3,482.5H407c18,0,18-14.7,0-32.7l-55.5-55.5c-18-18-47.5-32.7-65.5-32.7H160.3c-18,0-18,14.7,0,32.7
				l55.5,55.5C233.8,467.8,263.3,482.5,281.3,482.5z"/>
			<path fill="#4CCCCC" d="M905.5,457.1h125.7c18,0,18-14.7,0-32.7l-55.5-55.5c-18-18-47.5-32.7-65.5-32.7H784.5
				c-18,0-18,14.7,0,32.7l55.5,55.5C858,442.4,887.5,457.1,905.5,457.1z"/>
			<path fill="#4CCCCC" d="M779.1,425.1h125.7c18,0,18-14.7,0-32.7l-55.5-55.5c-18-18-47.5-32.7-65.5-32.7H658.1
				c-18,0-18,14.7,0,32.7l55.5,55.5C731.6,410.4,761.1,425.1,779.1,425.1z"/>
			<path fill="#4CCCCC" d="M658.5,470.6h125.7c18,0,18-14.7,0-32.7l-55.5-55.5c-18-18-47.5-32.7-65.5-32.7H537.4
				c-18,0-18,14.7,0,32.7l55.5,55.5C611,455.9,640.5,470.6,658.5,470.6z"/>
			<path fill="#4CCCCC" d="M561.4,487.8h125.7c18,0,18-14.7,0-32.7l-55.5-55.5c-18-18-47.5-32.7-65.5-32.7H440.4
				c-18,0-18,14.7,0,32.7l55.5,55.5C513.9,473.1,543.4,487.8,561.4,487.8z"/>
		</g>
		<path fill="#7769B2" d="M801.6,102.4c0,0-0.6-5,0-7.4c0.6-2.4,6.9-2.5,6.7-2.1c-0.2,0.5-3.6,0.5-4.6,2.2
			C802.6,96.7,803,101.6,801.6,102.4z"/>
		<path fill="#7769B2" d="M787.7,98.1c1.5,0.4,3.2-2.5,4.7-2.4c1.5,0.1,2.3,0.7,2.3,0.7s-2.1-0.7-2.5-0.2c-0.5,0.5-2.1,1.5-1.8,2.1
			c0.3,0.5,2.9,0,2.9,0s-1.7,1.1-2.7,1.1c-1,0-1.8-0.2-3,1.7c-1.3,1.9,1,1.7,1,1.7s-3.2,1-2.7-0.7c0.5-1.8,1.1-3.6-0.3-4.1
			C785.5,98.1,786.5,97.8,787.7,98.1z"/>
		<path fill="#7769B2" d="M799.5,108.1c0.5,0.2,0.9-0.9,1.5-1l6.5-0.6c0,0-2.8,1.2-6.1,2.5c-0.5,0.3-0.4,1.2,2.9,2
			c0.6,0.2-5.7-0.8-6.4-0.5c-2.7,1.1-5,2.1-5.3,2.2c-0.5,0.2,1.5-2.1,3-3.1c0.9-0.5,1.7,0.1,1.7-1l-0.1-1.3L799.5,108.1z"/>
		<path fill="#7769B2" d="M815.5,109.1c0,0,2.5,0.6,4.2,0s0.8-1.4,0.8-1.4s1.1,0.6,1.6,0.8c0.5,0.2,1.4,0.7,2.2,0.2c0.8-0.5,1-1,1-1
			s0.9,1.7-0.5,2.1c-1.5,0.4-2.4,0.6-2.4,0.6s0.4,0.8,0.7,0.8c0.4-0.1-1.6,0-2-0.5C820.8,110.3,817.5,111.6,815.5,109.1z"/>
	</g>
</g>
</svg>
