<?xml version="1.0" encoding="utf-8"?>
<!-- Generator: Adobe Illustrator 18.0.0, SVG Export Plug-In . SVG Version: 6.00 Build 0)  -->
<!DOCTYPE svg PUBLIC "-//W3C//DTD SVG 1.1//EN" "http://www.w3.org/Graphics/SVG/1.1/DTD/svg11.dtd">
<svg version="1.1" xmlns="http://www.w3.org/2000/svg" xmlns:xlink="http://www.w3.org/1999/xlink" x="0px" y="0px"
	 viewBox="0 0 960 440" enable-background="new 0 0 960 440" xml:space="preserve">
<g id="bg">
</g>
<g id="back_1_">
</g>
<g id="mid">
</g>
<g id="front">
</g>
<g id="Layer_2">
	<defs>
		<filter id="Adobe_OpacityMaskFilter" filterUnits="userSpaceOnUse" x="-574.6" y="0" width="2045" height="641.4">
			<feColorMatrix  type="matrix" values="1 0 0 0 0  0 1 0 0 0  0 0 1 0 0  0 0 0 1 0"/>
		</filter>
	</defs>
	<mask maskUnits="userSpaceOnUse" x="-574.6" y="0" width="2045" height="641.4" id="SVGID_1_">
		<g filter="url(#Adobe_OpacityMaskFilter)">
			<rect x="0" y="0" fill="#FFFFFF" width="960" height="440"/>
		</g>
	</mask>
	<g mask="url(#SVGID_1_)">
		<rect x="-42.1" y="0" fill="#C5EFF7" width="1061" height="422.5"/>
		<g id="sun">
			<path fill="#FFFBE9" d="M698.1,132.7h21.2c6.6,0,12-5.4,12-12V99.5c0-6.6-5.4-12-12-12h-21.2c-6.6,0-12,5.4-12,12v21.2
				C686.1,127.3,691.5,132.7,698.1,132.7z"/>
			<g>
				<path fill="#FFFBE9" d="M724.8,142.4h-7.3c-1.3,0-2.4-1.1-2.4-2.4v-0.2c0-1.3,1.1-2.4,2.4-2.4h9c0.2,0,0.4,0,0.5,0l0.1,2.5
					C726.2,140.9,725.7,141.4,724.8,142.4z M700.6,142.4h-7.3c-1.3,0-2.4-1.1-2.4-2.4l0-0.2c0-1.3,1.1-2.4,2.4-2.4h7.3
					c1.3,0,2.4,1.1,2.4,2.4v0.2C703,141.4,701.9,142.4,700.6,142.4z M680.8,134.2c-1.3,0.8-3,0.3-3.5-1.1c-0.6-1.6-0.9-3.4-0.9-5.1
					v-3c0-1.3,1.1-2.4,2.4-2.4h0.2c1.3,0,2.4,1.1,2.4,2.4v3c0,1.1,0.2,2.2,0.6,3.3c0.4,1.1,0,2.3-1,2.9L680.8,134.2z M736.9,133.7
					l-0.2-0.1c-1-0.6-1.5-1.7-1.1-2.8c0.3-0.9,0.4-1.9,0.4-2.8v-3.6c0-1.3,1.1-2.4,2.4-2.4h0.2c1.3,0,2.4,1.1,2.4,2.4v3.6
					c0,1.5-0.2,2.9-0.7,4.3C739.9,133.7,738.2,134.4,736.9,133.7z M679,110.4h-0.2c-1.3,0-2.4-1.1-2.4-2.4v-7.3
					c0-1.3,1.1-2.4,2.4-2.4h0.2c1.3,0,2.4,1.1,2.4,2.4v7.3C681.4,109.3,680.3,110.4,679,110.4z M738.6,109.8h-0.2
					c-1.3,0-2.4-1.1-2.4-2.4v-7.3c0-1.3,1.1-2.4,2.4-2.4h0.2c1.3,0,2.4,1.1,2.4,2.4v7.3C741,108.7,740,109.8,738.6,109.8z
					 M680.7,86.6l-0.2-0.1c-1.3-0.7-1.7-2.4-0.7-3.6c1.9-2.3,4.5-3.9,7.4-4.7c1.5-0.4,3,0.6,3,2.2l0,0.2c0.1,1.1-0.7,2.2-1.8,2.4
					c-1.9,0.5-3.5,1.5-4.8,3C682.9,87,681.7,87.2,680.7,86.6z M733.4,85.7c-1.3-1.4-3.1-2.4-5-2.8c-1.1-0.2-1.9-1.2-1.9-2.3l0-0.2
					c0-1.5,1.4-2.6,2.9-2.3c2.9,0.6,5.5,2.1,7.5,4.2c1.1,1.1,0.9,2.9-0.4,3.7l-0.2,0.1C735.4,86.7,734.2,86.6,733.4,85.7z M712,82.8
					h-7.3c-1.3,0-2.4-1.1-2.4-2.4v-0.2c0-1.3,1.1-2.4,2.4-2.4h7.3c1.3,0,2.4,1.1,2.4,2.4v0.2C714.4,81.7,713.4,82.8,712,82.8z"/>
			</g>
			<g>
				<path fill="#FFFBE9" d="M725.2,155.6h-7c-1.4,0-2.5-1.1-2.5-2.5v0c0-1.4,1.1-2.5,2.5-2.5h7c1.4,0,2.5,1.1,2.5,2.5v0
					C727.7,154.5,726.6,155.6,725.2,155.6z M693.2,155.6h-7c-1.4,0-2.5-1.1-2.5-2.5v0c0-1.4,1.1-2.5,2.5-2.5h7
					c1.4,0,2.5,1.1,2.5,2.5v0C695.7,154.5,694.6,155.6,693.2,155.6z M668.1,148.4c-1.7-2-3-4.4-3.9-6.9c-0.5-1.4,0.4-3,1.9-3.2l0,0
					c1.2-0.2,2.4,0.5,2.8,1.6c0.6,1.9,1.7,3.8,3,5.3c0.8,0.9,0.7,2.3-0.1,3.2l0,0C670.9,149.6,669.1,149.5,668.1,148.4z
					 M746.2,147.8L746.2,147.8c-0.9-0.9-1-2.3-0.2-3.2c1.3-1.6,2.2-3.5,2.7-5.5c0.3-1.2,1.5-1.9,2.7-1.8l0,0
					c1.5,0.2,2.5,1.7,2.1,3.1c-0.7,2.6-1.9,5-3.5,7.1C749,148.8,747.3,148.9,746.2,147.8z M665.7,118.3L665.7,118.3
					c-1.4,0-2.5-1.1-2.5-2.5v-7c0-1.4,1.1-2.5,2.5-2.5h0c1.4,0,2.5,1.1,2.5,2.5v7C668.2,117.2,667.1,118.3,665.7,118.3z
					 M751.7,117.4L751.7,117.4c-1.4,0-2.5-1.1-2.5-2.5v-7c0-1.4,1.1-2.5,2.5-2.5h0c1.4,0,2.5,1.1,2.5,2.5v7
					C754.2,116.3,753.1,117.4,751.7,117.4z M666.4,86.3h-1.7c-0.8,0-1.4-0.6-1.4-1.4v-0.3c0-3.2,0.7-5.7,2.2-8.6
					c0.7-1.4,2.4-1.8,3.7-0.9l0,0c1,0.7,1.3,2.1,0.8,3.2c-1.1,2.1-1.6,3.8-1.6,6.2l0,0C668.2,85.5,667.4,86.3,666.4,86.3z
					 M752.9,85.4c-0.7,0.2-2.8,0-3.3,0c-0.5,0-0.5,0-0.4-1.6s-0.7-4-2-6.3c-0.6-1.1-0.3-2.4,0.7-3.2l0,0c1.2-0.9,2.9-0.6,3.7,0.7
					c1.7,3.1,2.7,7.5,2.6,8.7C754.1,85.1,753.6,85.2,752.9,85.4z M727.7,69.6h-7c-1.4,0-2.5-1.1-2.5-2.5v0c0-1.4,1.1-2.5,2.5-2.5h7
					c1.4,0,2.5,1.1,2.5,2.5v0C730.2,68.5,729.1,69.6,727.7,69.6z M695.7,69.6h-7c-1.4,0-2.5-1.1-2.5-2.5v0c0-1.4,1.1-2.5,2.5-2.5h7
					c1.4,0,2.5,1.1,2.5,2.5v0C698.2,68.5,697.1,69.6,695.7,69.6z"/>
			</g>
		</g>
		<rect x="-42.1" y="225" fill="#3968BC" width="1061" height="197.5"/>
		<path fill="#477CC9" d="M1018.9,225h-599c-2.2,0-2.2,1.8,0,4l42.5,42.5c2.2,2.2,5.8,4,8,4h548.5L1018.9,225z"/>
		<path fill="#5B93D6" d="M560.3,257.4h373.3c2.2,0,2.2-1.8,0-4L909.2,229c-2.2-2.2-5.8-4-8-4H527.9c-2.2,0-2.2,1.8,0,4l24.4,24.4
			C554.5,255.6,558.1,257.4,560.3,257.4z"/>
		<path fill="#6CA6E0" d="M626.5,246.8h254.8c2.2,0,2.2-1.8,0-4L867.5,229c-2.2-2.2-5.8-4-8-4H604.7c-2.2,0-2.2,1.8,0,4l13.8,13.8
			C620.7,245,624.3,246.8,626.5,246.8z"/>
		<path fill="#7FB9EA" d="M705.4,239.6h130.8c2.2,0,2.2-1.8,0-4l-6.6-6.6c-2.2-2.2-5.8-4-8-4H690.7c-2.2,0-2.2,1.8,0,4l6.6,6.6
			C699.6,237.8,703.2,239.6,705.4,239.6z"/>
		<path fill="#A6D4F4" d="M730.9,233H793c2.2,0,2.2-1.8,0-4v0c-2.2-2.2-5.8-4-8-4h-62.2c-2.2,0-2.2,1.8,0,4l0,0
			C725.1,231.2,728.7,233,730.9,233z"/>
		<g>
			<path fill="#E6FCFF" d="M469.3,197.1H248.1c-5.9,0-10.7-4.8-10.7-10.7v0c0-5.9,4.8-10.7,10.7-10.7h221.2
				c5.9,0,10.7,4.8,10.7,10.7v0C480,192.3,475.2,197.1,469.3,197.1z"/>
			<path fill="#E6FCFF" d="M374.6,207.8h-83.9c-5.9,0-10.7-4.8-10.7-10.7v0c0-5.9,4.8-10.7,10.7-10.7h83.9c5.9,0,10.7,4.8,10.7,10.7
				v0C385.3,203,380.5,207.8,374.6,207.8z"/>
			<path fill="#E6FCFF" d="M427.3,181.1h-83.9c-5.9,0-10.7-4.8-10.7-10.7v0c0-5.9,4.8-10.7,10.7-10.7h83.9c5.9,0,10.7,4.8,10.7,10.7
				v0C438,176.3,433.2,181.1,427.3,181.1z"/>
		</g>
		<g>
			<g>
				<path fill="#E6FCFF" d="M670.8,183.7h242.7c5.3,0,9.7-4.4,9.7-9.7v0c0-5.3-4.4-9.7-9.7-9.7H670.8c-5.3,0-9.7,4.4-9.7,9.7v0
					C661.1,179.4,665.4,183.7,670.8,183.7z"/>
				<path fill="#E6FCFF" d="M757.1,174h139.1c5.3,0,9.7-4.4,9.7-9.7v0c0-5.3-4.4-9.7-9.7-9.7H757.1c-5.3,0-9.7,4.4-9.7,9.7v0
					C747.3,169.6,751.7,174,757.1,174z"/>
				<path fill="#E6FCFF" d="M801.9,190.3h139.1c5.3,0,9.7-4.4,9.7-9.7v0c0-5.3-4.4-9.7-9.7-9.7H801.9c-5.3,0-9.7,4.4-9.7,9.7v0
					C792.1,185.9,796.5,190.3,801.9,190.3z"/>
			</g>
			<path fill="#FFFFFF" d="M758.4,177.7h86.8c3.6,0,6.5-2.9,6.5-6.5v-6c0-3.6-2.9-6.5-6.5-6.5h-86.8c-3.6,0-6.5,2.9-6.5,6.5v6
				C751.9,174.8,754.8,177.7,758.4,177.7z"/>
			<path fill="#FFFFFF" d="M864.5,183.7h-48.3c-6,0-10.9-4.9-10.9-10.9v0c0-6,4.9-10.9,10.9-10.9h48.3c6,0,10.9,4.9,10.9,10.9v0
				C875.4,178.9,870.5,183.7,864.5,183.7z"/>
			<path fill="#FFFFFF" d="M700.6,176.6h61c2.4,0,4.3-1.9,4.3-4.3v-3.8c0-2.4-1.9-4.3-4.3-4.3h-61c-2.4,0-4.3,1.9-4.3,4.3v3.8
				C696.3,174.7,698.3,176.6,700.6,176.6z"/>
		</g>
		<g>
			<path fill="#3184C9" d="M500.3,470.1H-65.3c-22.1,0-58.2-18.1-80.3-40.2l-120.5-120.5c-22.1-22.1-22.1-40.2,0-40.2h565.6
				c22.1,0,58.2,18.1,80.3,40.2l120.5,120.5C522.4,452,522.4,470.1,500.3,470.1z"/>
			<path fill="#3184C9" d="M688,482.4H177.9c-22.1,0-58.2-18.1-80.3-40.2L-34.6,310c-22.1-22.1-22.1-40.2,0-40.2h510.1
				c22.1,0,58.2,18.1,80.3,40.2L688,442.2C710.1,464.3,710.1,482.4,688,482.4z"/>
			<path fill="#3184C9" d="M892,476.1H326.4c-22.1,0-58.2-18.1-80.3-40.2L125.6,315.4c-22.1-22.1-22.1-40.2,0-40.2h565.6
				c22.1,0,58.2,18.1,80.3,40.2L892,435.9C914.1,458,914.1,476.1,892,476.1z"/>
			<path fill="#3184C9" d="M466.9,464.2h-373c-22.1,0-58.2-18.1-80.3-40.2l-120.5-120.5c-22.1-22.1-22.1-40.2,0-40.2h373
				c22.1,0,58.2,18.1,80.3,40.2l120.5,120.5C489,446.1,489,464.2,466.9,464.2z"/>
			<path fill="#3184C9" d="M1293.2,483.7l-457.6-1.2c-22.1-0.1-58.3-18.2-80.3-40.3L628.9,315.5c-22-22.1-21.9-40.1,0.2-40.1
				l457.6,1.2c22.1,0.1,58.3,18.2,80.3,40.3l126.4,126.7C1315.4,465.7,1315.3,483.7,1293.2,483.7z"/>
			<path fill="#3184C9" d="M688,487.9H177.9c-22.1,0-58.2-18.1-80.3-40.2L-34.6,315.6c-22.1-22.1-22.1-40.2,0-40.2h510.1
				c22.1,0,58.2,18.1,80.3,40.2L688,447.8C710.1,469.9,710.1,487.9,688,487.9z"/>
			<path fill="#3299C6" d="M811.1,484.2H245.5c-22.1,0-58.2-18.1-80.3-40.2L44.7,323.6c-22.1-22.1-22.1-40.2,0-40.2h565.6
				c22.1,0,58.2,18.1,80.3,40.2l120.5,120.5C833.1,466.2,833.1,484.2,811.1,484.2z"/>
			<path fill="#3299C6" d="M319.5,315.5h625c22.1,0,58.2,18.1,80.3,40.2l98.1,98.1c22.1,22.1,22.1,40.2,0,40.2H498
				c-22.1,0-58.2-18.1-80.3-40.2l-98.1-98.1C297.4,333.5,297.4,315.5,319.5,315.5z"/>
			<path fill="#3299C6" d="M967.2,303.2h85c22.1,0,58.2,18.1,80.3,40.2l98.1,98.1c22.1,22.1,22.1,40.2,0,40.2h-85
				c-22.1,0-58.2-18.1-80.3-40.2l-98.1-98.1C945.1,321.2,945.1,303.2,967.2,303.2z"/>
			<path fill="#3299C6" d="M832.4,306.9H658.3c-6.9,0-6.9,5.7,0,12.6l0,0c6.9,6.9,18.3,12.6,25.2,12.6h174.1c6.9,0,6.9-5.7,0-12.6v0
				C850.7,312.6,839.3,306.9,832.4,306.9z"/>
			<path fill="#3299C6" d="M85.6,303.4H-38c-9.6,0-25.3-7.8-34.9-17.4l0,0c-9.6-9.6-9.6-17.4,0-17.4H50.8c9.6,0,25.3,7.8,34.9,17.4
				l0,0C95.2,295.6,95.2,303.4,85.6,303.4z"/>
			<path fill="#3299C6" d="M202.7,303.2H91c-6.4,0-17-5.3-23.4-11.7h0c-6.4-6.4-6.4-11.7,0-11.7h111.6c6.4,0,17,5.3,23.4,11.7h0
				C209.1,297.9,209.1,303.2,202.7,303.2z"/>
			<path fill="#3DA5C9" d="M201.2,297.1h-82.3c-4.7,0-12.5-3.9-17.2-8.6h0c-4.7-4.7-4.7-8.6,0-8.6h82.3c4.7,0,12.5,3.9,17.2,8.6h0
				C205.9,293.2,205.9,297.1,201.2,297.1z"/>
			<path fill="#3299C6" d="M635,295.8H498c-7.9,0-20.8-6.5-28.7-14.4l0,0c-7.9-7.9-7.9-14.4,0-14.4h137.1c7.9,0,20.8,6.5,28.7,14.4
				v0C642.9,289.4,642.9,295.8,635,295.8z"/>
			<path fill="#3DA5C9" d="M633.2,288.3h-101c-5.8,0-15.3-4.8-21.2-10.6l0,0c-5.8-5.8-5.8-10.6,0-10.6h101c5.8,0,15.3,4.8,21.2,10.6
				l0,0C639,283.5,639,288.3,633.2,288.3z"/>
			<path fill="#3299C6" d="M709.2,309.8H659c-2.9,0-7.6-3-10.5-6.6h0c-2.9-3.6-2.9-6.6,0-6.6h50.2c2.9,0,7.6,3,10.5,6.6h0
				C712.1,306.8,712.1,309.8,709.2,309.8z"/>
			<path fill="#3DA5C9" d="M708.6,306.3h-37c-2.1,0-5.6-2.2-7.8-4.9l0,0c-2.1-2.7-2.1-4.9,0-4.9h37c2.1,0,5.6,2.2,7.8,4.9l0,0
				C710.7,304.1,710.7,306.3,708.6,306.3z"/>
			<path fill="#3DA5C9" d="M546.1,271.2h-25.3c-2.8,0-7.5-2.3-10.3-5.1l-3.8-3.8c-2.8-2.8-2.8-5.1,0-5.1h25.3
				c2.8,0,7.5,2.3,10.3,5.1l3.8,3.8C549,268.9,549,271.2,546.1,271.2z"/>
		</g>
		<path fill="#3299C6" d="M-122.1,291.1h560.2c19.8,0,52.2,16.2,72,36l88,88c19.8,19.8,19.8,36,0,36H37.9c-19.8,0-52.2-16.2-72-36
			l-88-88C-141.9,307.3-141.9,291.1-122.1,291.1z"/>
		<path fill="#3DA5C9" d="M591.3,333.5H409.6c-11.3,0-29.7-9.2-41-20.5l0,0c-11.3-11.3-11.3-20.5,0-20.5h181.7
			c11.3,0,29.7,9.2,41,20.5l0,0C602.6,324.3,602.6,333.5,591.3,333.5z"/>
		<path fill="#3299C6" d="M41.7,294.5H109c7,0,7-5.7,0-12.7h0c-7-7-18.4-12.7-25.3-12.7H16.4c-7,0-7,5.7,0,12.7h0
			C23.4,288.8,34.8,294.5,41.7,294.5z"/>
		<path fill="#3DA5C9" d="M658.7,298.3H650c-3.2,0-8.4-2.6-11.6-5.8l0,0c-3.2-3.2-3.2-5.8,0-5.8h8.7c3.2,0,8.4,2.6,11.6,5.8l0,0
			C661.9,295.7,661.9,298.3,658.7,298.3z"/>
		<g>
			<g>
				<g>
					<g>
						<path fill="#E6FCFF" d="M409.1,110.2h251.1c5.3,0,9.7-4.4,9.7-9.7v0c0-5.3-4.4-9.7-9.7-9.7H409.1c-5.3,0-9.7,4.4-9.7,9.7v0
							C399.4,105.8,403.8,110.2,409.1,110.2z"/>
						<path fill="#E6FCFF" d="M498.1,100.5h139.1c5.3,0,9.7-4.4,9.7-9.7v-7.3c0-5.3-4.4-9.7-9.7-9.7H498.1c-5.3,0-9.7,4.4-9.7,9.7
							v7.3C488.4,96.1,492.8,100.5,498.1,100.5z"/>
						<path fill="#E6FCFF" d="M450.6,119.9h139.1c5.3,0,9.7-4.4,9.7-9.7v0c0-5.3-4.4-9.7-9.7-9.7H450.6c-5.3,0-9.7,4.4-9.7,9.7v0
							C440.9,115.5,445.3,119.9,450.6,119.9z"/>
					</g>
					<g>
						<path fill="#FFFFFF" d="M499.1,106.7h137.3c5.3,0,9.7-4.4,9.7-9.7V82.8c0-5.3-4.4-9.7-9.7-9.7H499.1c-5.3,0-9.7,4.4-9.7,9.7
							v14.1C489.4,102.3,493.8,106.7,499.1,106.7z"/>
						<path fill="#E6FCFF" d="M424.3,110.2h235.9c5.3,0,9.7-4.4,9.7-9.7v0c0-5.3-4.4-9.7-9.7-9.7H424.3c-5.3,0-9.7,4.4-9.7,9.7v0
							C414.6,105.8,419,110.2,424.3,110.2z"/>
						<path fill="#E6FCFF" d="M483.5,102.1h131.3c5.3,0,9.7-4.4,9.7-9.7V87c0-5.3-4.4-9.7-9.7-9.7H483.5c-5.3,0-9.7,4.4-9.7,9.7v5.4
							C473.7,97.8,478.1,102.1,483.5,102.1z"/>
						<path fill="#E6FCFF" d="M450.6,119.9h139.1c5.3,0,9.7-4.4,9.7-9.7v0c0-5.3-4.4-9.7-9.7-9.7H450.6c-5.3,0-9.7,4.4-9.7,9.7v0
							C440.9,115.5,445.3,119.9,450.6,119.9z"/>
					</g>
				</g>
				<path fill="#FFFFFF" d="M596.3,106.7h65.4c4.4,0,8-3.6,8-8v0c0-4.4-3.6-8-8-8h-65.4c-4.4,0-8,3.6-8,8v0
					C588.3,103.1,591.9,106.7,596.3,106.7z"/>
				<path fill="#E6FCFF" d="M579.4,90.7h51.2c6.5,0,11.7,5.3,11.7,11.7v0c0,6.5-5.3,11.7-11.7,11.7h-51.2c-6.5,0-11.8-5.3-11.8-11.7
					v0C567.7,96,573,90.7,579.4,90.7z"/>
			</g>
			<path fill="#32BCBF" d="M988.2,630.1H432.1c-19.8,0-52.2-16.2-72-36L188.4,422.4c-19.8-19.8-19.8-36,0-36h556.1
				c19.8,0,52.2,16.2,72,36l171.7,171.7C1008,613.9,1008,630.1,988.2,630.1z"/>
			<path fill="#32BCBF" d="M1455.6,641.4H899.5c-19.8,0-52.2-16.2-72-36L655.8,433.7c-19.8-19.8-19.8-36,0-36h556.1
				c19.8,0,52.2,16.2,72,36l171.7,171.7C1475.4,625.2,1475.4,641.4,1455.6,641.4z"/>
			<path fill="#32BCBF" d="M1055.8,578.1h-187c-19.8,0-52.2-16.2-72-36L625.1,370.4c-19.8-19.8-19.8-36,0-36h187
				c19.8,0,52.2,16.2,72,36l171.7,171.7C1075.6,561.9,1075.6,578.1,1055.8,578.1z"/>
			<path fill="#32BCBF" d="M654.8,631.2H98.7c-19.8,0-52.2-16.2-72-36L-145,423.5c-19.8-19.8-19.8-36,0-36h556.1
				c19.8,0,52.2,16.2,72,36l171.7,171.7C674.6,615,674.6,631.2,654.8,631.2z"/>
			<path fill="#32BCBF" d="M240.1,631.2H-316c-19.8,0-52.2-16.2-72-36l-171.7-171.7c-19.8-19.8-19.8-36,0-36H-3.6
				c19.8,0,52.2,16.2,72,36l171.7,171.7C259.9,615,259.9,631.2,240.1,631.2z"/>
			<path fill="#32BCBF" d="M814,439.4H647.8c-19.8,0-52.2-16.2-72-36l-11.6-11.6c-19.8-19.8-19.8-36,0-36h166.1
				c19.8,0,52.2,16.2,72,36l11.6,11.6C833.8,423.2,833.8,439.4,814,439.4z"/>
			<path fill="#32BCBF" d="M771,453.3H604.9c-19.8,0-52.2-16.2-72-36l-11.6-11.6c-19.8-19.8-19.8-36,0-36h166.1
				c19.8,0,52.2,16.2,72,36l11.6,11.6C790.8,437.1,790.8,453.3,771,453.3z"/>
			<path fill="#32BCBF" d="M329.6,455.6H163.5c-19.8,0-52.2-16.2-72-36L79.9,408c-19.8-19.8-19.8-36,0-36H246
				c19.8,0,52.2,16.2,72,36l11.6,11.6C349.4,439.4,349.4,455.6,329.6,455.6z"/>
			<path fill="#32BCBF" d="M120.3,447.1H-45.8c-19.8,0-52.2-16.2-72-36l-11.6-11.6c-19.8-19.8-19.8-36,0-36H36.7
				c19.8,0,52.2,16.2,72,36l11.6,11.6C140.1,430.9,140.1,447.1,120.3,447.1z"/>
			<path fill="#32BCBF" d="M-19.4,413.8h-166.1c-19.8,0-52.2-16.2-72-36l-11.6-11.6c-19.8-19.8-19.8-36,0-36H-103
				c19.8,0,52.2,16.2,72,36l11.6,11.6C0.4,397.6,0.4,413.8-19.4,413.8z"/>
			<path fill="#32BCBF" d="M469.3,438.9H303.2c-19.8,0-52.2-16.2-72-36l-11.6-11.6c-19.8-19.8-19.8-36,0-36h166.1
				c19.8,0,52.2,16.2,72,36l11.6,11.6C489.1,422.7,489.1,438.9,469.3,438.9z"/>
			<path fill="#32BCBF" d="M1096.5,528.5H943.1c-19.8,0-52.2-16.2-72-36L774,395.3c-19.8-19.8-19.8-36,0-36h153.4
				c19.8,0,52.2,16.2,72,36l97.2,97.2C1116.3,512.3,1116.3,528.5,1096.5,528.5z"/>
			<path fill="#32BCBF" d="M1304.6,570.2h-153.4c-19.8,0-52.2-16.2-72-36L982,437c-19.8-19.8-19.8-36,0-36h153.4
				c19.8,0,52.2,16.2,72,36l97.2,97.2C1324.4,554,1324.4,570.2,1304.6,570.2z"/>
			<path fill="#4CCCCC" d="M475,407.4h-26.8c-7.7,0-20.2-6.3-27.9-13.9l0,0c-7.7-7.7-7.7-13.9,0-13.9h26.8c7.7,0,20.2,6.3,27.9,13.9
				l0,0C482.7,401.1,482.7,407.4,475,407.4z"/>
			<path fill="#4CCCCC" d="M420.6,393.4h-26.8c-7.7,0-20.2-6.3-27.9-13.9l0,0c-7.7-7.7-7.7-13.9,0-13.9h26.8
				c7.7,0,20.2,6.3,27.9,13.9l0,0C428.3,387.2,428.3,393.4,420.6,393.4z"/>
			<path fill="#4CCCCC" d="M412,519.6h138.3c19.8,0,19.8-16.2,0-36l-61.1-61.1c-19.8-19.8-52.2-36-72-36H278.9
				c-19.8,0-19.8,16.2,0,36l61.1,61.1C359.8,503.4,392.2,519.6,412,519.6z"/>
			<path fill="#4CCCCC" d="M63.4,507.5h138.3c19.8,0,19.8-16.2,0-36l-61.1-61.1c-19.8-19.8-52.2-36-72-36H-69.7
				c-19.8,0-19.8,16.2,0,36l61.1,61.1C11.2,491.3,43.6,507.5,63.4,507.5z"/>
			<path fill="#4CCCCC" d="M261.4,530.8h138.3c19.8,0,19.8-16.2,0-36l-61.1-61.1c-19.8-19.8-52.2-36-72-36H128.3
				c-19.8,0-19.8,16.2,0,36l61.1,61.1C209.2,514.6,241.6,530.8,261.4,530.8z"/>
			<path fill="#4CCCCC" d="M948,502.8h138.3c19.8,0,19.8-16.2,0-36l-61.1-61.1c-19.8-19.8-52.2-36-72-36H814.9
				c-19.8,0-19.8,16.2,0,36l61.1,61.1C895.8,486.6,928.2,502.8,948,502.8z"/>
			<path fill="#4CCCCC" d="M809,467.6h138.3c19.8,0,19.8-16.2,0-36l-61.1-61.1c-19.8-19.8-52.2-36-72-36H675.9
				c-19.8,0-19.8,16.2,0,36l61.1,61.1C756.8,451.4,789.2,467.6,809,467.6z"/>
			<path fill="#4CCCCC" d="M676.3,517.7h138.3c19.8,0,19.8-16.2,0-36l-61.1-61.1c-19.8-19.8-52.2-36-72-36H543.1
				c-19.8,0-19.8,16.2,0,36l61.1,61.1C624.1,501.5,656.5,517.7,676.3,517.7z"/>
			<path fill="#4CCCCC" d="M569.5,536.6h138.3c19.8,0,19.8-16.2,0-36l-61.1-61.1c-19.8-19.8-52.2-36-72-36H436.4
				c-19.8,0-19.8,16.2,0,36l61.1,61.1C517.3,520.4,549.7,536.6,569.5,536.6z"/>
		</g>
		<path fill="#7769B2" d="M833.8,112.6c0,0-0.7-5.5,0-8.1c0.7-2.6,7.6-2.8,7.4-2.3c-0.2,0.6-4,0.6-5.1,2.4
			C834.9,106.4,835.3,111.8,833.8,112.6z"/>
		<path fill="#7769B2" d="M818.5,107.9c1.6,0.4,3.5-2.7,5.2-2.6c1.7,0.1,2.5,0.8,2.5,0.8s-2.3-0.8-2.8-0.2c-0.6,0.6-2.3,1.7-2,2.3
			c0.3,0.6,3.2,0,3.2,0s-1.9,1.2-3,1.2s-2-0.2-3.3,1.9c-1.4,2.1,1.1,1.9,1.1,1.9s-3.5,1.1-3-0.8c0.5-2,1.2-4-0.3-4.5
			C816.1,107.9,817.2,107.6,818.5,107.9z"/>
		<path fill="#7769B2" d="M831.4,118.9c0.6,0.2,1-1,1.6-1.1l7.2-0.7c0,0-3.1,1.3-6.7,2.8c-0.6,0.3-0.4,1.3,3.2,2.2
			c0.7,0.2-6.3-0.9-7-0.6c-3,1.2-5.5,2.3-5.8,2.4c-0.5,0.2,1.6-2.3,3.3-3.4c1-0.6,1.9,0.1,1.9-1.1l-0.1-1.4L831.4,118.9z"/>
		<path fill="#7769B2" d="M849.1,120c0,0,2.8,0.7,4.6,0s0.9-1.5,0.9-1.5s1.2,0.7,1.8,0.9c0.6,0.2,1.5,0.8,2.4,0.2
			c0.9-0.5,1.1-1.1,1.1-1.1s1,1.9-0.6,2.3c-1.6,0.4-2.6,0.7-2.6,0.7s0.4,0.9,0.8,0.9c0.4-0.1-1.8,0-2.2-0.5
			C854.9,121.3,851.3,122.8,849.1,120z"/>
	</g>
</g>
</svg>
