<?xml version="1.0" encoding="utf-8"?>
<!-- Generator: Adobe Illustrator 18.0.0, SVG Export Plug-In . SVG Version: 6.00 Build 0)  -->
<!DOCTYPE svg PUBLIC "-//W3C//DTD SVG 1.1//EN" "http://www.w3.org/Graphics/SVG/1.1/DTD/svg11.dtd">
<svg version="1.1" id="Layer_1" xmlns="http://www.w3.org/2000/svg" xmlns:xlink="http://www.w3.org/1999/xlink" x="0px" y="0px"
	 viewBox="0 0 2399.1 752.2" enable-background="new 0 0 2399.1 752.2" xml:space="preserve">
<rect x="0" y="0" fill="#C5EFF7" width="2399.1" height="752.2"/>
<g>
	<g>
		<path fill="#FFFFFF" d="M669.1,379.9c0,0,5.6-16.7,16.2-19.4c10.5-2.8,8.4-2,7.2,1s-4.2,11.9-5.9,17.1c-1.7,5.2-5.2,5-7.3,11.6
			c-2.1,6.5-0.4,5.2-0.4,5.2l-9.9,1.8l-2.4-13.9L669.1,379.9z"/>
		<path fill="#FFFFFF" d="M641.9,351.1c0,0,6.9,1.3,14.3,8.3c7.4,7,11.6,10.2,12.3,14.3c0.7,4.1,1.2,19.7,2.8,20.8s2.3-1,7.7,0.8
			c5.4,1.9,8.8,2.2,10.2,3.3c1.4,1.1,3.9,2.3,3.3,4c-0.6,1.7-1.4,1.9-1.4,1.9s-1-1.9-2.8-1c-1.7,1-5.5,5.4-17.5,5.1
			s-15-6.7-20.3-5.5s-11.3,1.6-13.9-5.2c0,0,8.2,4.5,18.5,2.2c0,0-8.9-5.3-6.5-21.4S641.9,351.1,641.9,351.1z"/>
	</g>
	<g>
		<path fill="#FFFFFF" d="M1378.2,379.9c0,0,5.6-16.7,16.2-19.4c10.5-2.8,8.4-2,7.2,1s-4.2,11.9-5.9,17.1c-1.7,5.2-5.2,5-7.3,11.6
			c-2.1,6.5-0.4,5.2-0.4,5.2l-9.9,1.8l-2.4-13.9L1378.2,379.9z"/>
		<path fill="#FFFFFF" d="M1351,351.1c0,0,6.9,1.3,14.3,8.3c7.4,7,11.6,10.2,12.3,14.3s1.2,19.7,2.8,20.8c1.5,1.1,2.3-1,7.7,0.8
			c5.4,1.9,8.8,2.2,10.2,3.3c1.4,1.1,3.9,2.3,3.3,4c-0.6,1.7-1.4,1.9-1.4,1.9s-1-1.9-2.8-1c-1.7,1-5.5,5.4-17.5,5.1
			s-15-6.7-20.3-5.5s-11.3,1.6-13.9-5.2c0,0,8.2,4.5,18.5,2.2c0,0-8.9-5.3-6.5-21.4C1360.2,362.7,1351,351.1,1351,351.1z"/>
	</g>
	<g>
		<path fill="#FFFFFF" d="M822.9,355.3c0,0,0,18.5,6.3,22.7c6.3,4.2,7.9,4.7,9.6,10.6s1.1,1.9,6.6,1.9c5.5,0,8.3-0.4,12.4,1.3
			c4.1,1.7,9.9,3.4,9.9,3.4s5.4,3.6,3,5.6c-0.3,0.3-1.2,0.4-2.3,0.5c-0.9,0.1,0.7-1.5-0.5-1.5c-2.5,0-7.7,1.7-8.7,2.1
			c-5.8,2.1-10.1,3.7-20.7,1.7c-10.6-2.1-14.9,0.3-20.7-1.4s-6.6-8.3-6.6-8.3s2.6,4.4,10.5,3.3c0,0-14.2-5.5-12.1-17.3
			C811.8,368.1,813.7,363.2,822.9,355.3z"/>
		<path fill="#FFFFFF" d="M863.2,393.8c0,0,5.5,1.2,7.4-5.7c1.9-6.9,7.3-20,3-24.3c-4.3-4.3-15.9,26.5-22.9,26.7
			C843.8,390.7,863.2,393.8,863.2,393.8z"/>
	</g>
	<g>
		<path fill="#FFFFFF" d="M1532,355.3c0,0,0,18.5,6.3,22.7c6.3,4.2,7.9,4.7,9.6,10.6s1.1,1.9,6.6,1.9s8.3-0.4,12.4,1.3
			c4.1,1.7,9.9,3.4,9.9,3.4s5.4,3.6,3,5.6c-0.3,0.3-1.2,0.4-2.3,0.5c-0.9,0.1,0.7-1.5-0.5-1.5c-2.5,0-7.7,1.7-8.7,2.1
			c-5.8,2.1-10.1,3.7-20.7,1.7c-10.6-2.1-14.9,0.3-20.7-1.4s-6.6-8.3-6.6-8.3s2.6,4.4,10.5,3.3c0,0-14.2-5.5-12.1-17.3
			C1520.9,368.1,1522.8,363.2,1532,355.3z"/>
		<path fill="#FFFFFF" d="M1572.3,393.8c0,0,5.5,1.2,7.4-5.7s7.3-20,3-24.3c-4.3-4.3-15.9,26.5-22.9,26.7
			C1552.9,390.7,1572.3,393.8,1572.3,393.8z"/>
	</g>
	<g>
		<path fill="#FFFFFF" d="M986.1,363.6c0,0,12.7,3.3,23.8-0.7c11.2-4,19.8-4.8,25.8-2.3c5.9,2.5,8,2.8,7.3,5s-1.2,2.5-1.2,2.5
			s-0.6-2.8-5,0c-4.3,2.8-5.5,3.2-5.5,3.2s4.1,8.4,6.2,10.2c2.1,1.8,1.4,7.4,4.1,10.2c2.8,2.8,7,5.1,9.4,3.4s1.9-3.4,1.9-3.4
			s1.1,4-1,5c-2.1,1-9.6,3.4-12.5,1.5c-3-1.9-8.5-0.7-12.8-6.5c-4.3-5.8-6.9-7.2-6.9-7.2s-0.2,6.7-5.3,11.4
			c-5.1,4.8-5.1,4.8-5.1,4.8s-11.2-1.6-13.8,0c0,0-3-1.4-3.6-3.8s0.7-2.8,0.7-2.8s1,2.4,4.3,1.7c3.2-0.8,5.2-3.7,4.4-7.7
			c-0.8-4.1,1.1-13.8,1.1-13.8s-1-5.4-8.3-4.1C986.8,371.3,986.1,363.6,986.1,363.6z"/>
	</g>
	<g>
		<path fill="#FFFFFF" d="M1695.2,363.6c0,0,12.7,3.3,23.8-0.7c11.2-4,19.8-4.8,25.8-2.3c5.9,2.5,8,2.8,7.3,5s-1.2,2.5-1.2,2.5
			s-0.6-2.8-5,0c-4.3,2.8-5.5,3.2-5.5,3.2s4.1,8.4,6.2,10.2c2.1,1.8,1.4,7.4,4.1,10.2c2.8,2.8,7,5.1,9.4,3.4s1.9-3.4,1.9-3.4
			s1.1,4-1,5c-2.1,1-9.6,3.4-12.5,1.5c-3-1.9-8.5-0.7-12.8-6.5c-4.3-5.8-6.9-7.2-6.9-7.2s-0.2,6.7-5.3,11.4
			c-5.1,4.8-5.1,4.8-5.1,4.8s-11.2-1.6-13.8,0c0,0-3-1.4-3.6-3.8c-0.6-2.4,0.7-2.8,0.7-2.8s1,2.4,4.3,1.7c3.2-0.8,5.2-3.7,4.4-7.7
			s1.1-13.8,1.1-13.8s-1-5.4-8.3-4.1C1695.9,371.3,1695.2,363.6,1695.2,363.6z"/>
	</g>
	<g>
		<path fill="#FFFFFF" d="M1181,377.7c0,0,1.3-10.1,10.9-13.1c9.6-3,16.5-4.1,18.5-3.3c1.9,0.8-2.5,7.4-3.2,11c0,0,7.2-3.9,10.5-3.9
			c3.2,0.1,4.3,0.7,4.5,1.9c0.3,1.2-4.1,7.8-4.4,8.8c-0.3,1,3,0.8,4.4,1.5c1.4,0.7,1,2.1,1,2.1s1.7-0.6,1.8,0.8c0.1,1.4-1,2.8-1,2.8
			s0.2-1.3-1.2-1c-1.4,0.3-5.9,0.9-5.9,1.7c0,0.8-0.7,1.7-0.3,6.2c0.4,4.5-0.8,5.4-4.7,3.2c-3.9-2.2-5.9-3.4-5.9-5.5
			c0,0-6.1-1.5-7.6-1.5c-1.5,0-0.3,6.1-0.6,8.2c-0.3,2.1-7.9,1.4-11.3-4.6s-4.5-6.1-4.5-6.1s-5.6,2.2-6.3,1.8
			c-0.7-0.4-7.3-5.3-6.8-6.6c0.6-1.3,7.8,1.7,10.6,1C1182.3,382.4,1181,377.7,1181,377.7z"/>
	</g>
</g>
<g>
	<g>
		<path fill="#FFFFFF" d="M415.5,486.2c0,0,5.6-16.7,16.2-19.4c10.5-2.8,8.4-2,7.2,1c-1.1,3-4.2,11.9-5.9,17.1
			c-1.7,5.2-5.2,5-7.3,11.6s-0.4,5.2-0.4,5.2l-9.9,1.8l-2.4-13.9L415.5,486.2z"/>
		<path fill="#FFFFFF" d="M388.2,457.4c0,0,6.9,1.3,14.3,8.3c7.4,7,11.6,10.2,12.3,14.3c0.7,4.1,1.2,19.7,2.8,20.8
			c1.5,1.1,2.3-1,7.7,0.8c5.4,1.9,8.8,2.2,10.2,3.3c1.4,1.1,3.9,2.3,3.3,4c-0.6,1.7-1.4,1.9-1.4,1.9s-1-1.9-2.8-1
			c-1.7,1-5.5,5.4-17.5,5.1s-15-6.7-20.3-5.5c-5.3,1.2-11.3,1.6-13.9-5.2c0,0,8.2,4.5,18.5,2.2c0,0-8.9-5.3-6.5-21.4
			C397.4,469,388.2,457.4,388.2,457.4z"/>
	</g>
	<g>
		<path fill="#FFFFFF" d="M1124.6,486.2c0,0,5.6-16.7,16.2-19.4c10.5-2.8,8.4-2,7.2,1c-1.1,3-4.2,11.9-5.9,17.1
			c-1.7,5.2-5.2,5-7.3,11.6c-2.1,6.5-0.4,5.2-0.4,5.2l-9.9,1.8l-2.4-13.9L1124.6,486.2z"/>
		<path fill="#FFFFFF" d="M1097.3,457.4c0,0,6.9,1.3,14.3,8.3c7.4,7,11.6,10.2,12.3,14.3c0.7,4.1,1.2,19.7,2.8,20.8
			c1.5,1.1,2.3-1,7.7,0.8c5.4,1.9,8.8,2.2,10.2,3.3c1.4,1.1,3.9,2.3,3.3,4c-0.6,1.7-1.4,1.9-1.4,1.9s-1-1.9-2.8-1
			c-1.7,1-5.5,5.4-17.5,5.1s-15-6.7-20.3-5.5c-5.3,1.2-11.3,1.6-13.9-5.2c0,0,8.2,4.5,18.5,2.2c0,0-8.9-5.3-6.5-21.4
			C1106.5,469,1097.3,457.4,1097.3,457.4z"/>
	</g>
	<g>
		<path fill="#FFFFFF" d="M569.3,461.6c0,0,0,18.5,6.3,22.7c6.3,4.2,7.9,4.7,9.6,10.6c1.8,5.9,1.1,1.9,6.6,1.9
			c5.5,0,8.3-0.4,12.4,1.3s9.9,3.4,9.9,3.4s5.4,3.6,3,5.6c-0.3,0.3-1.2,0.4-2.3,0.5c-0.9,0.1,0.7-1.5-0.5-1.5
			c-2.5,0-7.7,1.7-8.7,2.1c-5.8,2.1-10.1,3.7-20.7,1.7c-10.6-2.1-14.9,0.3-20.7-1.4c-5.8-1.7-6.6-8.3-6.6-8.3s2.6,4.4,10.5,3.3
			c0,0-14.2-5.5-12.1-17.3C558.1,474.4,560,469.4,569.3,461.6z"/>
		<path fill="#FFFFFF" d="M609.5,500.1c0,0,5.5,1.2,7.4-5.7c1.9-6.9,7.3-20,3-24.3s-15.9,26.5-22.9,26.7
			C590.1,497,609.5,500.1,609.5,500.1z"/>
	</g>
	<g>
		<path fill="#FFFFFF" d="M1278.4,461.6c0,0,0,18.5,6.3,22.7c6.3,4.2,7.9,4.7,9.6,10.6c1.8,5.9,1.1,1.9,6.6,1.9s8.3-0.4,12.4,1.3
			s9.9,3.4,9.9,3.4s5.4,3.6,3,5.6c-0.3,0.3-1.2,0.4-2.3,0.5c-0.9,0.1,0.7-1.5-0.5-1.5c-2.5,0-7.7,1.7-8.7,2.1
			c-5.8,2.1-10.1,3.7-20.7,1.7c-10.6-2.1-14.9,0.3-20.7-1.4s-6.6-8.3-6.6-8.3s2.6,4.4,10.5,3.3c0,0-14.2-5.5-12.1-17.3
			C1267.2,474.4,1269.1,469.4,1278.4,461.6z"/>
		<path fill="#FFFFFF" d="M1318.6,500.1c0,0,5.5,1.2,7.4-5.7s7.3-20,3-24.3s-15.9,26.5-22.9,26.7S1318.6,500.1,1318.6,500.1z"/>
	</g>
	<g>
		<path fill="#FFFFFF" d="M732.4,469.9c0,0,12.7,3.3,23.8-0.7c11.2-4,19.8-4.8,25.8-2.3c5.9,2.5,8,2.8,7.3,5
			c-0.7,2.1-1.2,2.5-1.2,2.5s-0.6-2.8-5,0c-4.3,2.8-5.5,3.2-5.5,3.2s4.1,8.4,6.2,10.2s1.4,7.4,4.1,10.2c2.8,2.8,7,5.1,9.4,3.4
			c2.3-1.7,1.9-3.4,1.9-3.4s1.1,4-1,5c-2.1,1-9.6,3.4-12.5,1.5s-8.5-0.7-12.8-6.5c-4.3-5.8-6.9-7.2-6.9-7.2s-0.2,6.7-5.3,11.4
			s-5.1,4.8-5.1,4.8s-11.2-1.6-13.8,0c0,0-3-1.4-3.6-3.8c-0.6-2.4,0.7-2.8,0.7-2.8s1,2.4,4.3,1.7s5.2-3.7,4.4-7.7
			c-0.8-4.1,1.1-13.8,1.1-13.8s-1-5.4-8.3-4.1S732.4,469.9,732.4,469.9z"/>
	</g>
	<g>
		<path fill="#FFFFFF" d="M1441.5,469.9c0,0,12.7,3.3,23.8-0.7c11.2-4,19.8-4.8,25.8-2.3c5.9,2.5,8,2.8,7.3,5
			c-0.7,2.1-1.2,2.5-1.2,2.5s-0.6-2.8-5,0c-4.3,2.8-5.5,3.2-5.5,3.2s4.1,8.4,6.2,10.2c2.1,1.8,1.4,7.4,4.1,10.2
			c2.8,2.8,7,5.1,9.4,3.4c2.3-1.7,1.9-3.4,1.9-3.4s1.1,4-1,5c-2.1,1-9.6,3.4-12.5,1.5c-3-1.9-8.5-0.7-12.8-6.5
			c-4.3-5.8-6.9-7.2-6.9-7.2s-0.2,6.7-5.3,11.4c-5.1,4.8-5.1,4.8-5.1,4.8s-11.2-1.6-13.8,0c0,0-3-1.4-3.6-3.8
			c-0.6-2.4,0.7-2.8,0.7-2.8s1,2.4,4.3,1.7s5.2-3.7,4.4-7.7c-0.8-4.1,1.1-13.8,1.1-13.8s-1-5.4-8.3-4.1
			C1442.3,477.6,1441.5,469.9,1441.5,469.9z"/>
	</g>
	<g>
		<path fill="#FFFFFF" d="M927.4,484c0,0,1.3-10.1,10.9-13.1s16.5-4.1,18.5-3.3c1.9,0.8-2.5,7.4-3.2,11c0,0,7.2-3.9,10.5-3.9
			c3.2,0.1,4.3,0.7,4.5,1.9c0.3,1.2-4.1,7.8-4.4,8.8s3,0.8,4.4,1.5c1.4,0.7,1,2.1,1,2.1s1.7-0.6,1.8,0.8s-1,2.8-1,2.8s0.2-1.3-1.2-1
			c-1.4,0.3-5.9,0.9-5.9,1.7s-0.7,1.7-0.3,6.2c0.4,4.5-0.8,5.4-4.7,3.2c-3.9-2.2-5.9-3.4-5.9-5.5c0,0-6.1-1.5-7.6-1.5
			s-0.3,6.1-0.6,8.2c-0.3,2.1-7.9,1.4-11.3-4.6c-3.4-6-4.5-6.1-4.5-6.1s-5.6,2.2-6.3,1.8s-7.3-5.3-6.8-6.6c0.6-1.3,7.8,1.7,10.6,1
			S927.4,484,927.4,484z"/>
	</g>
	<g>
		<path fill="#FFFFFF" d="M1822.5,486.2c0,0,5.6-16.7,16.2-19.4c10.5-2.8,8.4-2,7.2,1s-4.2,11.9-5.9,17.1c-1.7,5.2-5.2,5-7.3,11.6
			s-0.4,5.2-0.4,5.2l-9.9,1.8l-2.4-13.9L1822.5,486.2z"/>
		<path fill="#FFFFFF" d="M1795.2,457.4c0,0,6.9,1.3,14.3,8.3c7.4,7,11.6,10.2,12.3,14.3c0.7,4.1,1.2,19.7,2.8,20.8
			c1.5,1.1,2.3-1,7.7,0.8c5.4,1.9,8.8,2.2,10.2,3.3c1.4,1.1,3.9,2.3,3.3,4c-0.6,1.7-1.4,1.9-1.4,1.9s-1-1.9-2.8-1
			c-1.7,1-5.5,5.4-17.5,5.1s-15-6.7-20.3-5.5c-5.3,1.2-11.3,1.6-13.9-5.2c0,0,8.2,4.5,18.5,2.2c0,0-8.9-5.3-6.5-21.4
			C1804.4,469,1795.2,457.4,1795.2,457.4z"/>
	</g>
	<g>
		<path fill="#FFFFFF" d="M1976.3,461.6c0,0,0,18.5,6.3,22.7c6.3,4.2,7.9,4.7,9.6,10.6c1.8,5.9,1.1,1.9,6.6,1.9s8.3-0.4,12.4,1.3
			s9.9,3.4,9.9,3.4s5.4,3.6,3,5.6c-0.3,0.3-1.2,0.4-2.3,0.5c-0.9,0.1,0.7-1.5-0.5-1.5c-2.5,0-7.7,1.7-8.7,2.1
			c-5.8,2.1-10.1,3.7-20.7,1.7c-10.6-2.1-14.9,0.3-20.7-1.4s-6.6-8.3-6.6-8.3s2.6,4.4,10.5,3.3c0,0-14.2-5.5-12.1-17.3
			C1965.1,474.4,1967,469.4,1976.3,461.6z"/>
		<path fill="#FFFFFF" d="M2016.5,500.1c0,0,5.5,1.2,7.4-5.7s7.3-20,3-24.3s-15.9,26.5-22.9,26.7S2016.5,500.1,2016.5,500.1z"/>
	</g>
	<g>
		<path fill="#FFFFFF" d="M1625.3,484c0,0,1.3-10.1,10.9-13.1c9.6-3,16.5-4.1,18.5-3.3c1.9,0.8-2.5,7.4-3.2,11c0,0,7.2-3.9,10.5-3.9
			c3.2,0.1,4.3,0.7,4.5,1.9c0.3,1.2-4.1,7.8-4.4,8.8c-0.3,1,3,0.8,4.4,1.5c1.4,0.7,1,2.1,1,2.1s1.7-0.6,1.8,0.8c0.1,1.4-1,2.8-1,2.8
			s0.2-1.3-1.2-1s-5.9,0.9-5.9,1.7s-0.7,1.7-0.3,6.2c0.4,4.5-0.8,5.4-4.7,3.2c-3.9-2.2-5.9-3.4-5.9-5.5c0,0-6.1-1.5-7.6-1.5
			c-1.5,0-0.3,6.1-0.6,8.2c-0.3,2.1-7.9,1.4-11.3-4.6s-4.5-6.1-4.5-6.1s-5.6,2.2-6.3,1.8s-7.3-5.3-6.8-6.6s7.8,1.7,10.6,1
			C1626.6,488.6,1625.3,484,1625.3,484z"/>
	</g>
</g>
<g>
	<g>
		<path fill="#FFFFFF" d="M669.1,592.2c0,0,5.6-16.7,16.2-19.4c10.5-2.8,8.4-2,7.2,1s-4.2,11.9-5.9,17.1c-1.7,5.2-5.2,5-7.3,11.6
			c-2.1,6.5-0.4,5.2-0.4,5.2l-9.9,1.8l-2.4-13.9L669.1,592.2z"/>
		<path fill="#FFFFFF" d="M641.9,563.4c0,0,6.9,1.3,14.3,8.3s11.6,10.2,12.3,14.3c0.7,4.1,1.2,19.7,2.8,20.8c1.5,1.1,2.3-1,7.7,0.8
			s8.8,2.2,10.2,3.3c1.4,1.1,3.9,2.3,3.3,4c-0.6,1.7-1.4,1.9-1.4,1.9s-1-1.9-2.8-1c-1.7,1-5.5,5.4-17.5,5.1s-15-6.7-20.3-5.5
			s-11.3,1.6-13.9-5.2c0,0,8.2,4.5,18.5,2.2c0,0-8.9-5.3-6.5-21.4C651.1,575.1,641.9,563.4,641.9,563.4z"/>
	</g>
	<g>
		<path fill="#FFFFFF" d="M1378.2,592.2c0,0,5.6-16.7,16.2-19.4c10.5-2.8,8.4-2,7.2,1s-4.2,11.9-5.9,17.1s-5.2,5-7.3,11.6
			c-2.1,6.5-0.4,5.2-0.4,5.2l-9.9,1.8l-2.4-13.9L1378.2,592.2z"/>
		<path fill="#FFFFFF" d="M1351,563.4c0,0,6.9,1.3,14.3,8.3c7.4,7,11.6,10.2,12.3,14.3s1.2,19.7,2.8,20.8c1.5,1.1,2.3-1,7.7,0.8
			s8.8,2.2,10.2,3.3c1.4,1.1,3.9,2.3,3.3,4c-0.6,1.7-1.4,1.9-1.4,1.9s-1-1.9-2.8-1c-1.7,1-5.5,5.4-17.5,5.1s-15-6.7-20.3-5.5
			s-11.3,1.6-13.9-5.2c0,0,8.2,4.5,18.5,2.2c0,0-8.9-5.3-6.5-21.4C1360.2,575.1,1351,563.4,1351,563.4z"/>
	</g>
	<g>
		<path fill="#FFFFFF" d="M822.9,567.6c0,0,0,18.5,6.3,22.7c6.3,4.2,7.9,4.7,9.6,10.6s1.1,1.9,6.6,1.9c5.5,0,8.3-0.4,12.4,1.3
			c4.1,1.7,9.9,3.4,9.9,3.4s5.4,3.6,3,5.6c-0.3,0.3-1.2,0.4-2.3,0.5c-0.9,0.1,0.7-1.5-0.5-1.5c-2.5,0-7.7,1.7-8.7,2.1
			c-5.8,2.1-10.1,3.7-20.7,1.7c-10.6-2.1-14.9,0.3-20.7-1.4c-5.8-1.7-6.6-8.3-6.6-8.3s2.6,4.4,10.5,3.3c0,0-14.2-5.5-12.1-17.3
			S813.7,575.5,822.9,567.6z"/>
		<path fill="#FFFFFF" d="M863.2,606.1c0,0,5.5,1.2,7.4-5.7c1.9-6.9,7.3-20,3-24.3s-15.9,26.5-22.9,26.7
			C843.8,603,863.2,606.1,863.2,606.1z"/>
	</g>
	<g>
		<path fill="#FFFFFF" d="M1532,567.6c0,0,0,18.5,6.3,22.7c6.3,4.2,7.9,4.7,9.6,10.6s1.1,1.9,6.6,1.9s8.3-0.4,12.4,1.3
			c4.1,1.7,9.9,3.4,9.9,3.4s5.4,3.6,3,5.6c-0.3,0.3-1.2,0.4-2.3,0.5c-0.9,0.1,0.7-1.5-0.5-1.5c-2.5,0-7.7,1.7-8.7,2.1
			c-5.8,2.1-10.1,3.7-20.7,1.7c-10.6-2.1-14.9,0.3-20.7-1.4c-5.8-1.7-6.6-8.3-6.6-8.3s2.6,4.4,10.5,3.3c0,0-14.2-5.5-12.1-17.3
			C1520.9,580.4,1522.8,575.5,1532,567.6z"/>
		<path fill="#FFFFFF" d="M1572.3,606.1c0,0,5.5,1.2,7.4-5.7s7.3-20,3-24.3s-15.9,26.5-22.9,26.7
			C1552.9,603,1572.3,606.1,1572.3,606.1z"/>
	</g>
	<g>
		<path fill="#FFFFFF" d="M986.1,575.9c0,0,12.7,3.3,23.8-0.7c11.2-4,19.8-4.8,25.8-2.3c5.9,2.5,8,2.8,7.3,5s-1.2,2.5-1.2,2.5
			s-0.6-2.8-5,0c-4.3,2.8-5.5,3.2-5.5,3.2s4.1,8.4,6.2,10.2c2.1,1.8,1.4,7.4,4.1,10.2c2.8,2.8,7,5.1,9.4,3.4
			c2.3-1.7,1.9-3.4,1.9-3.4s1.1,4-1,5c-2.1,1-9.6,3.4-12.5,1.5c-3-1.9-8.5-0.7-12.8-6.5c-4.3-5.8-6.9-7.2-6.9-7.2s-0.2,6.7-5.3,11.4
			c-5.1,4.8-5.1,4.8-5.1,4.8s-11.2-1.6-13.8,0c0,0-3-1.4-3.6-3.8s0.7-2.8,0.7-2.8s1,2.4,4.3,1.7c3.2-0.8,5.2-3.7,4.4-7.7
			c-0.8-4.1,1.1-13.8,1.1-13.8s-1-5.4-8.3-4.1C986.8,583.7,986.1,575.9,986.1,575.9z"/>
	</g>
	<g>
		<path fill="#FFFFFF" d="M1695.2,575.9c0,0,12.7,3.3,23.8-0.7c11.2-4,19.8-4.8,25.8-2.3c5.9,2.5,8,2.8,7.3,5s-1.2,2.5-1.2,2.5
			s-0.6-2.8-5,0c-4.3,2.8-5.5,3.2-5.5,3.2s4.1,8.4,6.2,10.2c2.1,1.8,1.4,7.4,4.1,10.2c2.8,2.8,7,5.1,9.4,3.4
			c2.3-1.7,1.9-3.4,1.9-3.4s1.1,4-1,5c-2.1,1-9.6,3.4-12.5,1.5c-3-1.9-8.5-0.7-12.8-6.5c-4.3-5.8-6.9-7.2-6.9-7.2s-0.2,6.7-5.3,11.4
			c-5.1,4.8-5.1,4.8-5.1,4.8s-11.2-1.6-13.8,0c0,0-3-1.4-3.6-3.8c-0.6-2.4,0.7-2.8,0.7-2.8s1,2.4,4.3,1.7c3.2-0.8,5.2-3.7,4.4-7.7
			c-0.8-4.1,1.1-13.8,1.1-13.8s-1-5.4-8.3-4.1C1695.9,583.7,1695.2,575.9,1695.2,575.9z"/>
	</g>
	<g>
		<path fill="#FFFFFF" d="M1181,590.1c0,0,1.3-10.1,10.9-13.1c9.6-3,16.5-4.1,18.5-3.3s-2.5,7.4-3.2,11c0,0,7.2-3.9,10.5-3.9
			s4.3,0.7,4.5,1.9c0.3,1.2-4.1,7.8-4.4,8.8c-0.3,1,3,0.8,4.4,1.5c1.4,0.7,1,2.1,1,2.1s1.7-0.6,1.8,0.8c0.1,1.4-1,2.8-1,2.8
			s0.2-1.3-1.2-1c-1.4,0.3-5.9,0.9-5.9,1.7c0,0.8-0.7,1.7-0.3,6.2c0.4,4.5-0.8,5.4-4.7,3.2c-3.9-2.2-5.9-3.4-5.9-5.5
			c0,0-6.1-1.5-7.6-1.5c-1.5,0-0.3,6.1-0.6,8.2c-0.3,2.1-7.9,1.4-11.3-4.6s-4.5-6.1-4.5-6.1s-5.6,2.2-6.3,1.8
			c-0.7-0.4-7.3-5.3-6.8-6.6c0.6-1.3,7.8,1.7,10.6,1C1182.3,594.7,1181,590.1,1181,590.1z"/>
	</g>
</g>
<g>
	<g>
		<path fill="#FFFFFF" d="M415.5,698.7c0,0,5.6-16.7,16.2-19.4c10.5-2.8,8.4-2,7.2,1c-1.1,3-4.2,11.9-5.9,17.1
			c-1.7,5.2-5.2,5-7.3,11.6s-0.4,5.2-0.4,5.2l-9.9,1.8L413,702L415.5,698.7z"/>
		<path fill="#FFFFFF" d="M388.2,669.9c0,0,6.9,1.3,14.3,8.3c7.4,7,11.6,10.2,12.3,14.3c0.7,4.1,1.2,19.7,2.8,20.8
			c1.5,1.1,2.3-1,7.7,0.8c5.4,1.9,8.8,2.2,10.2,3.3c1.4,1.1,3.9,2.3,3.3,4c-0.6,1.7-1.4,1.9-1.4,1.9s-1-1.9-2.8-1
			c-1.7,1-5.5,5.4-17.5,5.1s-15-6.7-20.3-5.5c-5.3,1.2-11.3,1.6-13.9-5.2c0,0,8.2,4.5,18.5,2.2c0,0-8.9-5.3-6.5-21.4
			C397.4,681.6,388.2,669.9,388.2,669.9z"/>
	</g>
	<g>
		<path fill="#FFFFFF" d="M1124.6,698.7c0,0,5.6-16.7,16.2-19.4s8.4-2,7.2,1c-1.1,3-4.2,11.9-5.9,17.1c-1.7,5.2-5.2,5-7.3,11.6
			c-2.1,6.5-0.4,5.2-0.4,5.2l-9.9,1.8l-2.4-13.9L1124.6,698.7z"/>
		<path fill="#FFFFFF" d="M1097.3,669.9c0,0,6.9,1.3,14.3,8.3c7.4,7,11.6,10.2,12.3,14.3c0.7,4.1,1.2,19.7,2.8,20.8
			c1.5,1.1,2.3-1,7.7,0.8c5.4,1.9,8.8,2.2,10.2,3.3c1.4,1.1,3.9,2.3,3.3,4s-1.4,1.9-1.4,1.9s-1-1.9-2.8-1c-1.7,1-5.5,5.4-17.5,5.1
			s-15-6.7-20.3-5.5s-11.3,1.6-13.9-5.2c0,0,8.2,4.5,18.5,2.2c0,0-8.9-5.3-6.5-21.4C1106.5,681.6,1097.3,669.9,1097.3,669.9z"/>
	</g>
	<g>
		<path fill="#FFFFFF" d="M569.3,674.1c0,0,0,18.5,6.3,22.7c6.3,4.2,7.9,4.7,9.6,10.6c1.8,5.9,1.1,1.9,6.6,1.9
			c5.5,0,8.3-0.4,12.4,1.3s9.9,3.4,9.9,3.4s5.4,3.6,3,5.6c-0.3,0.3-1.2,0.4-2.3,0.5c-0.9,0.1,0.7-1.5-0.5-1.5
			c-2.5,0-7.7,1.7-8.7,2.1c-5.8,2.1-10.1,3.7-20.7,1.7c-10.6-2.1-14.9,0.3-20.7-1.4c-5.8-1.7-6.6-8.3-6.6-8.3s2.6,4.4,10.5,3.3
			c0,0-14.2-5.5-12.1-17.3S560,682,569.3,674.1z"/>
		<path fill="#FFFFFF" d="M609.5,712.6c0,0,5.5,1.2,7.4-5.7c1.9-6.9,7.3-20,3-24.3c-4.3-4.3-15.9,26.5-22.9,26.7
			C590.1,709.6,609.5,712.6,609.5,712.6z"/>
	</g>
	<g>
		<path fill="#FFFFFF" d="M1278.4,674.1c0,0,0,18.5,6.3,22.7c6.3,4.2,7.9,4.7,9.6,10.6c1.8,5.9,1.1,1.9,6.6,1.9s8.3-0.4,12.4,1.3
			s9.9,3.4,9.9,3.4s5.4,3.6,3,5.6c-0.3,0.3-1.2,0.4-2.3,0.5c-0.9,0.1,0.7-1.5-0.5-1.5c-2.5,0-7.7,1.7-8.7,2.1
			c-5.8,2.1-10.1,3.7-20.7,1.7c-10.6-2.1-14.9,0.3-20.7-1.4c-5.8-1.7-6.6-8.3-6.6-8.3s2.6,4.4,10.5,3.3c0,0-14.2-5.5-12.1-17.3
			C1267.2,686.9,1269.1,682,1278.4,674.1z"/>
		<path fill="#FFFFFF" d="M1318.6,712.6c0,0,5.5,1.2,7.4-5.7s7.3-20,3-24.3c-4.3-4.3-15.9,26.5-22.9,26.7S1318.6,712.6,1318.6,712.6
			z"/>
	</g>
	<g>
		<path fill="#FFFFFF" d="M732.4,682.4c0,0,12.7,3.3,23.8-0.7c11.2-4,19.8-4.8,25.8-2.3c5.9,2.5,8,2.8,7.3,5s-1.2,2.5-1.2,2.5
			s-0.6-2.8-5,0c-4.3,2.8-5.5,3.2-5.5,3.2s4.1,8.4,6.2,10.2s1.4,7.4,4.1,10.2c2.8,2.8,7,5.1,9.4,3.4c2.3-1.7,1.9-3.4,1.9-3.4
			s1.1,4-1,5c-2.1,1-9.6,3.4-12.5,1.5c-3-1.9-8.5-0.7-12.8-6.5c-4.3-5.8-6.9-7.2-6.9-7.2s-0.2,6.7-5.3,11.4s-5.1,4.8-5.1,4.8
			s-11.2-1.6-13.8,0c0,0-3-1.4-3.6-3.8c-0.6-2.4,0.7-2.8,0.7-2.8s1,2.4,4.3,1.7c3.2-0.8,5.2-3.7,4.4-7.7c-0.8-4.1,1.1-13.8,1.1-13.8
			s-1-5.4-8.3-4.1S732.4,682.4,732.4,682.4z"/>
	</g>
	<g>
		<path fill="#FFFFFF" d="M1441.5,682.4c0,0,12.7,3.3,23.8-0.7c11.2-4,19.8-4.8,25.8-2.3c5.9,2.5,8,2.8,7.3,5s-1.2,2.5-1.2,2.5
			s-0.6-2.8-5,0c-4.3,2.8-5.5,3.2-5.5,3.2s4.1,8.4,6.2,10.2c2.1,1.8,1.4,7.4,4.1,10.2c2.8,2.8,7,5.1,9.4,3.4
			c2.3-1.7,1.9-3.4,1.9-3.4s1.1,4-1,5c-2.1,1-9.6,3.4-12.5,1.5c-3-1.9-8.5-0.7-12.8-6.5s-6.9-7.2-6.9-7.2s-0.2,6.7-5.3,11.4
			c-5.1,4.8-5.1,4.8-5.1,4.8s-11.2-1.6-13.8,0c0,0-3-1.4-3.6-3.8s0.7-2.8,0.7-2.8s1,2.4,4.3,1.7c3.2-0.8,5.2-3.7,4.4-7.7
			c-0.8-4.1,1.1-13.8,1.1-13.8s-1-5.4-8.3-4.1C1442.3,690.2,1441.5,682.4,1441.5,682.4z"/>
	</g>
	<g>
		<path fill="#FFFFFF" d="M927.4,696.6c0,0,1.3-10.1,10.9-13.1s16.5-4.1,18.5-3.3c1.9,0.8-2.5,7.4-3.2,11c0,0,7.2-3.9,10.5-3.9
			c3.2,0.1,4.3,0.7,4.5,1.9s-4.1,7.8-4.4,8.8c-0.3,1,3,0.8,4.4,1.5c1.4,0.7,1,2.1,1,2.1s1.7-0.6,1.8,0.8s-1,2.8-1,2.8s0.2-1.3-1.2-1
			c-1.4,0.3-5.9,0.9-5.9,1.7c0,0.8-0.7,1.7-0.3,6.2c0.4,4.5-0.8,5.4-4.7,3.2s-5.9-3.4-5.9-5.5c0,0-6.1-1.5-7.6-1.5s-0.3,6.1-0.6,8.2
			c-0.3,2.1-7.9,1.4-11.3-4.6c-3.4-6-4.5-6.1-4.5-6.1s-5.6,2.2-6.3,1.8c-0.7-0.4-7.3-5.3-6.8-6.6c0.6-1.3,7.8,1.7,10.6,1
			C928.7,701.2,927.4,696.6,927.4,696.6z"/>
	</g>
	<g>
		<path fill="#FFFFFF" d="M1822.5,698.7c0,0,5.6-16.7,16.2-19.4s8.4-2,7.2,1c-1.1,3-4.2,11.9-5.9,17.1c-1.7,5.2-5.2,5-7.3,11.6
			s-0.4,5.2-0.4,5.2l-9.9,1.8L1820,702L1822.5,698.7z"/>
		<path fill="#FFFFFF" d="M1795.2,669.9c0,0,6.9,1.3,14.3,8.3c7.4,7,11.6,10.2,12.3,14.3c0.7,4.1,1.2,19.7,2.8,20.8
			c1.5,1.1,2.3-1,7.7,0.8c5.4,1.9,8.8,2.2,10.2,3.3c1.4,1.1,3.9,2.3,3.3,4s-1.4,1.9-1.4,1.9s-1-1.9-2.8-1s-5.5,5.4-17.5,5.1
			s-15-6.7-20.3-5.5s-11.3,1.6-13.9-5.2c0,0,8.2,4.5,18.5,2.2c0,0-8.9-5.3-6.5-21.4C1804.4,681.6,1795.2,669.9,1795.2,669.9z"/>
	</g>
	<g>
		<path fill="#FFFFFF" d="M1976.3,674.1c0,0,0,18.5,6.3,22.7c6.3,4.2,7.9,4.7,9.6,10.6c1.8,5.9,1.1,1.9,6.6,1.9s8.3-0.4,12.4,1.3
			s9.9,3.4,9.9,3.4s5.4,3.6,3,5.6c-0.3,0.3-1.2,0.4-2.3,0.5c-0.9,0.1,0.7-1.5-0.5-1.5c-2.5,0-7.7,1.7-8.7,2.1
			c-5.8,2.1-10.1,3.7-20.7,1.7c-10.6-2.1-14.9,0.3-20.7-1.4c-5.8-1.7-6.6-8.3-6.6-8.3s2.6,4.4,10.5,3.3c0,0-14.2-5.5-12.1-17.3
			C1965.1,686.9,1967,682,1976.3,674.1z"/>
		<path fill="#FFFFFF" d="M2016.5,712.6c0,0,5.5,1.2,7.4-5.7s7.3-20,3-24.3c-4.3-4.3-15.9,26.5-22.9,26.7S2016.5,712.6,2016.5,712.6
			z"/>
	</g>
	<g>
		<path fill="#FFFFFF" d="M1625.3,696.6c0,0,1.3-10.1,10.9-13.1c9.6-3,16.5-4.1,18.5-3.3c1.9,0.8-2.5,7.4-3.2,11
			c0,0,7.2-3.9,10.5-3.9c3.2,0.1,4.3,0.7,4.5,1.9c0.3,1.2-4.1,7.8-4.4,8.8c-0.3,1,3,0.8,4.4,1.5c1.4,0.7,1,2.1,1,2.1
			s1.7-0.6,1.8,0.8c0.1,1.4-1,2.8-1,2.8s0.2-1.3-1.2-1s-5.9,0.9-5.9,1.7c0,0.8-0.7,1.7-0.3,6.2c0.4,4.5-0.8,5.4-4.7,3.2
			c-3.9-2.2-5.9-3.4-5.9-5.5c0,0-6.1-1.5-7.6-1.5c-1.5,0-0.3,6.1-0.6,8.2c-0.3,2.1-7.9,1.4-11.3-4.6s-4.5-6.1-4.5-6.1
			s-5.6,2.2-6.3,1.8c-0.7-0.4-7.3-5.3-6.8-6.6s7.8,1.7,10.6,1C1626.6,701.2,1625.3,696.6,1625.3,696.6z"/>
	</g>
</g>
<g>
	<g>
		<path fill="#FFFFFF" d="M415.5,273.6c0,0,5.6-16.7,16.2-19.4c10.5-2.8,8.4-2,7.2,1c-1.1,3-4.2,11.9-5.9,17.1
			c-1.7,5.2-5.2,5-7.3,11.6s-0.4,5.2-0.4,5.2l-9.9,1.8l-2.4-13.9L415.5,273.6z"/>
		<path fill="#FFFFFF" d="M388.2,244.8c0,0,6.9,1.3,14.3,8.3c7.4,7,11.6,10.2,12.3,14.3c0.7,4.1,1.2,19.7,2.8,20.8
			c1.5,1.1,2.3-1,7.7,0.8s8.8,2.2,10.2,3.3s3.9,2.3,3.3,4c-0.6,1.7-1.4,1.9-1.4,1.9s-1-1.9-2.8-1c-1.7,1-5.5,5.4-17.5,5.1
			c-12-0.3-15-6.7-20.3-5.5c-5.3,1.2-11.3,1.6-13.9-5.2c0,0,8.2,4.5,18.5,2.2c0,0-8.9-5.3-6.5-21.4
			C397.4,256.5,388.2,244.8,388.2,244.8z"/>
	</g>
	<g>
		<path fill="#FFFFFF" d="M1124.6,273.6c0,0,5.6-16.7,16.2-19.4c10.5-2.8,8.4-2,7.2,1c-1.1,3-4.2,11.9-5.9,17.1
			c-1.7,5.2-5.2,5-7.3,11.6c-2.1,6.5-0.4,5.2-0.4,5.2l-9.9,1.8l-2.4-13.9L1124.6,273.6z"/>
		<path fill="#FFFFFF" d="M1097.3,244.8c0,0,6.9,1.3,14.3,8.3c7.4,7,11.6,10.2,12.3,14.3c0.7,4.1,1.2,19.7,2.8,20.8
			c1.5,1.1,2.3-1,7.7,0.8c5.4,1.9,8.8,2.2,10.2,3.3c1.4,1.1,3.9,2.3,3.3,4c-0.6,1.7-1.4,1.9-1.4,1.9s-1-1.9-2.8-1
			c-1.7,1-5.5,5.4-17.5,5.1c-12-0.3-15-6.7-20.3-5.5c-5.3,1.2-11.3,1.6-13.9-5.2c0,0,8.2,4.5,18.5,2.2c0,0-8.9-5.3-6.5-21.4
			C1106.5,256.5,1097.3,244.8,1097.3,244.8z"/>
	</g>
	<g>
		<path fill="#FFFFFF" d="M569.3,249c0,0,0,18.5,6.3,22.7c6.3,4.2,7.9,4.7,9.6,10.6c1.8,5.9,1.1,1.9,6.6,1.9c5.5,0,8.3-0.4,12.4,1.3
			s9.9,3.4,9.9,3.4s5.4,3.6,3,5.6c-0.3,0.3-1.2,0.4-2.3,0.5c-0.9,0.1,0.7-1.5-0.5-1.5c-2.5,0-7.7,1.7-8.7,2.1
			c-5.8,2.1-10.1,3.7-20.7,1.7c-10.6-2.1-14.9,0.3-20.7-1.4c-5.8-1.7-6.6-8.3-6.6-8.3s2.6,4.4,10.5,3.3c0,0-14.2-5.5-12.1-17.3
			S560,256.9,569.3,249z"/>
		<path fill="#FFFFFF" d="M609.5,287.6c0,0,5.5,1.2,7.4-5.7c1.9-6.9,7.3-20,3-24.3c-4.3-4.3-15.9,26.5-22.9,26.7
			C590.1,284.5,609.5,287.6,609.5,287.6z"/>
	</g>
	<g>
		<path fill="#FFFFFF" d="M1278.4,249c0,0,0,18.5,6.3,22.7c6.3,4.2,7.9,4.7,9.6,10.6c1.8,5.9,1.1,1.9,6.6,1.9s8.3-0.4,12.4,1.3
			s9.9,3.4,9.9,3.4s5.4,3.6,3,5.6c-0.3,0.3-1.2,0.4-2.3,0.5c-0.9,0.1,0.7-1.5-0.5-1.5c-2.5,0-7.7,1.7-8.7,2.1
			c-5.8,2.1-10.1,3.7-20.7,1.7c-10.6-2.1-14.9,0.3-20.7-1.4s-6.6-8.3-6.6-8.3s2.6,4.4,10.5,3.3c0,0-14.2-5.5-12.1-17.3
			C1267.2,261.9,1269.1,256.9,1278.4,249z"/>
		<path fill="#FFFFFF" d="M1318.6,287.6c0,0,5.5,1.2,7.4-5.7s7.3-20,3-24.3c-4.3-4.3-15.9,26.5-22.9,26.7
			C1299.3,284.5,1318.6,287.6,1318.6,287.6z"/>
	</g>
	<g>
		<path fill="#FFFFFF" d="M732.4,257.4c0,0,12.7,3.3,23.8-0.7c11.2-4,19.8-4.8,25.8-2.3c5.9,2.5,8,2.8,7.3,5
			c-0.7,2.1-1.2,2.5-1.2,2.5s-0.6-2.8-5,0c-4.3,2.8-5.5,3.2-5.5,3.2s4.1,8.4,6.2,10.2s1.4,7.4,4.1,10.2c2.8,2.8,7,5.1,9.4,3.4
			s1.9-3.4,1.9-3.4s1.1,4-1,5c-2.1,1-9.6,3.4-12.5,1.5c-3-1.9-8.5-0.7-12.8-6.5c-4.3-5.8-6.9-7.2-6.9-7.2s-0.2,6.7-5.3,11.4
			s-5.1,4.8-5.1,4.8s-11.2-1.6-13.8,0c0,0-3-1.4-3.6-3.8c-0.6-2.4,0.7-2.8,0.7-2.8s1,2.4,4.3,1.7s5.2-3.7,4.4-7.7
			c-0.8-4.1,1.1-13.8,1.1-13.8s-1-5.4-8.3-4.1C733.2,265.1,732.4,257.4,732.4,257.4z"/>
	</g>
	<g>
		<path fill="#FFFFFF" d="M1441.5,257.4c0,0,12.7,3.3,23.8-0.7c11.2-4,19.8-4.8,25.8-2.3c5.9,2.5,8,2.8,7.3,5
			c-0.7,2.1-1.2,2.5-1.2,2.5s-0.6-2.8-5,0c-4.3,2.8-5.5,3.2-5.5,3.2s4.1,8.4,6.2,10.2c2.1,1.8,1.4,7.4,4.1,10.2
			c2.8,2.8,7,5.1,9.4,3.4c2.3-1.7,1.9-3.4,1.9-3.4s1.1,4-1,5c-2.1,1-9.6,3.4-12.5,1.5c-3-1.9-8.5-0.7-12.8-6.5
			c-4.3-5.8-6.9-7.2-6.9-7.2s-0.2,6.7-5.3,11.4c-5.1,4.8-5.1,4.8-5.1,4.8s-11.2-1.6-13.8,0c0,0-3-1.4-3.6-3.8s0.7-2.8,0.7-2.8
			s1,2.4,4.3,1.7s5.2-3.7,4.4-7.7c-0.8-4.1,1.1-13.8,1.1-13.8s-1-5.4-8.3-4.1C1442.3,265.1,1441.5,257.4,1441.5,257.4z"/>
	</g>
	<g>
		<path fill="#FFFFFF" d="M927.4,271.5c0,0,1.3-10.1,10.9-13.1s16.5-4.1,18.5-3.3c1.9,0.8-2.5,7.4-3.2,11c0,0,7.2-3.9,10.5-3.9
			c3.2,0.1,4.3,0.7,4.5,1.9c0.3,1.2-4.1,7.8-4.4,8.8c-0.3,1,3,0.8,4.4,1.5c1.4,0.7,1,2.1,1,2.1s1.7-0.6,1.8,0.8s-1,2.8-1,2.8
			s0.2-1.3-1.2-1c-1.4,0.3-5.9,0.9-5.9,1.7s-0.7,1.7-0.3,6.2c0.4,4.5-0.8,5.4-4.7,3.2c-3.9-2.2-5.9-3.4-5.9-5.5c0,0-6.1-1.5-7.6-1.5
			s-0.3,6.1-0.6,8.2c-0.3,2.1-7.9,1.4-11.3-4.6c-3.4-6-4.5-6.1-4.5-6.1s-5.6,2.2-6.3,1.8s-7.3-5.3-6.8-6.6c0.6-1.3,7.8,1.7,10.6,1
			S927.4,271.5,927.4,271.5z"/>
	</g>
	<g>
		<path fill="#FFFFFF" d="M1822.5,273.6c0,0,5.6-16.7,16.2-19.4c10.5-2.8,8.4-2,7.2,1s-4.2,11.9-5.9,17.1c-1.7,5.2-5.2,5-7.3,11.6
			s-0.4,5.2-0.4,5.2l-9.9,1.8l-2.4-13.9L1822.5,273.6z"/>
		<path fill="#FFFFFF" d="M1795.2,244.8c0,0,6.9,1.3,14.3,8.3c7.4,7,11.6,10.2,12.3,14.3c0.7,4.1,1.2,19.7,2.8,20.8
			c1.5,1.1,2.3-1,7.7,0.8s8.8,2.2,10.2,3.3c1.4,1.1,3.9,2.3,3.3,4c-0.6,1.7-1.4,1.9-1.4,1.9s-1-1.9-2.8-1c-1.7,1-5.5,5.4-17.5,5.1
			c-12-0.3-15-6.7-20.3-5.5c-5.3,1.2-11.3,1.6-13.9-5.2c0,0,8.2,4.5,18.5,2.2c0,0-8.9-5.3-6.5-21.4
			C1804.4,256.5,1795.2,244.8,1795.2,244.8z"/>
	</g>
	<g>
		<path fill="#FFFFFF" d="M1976.3,249c0,0,0,18.5,6.3,22.7c6.3,4.2,7.9,4.7,9.6,10.6c1.8,5.9,1.1,1.9,6.6,1.9s8.3-0.4,12.4,1.3
			s9.9,3.4,9.9,3.4s5.4,3.6,3,5.6c-0.3,0.3-1.2,0.4-2.3,0.5c-0.9,0.1,0.7-1.5-0.5-1.5c-2.5,0-7.7,1.7-8.7,2.1
			c-5.8,2.1-10.1,3.7-20.7,1.7c-10.6-2.1-14.9,0.3-20.7-1.4s-6.6-8.3-6.6-8.3s2.6,4.4,10.5,3.3c0,0-14.2-5.5-12.1-17.3
			C1965.1,261.9,1967,256.9,1976.3,249z"/>
		<path fill="#FFFFFF" d="M2016.5,287.6c0,0,5.5,1.2,7.4-5.7s7.3-20,3-24.3c-4.3-4.3-15.9,26.5-22.9,26.7
			C1997.2,284.5,2016.5,287.6,2016.5,287.6z"/>
	</g>
	<g>
		<path fill="#FFFFFF" d="M1625.3,271.5c0,0,1.3-10.1,10.9-13.1c9.6-3,16.5-4.1,18.5-3.3s-2.5,7.4-3.2,11c0,0,7.2-3.9,10.5-3.9
			c3.2,0.1,4.3,0.7,4.5,1.9c0.3,1.2-4.1,7.8-4.4,8.8c-0.3,1,3,0.8,4.4,1.5c1.4,0.7,1,2.1,1,2.1s1.7-0.6,1.8,0.8c0.1,1.4-1,2.8-1,2.8
			s0.2-1.3-1.2-1s-5.9,0.9-5.9,1.7s-0.7,1.7-0.3,6.2c0.4,4.5-0.8,5.4-4.7,3.2c-3.9-2.2-5.9-3.4-5.9-5.5c0,0-6.1-1.5-7.6-1.5
			c-1.5,0-0.3,6.1-0.6,8.2c-0.3,2.1-7.9,1.4-11.3-4.6c-3.4-6-4.5-6.1-4.5-6.1s-5.6,2.2-6.3,1.8s-7.3-5.3-6.8-6.6s7.8,1.7,10.6,1
			C1626.6,276.1,1625.3,271.5,1625.3,271.5z"/>
	</g>
</g>
<g>
	<g>
		<path fill="#FFFFFF" d="M669.1,167.4c0,0,5.6-16.7,16.2-19.4s8.4-2,7.2,1s-4.2,11.9-5.9,17.1c-1.7,5.2-5.2,5-7.3,11.6
			c-2.1,6.5-0.4,5.2-0.4,5.2l-9.9,1.8l-2.4-13.9L669.1,167.4z"/>
		<path fill="#FFFFFF" d="M641.9,138.6c0,0,6.9,1.3,14.3,8.3s11.6,10.2,12.3,14.3c0.7,4.1,1.2,19.7,2.8,20.8c1.5,1.1,2.3-1,7.7,0.8
			s8.8,2.2,10.2,3.3c1.4,1.1,3.9,2.3,3.3,4s-1.4,1.9-1.4,1.9s-1-1.9-2.8-1s-5.5,5.4-17.5,5.1c-12-0.3-15-6.7-20.3-5.5
			c-5.3,1.2-11.3,1.6-13.9-5.2c0,0,8.2,4.5,18.5,2.2c0,0-8.9-5.3-6.5-21.4S641.9,138.6,641.9,138.6z"/>
	</g>
	<g>
		<path fill="#FFFFFF" d="M1378.2,167.4c0,0,5.6-16.7,16.2-19.4s8.4-2,7.2,1s-4.2,11.9-5.9,17.1s-5.2,5-7.3,11.6
			c-2.1,6.5-0.4,5.2-0.4,5.2l-9.9,1.8l-2.4-13.9L1378.2,167.4z"/>
		<path fill="#FFFFFF" d="M1351,138.6c0,0,6.9,1.3,14.3,8.3c7.4,7,11.6,10.2,12.3,14.3s1.2,19.7,2.8,20.8c1.5,1.1,2.3-1,7.7,0.8
			s8.8,2.2,10.2,3.3c1.4,1.1,3.9,2.3,3.3,4s-1.4,1.9-1.4,1.9s-1-1.9-2.8-1s-5.5,5.4-17.5,5.1c-12-0.3-15-6.7-20.3-5.5
			c-5.3,1.2-11.3,1.6-13.9-5.2c0,0,8.2,4.5,18.5,2.2c0,0-8.9-5.3-6.5-21.4C1360.2,150.2,1351,138.6,1351,138.6z"/>
	</g>
	<g>
		<path fill="#FFFFFF" d="M822.9,142.8c0,0,0,18.5,6.3,22.7c6.3,4.2,7.9,4.7,9.6,10.6s1.1,1.9,6.6,1.9c5.5,0,8.3-0.4,12.4,1.3
			c4.1,1.7,9.9,3.4,9.9,3.4s5.4,3.6,3,5.6c-0.3,0.3-1.2,0.4-2.3,0.5c-0.9,0.1,0.7-1.5-0.5-1.5c-2.5,0-7.7,1.7-8.7,2.1
			c-5.8,2.1-10.1,3.7-20.7,1.7c-10.6-2.1-14.9,0.3-20.7-1.4s-6.6-8.3-6.6-8.3s2.6,4.4,10.5,3.3c0,0-14.2-5.5-12.1-17.3
			S813.7,150.6,822.9,142.8z"/>
		<path fill="#FFFFFF" d="M863.2,181.3c0,0,5.5,1.2,7.4-5.7c1.9-6.9,7.3-20,3-24.3c-4.3-4.3-15.9,26.5-22.9,26.7
			C843.8,178.2,863.2,181.3,863.2,181.3z"/>
	</g>
	<g>
		<path fill="#FFFFFF" d="M1532,142.8c0,0,0,18.5,6.3,22.7c6.3,4.2,7.9,4.7,9.6,10.6s1.1,1.9,6.6,1.9s8.3-0.4,12.4,1.3
			c4.1,1.7,9.9,3.4,9.9,3.4s5.4,3.6,3,5.6c-0.3,0.3-1.2,0.4-2.3,0.5c-0.9,0.1,0.7-1.5-0.5-1.5c-2.5,0-7.7,1.7-8.7,2.1
			c-5.8,2.1-10.1,3.7-20.7,1.7c-10.6-2.1-14.9,0.3-20.7-1.4s-6.6-8.3-6.6-8.3s2.6,4.4,10.5,3.3c0,0-14.2-5.5-12.1-17.3
			C1520.9,155.6,1522.8,150.6,1532,142.8z"/>
		<path fill="#FFFFFF" d="M1572.3,181.3c0,0,5.5,1.2,7.4-5.7s7.3-20,3-24.3c-4.3-4.3-15.9,26.5-22.9,26.7
			C1552.9,178.2,1572.3,181.3,1572.3,181.3z"/>
	</g>
	<g>
		<path fill="#FFFFFF" d="M986.1,151.1c0,0,12.7,3.3,23.8-0.7c11.2-4,19.8-4.8,25.8-2.3s8,2.8,7.3,5c-0.7,2.1-1.2,2.5-1.2,2.5
			s-0.6-2.8-5,0c-4.3,2.8-5.5,3.2-5.5,3.2s4.1,8.4,6.2,10.2c2.1,1.8,1.4,7.4,4.1,10.2c2.8,2.8,7,5.1,9.4,3.4
			c2.3-1.7,1.9-3.4,1.9-3.4s1.1,4-1,5c-2.1,1-9.6,3.4-12.5,1.5c-3-1.9-8.5-0.7-12.8-6.5c-4.3-5.8-6.9-7.2-6.9-7.2s-0.2,6.7-5.3,11.4
			c-5.1,4.8-5.1,4.8-5.1,4.8s-11.2-1.6-13.8,0c0,0-3-1.4-3.6-3.8c-0.6-2.4,0.7-2.8,0.7-2.8s1,2.4,4.3,1.7c3.2-0.8,5.2-3.7,4.4-7.7
			c-0.8-4.1,1.1-13.8,1.1-13.8s-1-5.4-8.3-4.1C986.8,158.8,986.1,151.1,986.1,151.1z"/>
	</g>
	<g>
		<path fill="#FFFFFF" d="M1695.2,151.1c0,0,12.7,3.3,23.8-0.7c11.2-4,19.8-4.8,25.8-2.3s8,2.8,7.3,5c-0.7,2.1-1.2,2.5-1.2,2.5
			s-0.6-2.8-5,0c-4.3,2.8-5.5,3.2-5.5,3.2s4.1,8.4,6.2,10.2c2.1,1.8,1.4,7.4,4.1,10.2c2.8,2.8,7,5.1,9.4,3.4
			c2.3-1.7,1.9-3.4,1.9-3.4s1.1,4-1,5c-2.1,1-9.6,3.4-12.5,1.5c-3-1.9-8.5-0.7-12.8-6.5c-4.3-5.8-6.9-7.2-6.9-7.2s-0.2,6.7-5.3,11.4
			c-5.1,4.8-5.1,4.8-5.1,4.8s-11.2-1.6-13.8,0c0,0-3-1.4-3.6-3.8c-0.6-2.4,0.7-2.8,0.7-2.8s1,2.4,4.3,1.7s5.2-3.7,4.4-7.7
			c-0.8-4.1,1.1-13.8,1.1-13.8s-1-5.4-8.3-4.1C1695.9,158.8,1695.2,151.1,1695.2,151.1z"/>
	</g>
	<g>
		<path fill="#FFFFFF" d="M1181,165.2c0,0,1.3-10.1,10.9-13.1c9.6-3,16.5-4.1,18.5-3.3s-2.5,7.4-3.2,11c0,0,7.2-3.9,10.5-3.9
			s4.3,0.7,4.5,1.9c0.3,1.2-4.1,7.8-4.4,8.8c-0.3,1,3,0.8,4.4,1.5c1.4,0.7,1,2.1,1,2.1s1.7-0.6,1.8,0.8c0.1,1.4-1,2.8-1,2.8
			s0.2-1.3-1.2-1c-1.4,0.3-5.9,0.9-5.9,1.7s-0.7,1.7-0.3,6.2c0.4,4.5-0.8,5.4-4.7,3.2c-3.9-2.2-5.9-3.4-5.9-5.5c0,0-6.1-1.5-7.6-1.5
			c-1.5,0-0.3,6.1-0.6,8.2c-0.3,2.1-7.9,1.4-11.3-4.6s-4.5-6.1-4.5-6.1s-5.6,2.2-6.3,1.8c-0.7-0.4-7.3-5.3-6.8-6.6
			c0.6-1.3,7.8,1.7,10.6,1C1182.3,169.8,1181,165.2,1181,165.2z"/>
	</g>
</g>
<g>
	<g>
		<path fill="#FFFFFF" d="M-39.9,167.4c0,0,5.6-16.7,16.2-19.4s8.4-2,7.2,1s-4.2,11.9-5.9,17.1c-1.7,5.2-5.2,5-7.3,11.6
			c-2.1,6.5-0.4,5.2-0.4,5.2l-9.9,1.8l-2.4-13.9L-39.9,167.4z"/>
		<path fill="#FFFFFF" d="M-67.1,138.6c0,0,6.9,1.3,14.3,8.3s11.6,10.2,12.3,14.3s1.2,19.7,2.8,20.8c1.5,1.1,2.3-1,7.7,0.8
			s8.8,2.2,10.2,3.3c1.4,1.1,3.9,2.3,3.3,4s-1.4,1.9-1.4,1.9s-1-1.9-2.8-1s-5.5,5.4-17.5,5.1c-12-0.3-15-6.7-20.3-5.5
			c-5.3,1.2-11.3,1.6-13.9-5.2c0,0,8.2,4.5,18.5,2.2c0,0-8.9-5.3-6.5-21.4C-57.9,150.2-67.1,138.6-67.1,138.6z"/>
	</g>
	<g>
		<path fill="#FFFFFF" d="M669.2,167.4c0,0,5.6-16.7,16.2-19.4s8.4-2,7.2,1s-4.2,11.9-5.9,17.1c-1.7,5.2-5.2,5-7.3,11.6
			c-2.1,6.5-0.4,5.2-0.4,5.2l-9.9,1.8l-2.4-13.9L669.2,167.4z"/>
		<path fill="#FFFFFF" d="M642,138.6c0,0,6.9,1.3,14.3,8.3c7.4,7,11.6,10.2,12.3,14.3c0.7,4.1,1.2,19.7,2.8,20.8
			c1.5,1.1,2.3-1,7.7,0.8c5.4,1.9,8.8,2.2,10.2,3.3c1.4,1.1,3.9,2.3,3.3,4c-0.6,1.7-1.4,1.9-1.4,1.9s-1-1.9-2.8-1s-5.5,5.4-17.5,5.1
			c-12-0.3-15-6.7-20.3-5.5c-5.3,1.2-11.3,1.6-13.9-5.2c0,0,8.2,4.5,18.5,2.2c0,0-8.9-5.3-6.5-21.4S642,138.6,642,138.6z"/>
	</g>
	<g>
		<path fill="#FFFFFF" d="M113.9,142.8c0,0,0,18.5,6.3,22.7c6.3,4.2,7.9,4.7,9.6,10.6s1.1,1.9,6.6,1.9c5.5,0,8.3-0.4,12.4,1.3
			c4.1,1.7,9.9,3.4,9.9,3.4s5.4,3.6,3,5.6c-0.3,0.3-1.2,0.4-2.3,0.5c-0.9,0.1,0.7-1.5-0.5-1.5c-2.5,0-7.7,1.7-8.7,2.1
			c-5.8,2.1-10.1,3.7-20.7,1.7c-10.6-2.1-14.9,0.3-20.7-1.4c-5.8-1.7-6.6-8.3-6.6-8.3s2.6,4.4,10.5,3.3c0,0-14.2-5.5-12.1-17.3
			S104.7,150.6,113.9,142.8z"/>
		<path fill="#FFFFFF" d="M154.2,181.3c0,0,5.5,1.2,7.4-5.7c1.9-6.9,7.3-20,3-24.3c-4.3-4.3-15.9,26.5-22.9,26.7
			C134.8,178.2,154.2,181.3,154.2,181.3z"/>
	</g>
	<g>
		<path fill="#FFFFFF" d="M823,142.8c0,0,0,18.5,6.3,22.7c6.3,4.2,7.9,4.7,9.6,10.6s1.1,1.9,6.6,1.9c5.5,0,8.3-0.4,12.4,1.3
			c4.1,1.7,9.9,3.4,9.9,3.4s5.4,3.6,3,5.6c-0.3,0.3-1.2,0.4-2.3,0.5c-0.9,0.1,0.7-1.5-0.5-1.5c-2.5,0-7.7,1.7-8.7,2.1
			c-5.8,2.1-10.1,3.7-20.7,1.7c-10.6-2.1-14.9,0.3-20.7-1.4c-5.8-1.7-6.6-8.3-6.6-8.3s2.6,4.4,10.5,3.3c0,0-14.2-5.5-12.1-17.3
			S813.8,150.6,823,142.8z"/>
		<path fill="#FFFFFF" d="M863.3,181.3c0,0,5.5,1.2,7.4-5.7c1.9-6.9,7.3-20,3-24.3c-4.3-4.3-15.9,26.5-22.9,26.7
			C843.9,178.2,863.3,181.3,863.3,181.3z"/>
	</g>
	<g>
		<path fill="#FFFFFF" d="M277.1,151.1c0,0,12.7,3.3,23.8-0.7c11.2-4,19.8-4.8,25.8-2.3c5.9,2.5,8,2.8,7.3,5
			c-0.7,2.1-1.2,2.5-1.2,2.5s-0.6-2.8-5,0s-5.5,3.2-5.5,3.2s4.1,8.4,6.2,10.2c2.1,1.8,1.4,7.4,4.1,10.2c2.8,2.8,7,5.1,9.4,3.4
			c2.3-1.7,1.9-3.4,1.9-3.4s1.1,4-1,5c-2.1,1-9.6,3.4-12.5,1.5c-3-1.9-8.5-0.7-12.8-6.5c-4.3-5.8-6.9-7.2-6.9-7.2s-0.2,6.7-5.3,11.4
			c-5.1,4.8-5.1,4.8-5.1,4.8s-11.2-1.6-13.8,0c0,0-3-1.4-3.6-3.8c-0.6-2.4,0.7-2.8,0.7-2.8s1,2.4,4.3,1.7c3.2-0.8,5.2-3.7,4.4-7.7
			c-0.8-4.1,1.1-13.8,1.1-13.8s-1-5.4-8.3-4.1C277.8,158.8,277.1,151.1,277.1,151.1z"/>
	</g>
	<g>
		<path fill="#FFFFFF" d="M986.2,151.1c0,0,12.7,3.3,23.8-0.7c11.2-4,19.8-4.8,25.8-2.3s8,2.8,7.3,5c-0.7,2.1-1.2,2.5-1.2,2.5
			s-0.6-2.8-5,0c-4.3,2.8-5.5,3.2-5.5,3.2s4.1,8.4,6.2,10.2c2.1,1.8,1.4,7.4,4.1,10.2c2.8,2.8,7,5.1,9.4,3.4
			c2.3-1.7,1.9-3.4,1.9-3.4s1.1,4-1,5c-2.1,1-9.6,3.4-12.5,1.5c-3-1.9-8.5-0.7-12.8-6.5c-4.3-5.8-6.9-7.2-6.9-7.2s-0.2,6.7-5.3,11.4
			c-5.1,4.8-5.1,4.8-5.1,4.8s-11.2-1.6-13.8,0c0,0-3-1.4-3.6-3.8c-0.6-2.4,0.7-2.8,0.7-2.8s1,2.4,4.3,1.7c3.2-0.8,5.2-3.7,4.4-7.7
			c-0.8-4.1,1.1-13.8,1.1-13.8s-1-5.4-8.3-4.1C986.9,158.8,986.2,151.1,986.2,151.1z"/>
	</g>
	<g>
		<path fill="#FFFFFF" d="M472,165.2c0,0,1.3-10.1,10.9-13.1c9.6-3,16.5-4.1,18.5-3.3c1.9,0.8-2.5,7.4-3.2,11c0,0,7.2-3.9,10.5-3.9
			c3.2,0.1,4.3,0.7,4.5,1.9s-4.1,7.8-4.4,8.8s3,0.8,4.4,1.5c1.4,0.7,1,2.1,1,2.1s1.7-0.6,1.8,0.8c0.1,1.4-1,2.8-1,2.8s0.2-1.3-1.2-1
			c-1.4,0.3-5.9,0.9-5.9,1.7s-0.7,1.7-0.3,6.2c0.4,4.5-0.8,5.4-4.7,3.2c-3.9-2.2-5.9-3.4-5.9-5.5c0,0-6.1-1.5-7.6-1.5
			s-0.3,6.1-0.6,8.2c-0.3,2.1-7.9,1.4-11.3-4.6s-4.5-6.1-4.5-6.1s-5.6,2.2-6.3,1.8c-0.7-0.4-7.3-5.3-6.8-6.6c0.6-1.3,7.8,1.7,10.6,1
			S472,165.2,472,165.2z"/>
	</g>
</g>
<g>
	<g>
		<path fill="#FFFFFF" d="M-39.9,378.4c0,0,5.6-16.7,16.2-19.4c10.5-2.8,8.4-2,7.2,1s-4.2,11.9-5.9,17.1c-1.7,5.2-5.2,5-7.3,11.6
			c-2.1,6.5-0.4,5.2-0.4,5.2l-9.9,1.8l-2.4-13.9L-39.9,378.4z"/>
		<path fill="#FFFFFF" d="M-67.1,349.6c0,0,6.9,1.3,14.3,8.3c7.4,7,11.6,10.2,12.3,14.3c0.7,4.1,1.2,19.7,2.8,20.8s2.3-1,7.7,0.8
			c5.4,1.9,8.8,2.2,10.2,3.3c1.4,1.1,3.9,2.3,3.3,4c-0.6,1.7-1.4,1.9-1.4,1.9s-1-1.9-2.8-1c-1.7,1-5.5,5.4-17.5,5.1
			c-12-0.3-15-6.7-20.3-5.5s-11.3,1.6-13.9-5.2c0,0,8.2,4.5,18.5,2.2c0,0-8.9-5.3-6.5-21.4C-57.9,361.2-67.1,349.6-67.1,349.6z"/>
	</g>
	<g>
		<path fill="#FFFFFF" d="M669.2,378.4c0,0,5.6-16.7,16.2-19.4c10.5-2.8,8.4-2,7.2,1s-4.2,11.9-5.9,17.1c-1.7,5.2-5.2,5-7.3,11.6
			c-2.1,6.5-0.4,5.2-0.4,5.2l-9.9,1.8l-2.4-13.9L669.2,378.4z"/>
		<path fill="#FFFFFF" d="M642,349.6c0,0,6.9,1.3,14.3,8.3c7.4,7,11.6,10.2,12.3,14.3c0.7,4.1,1.2,19.7,2.8,20.8s2.3-1,7.7,0.8
			c5.4,1.9,8.8,2.2,10.2,3.3c1.4,1.1,3.9,2.3,3.3,4c-0.6,1.7-1.4,1.9-1.4,1.9s-1-1.9-2.8-1c-1.7,1-5.5,5.4-17.5,5.1
			c-12-0.3-15-6.7-20.3-5.5c-5.3,1.2-11.3,1.6-13.9-5.2c0,0,8.2,4.5,18.5,2.2c0,0-8.9-5.3-6.5-21.4S642,349.6,642,349.6z"/>
	</g>
	<g>
		<path fill="#FFFFFF" d="M113.9,353.8c0,0,0,18.5,6.3,22.7c6.3,4.2,7.9,4.7,9.6,10.6c1.8,5.9,1.1,1.9,6.6,1.9
			c5.5,0,8.3-0.4,12.4,1.3c4.1,1.7,9.9,3.4,9.9,3.4s5.4,3.6,3,5.6c-0.3,0.3-1.2,0.4-2.3,0.5c-0.9,0.1,0.7-1.5-0.5-1.5
			c-2.5,0-7.7,1.7-8.7,2.1c-5.8,2.1-10.1,3.7-20.7,1.7c-10.6-2.1-14.9,0.3-20.7-1.4c-5.8-1.7-6.6-8.3-6.6-8.3s2.6,4.4,10.5,3.3
			c0,0-14.2-5.5-12.1-17.3C102.8,366.6,104.7,361.6,113.9,353.8z"/>
		<path fill="#FFFFFF" d="M154.2,392.3c0,0,5.5,1.2,7.4-5.7c1.9-6.9,7.3-20,3-24.3c-4.3-4.3-15.9,26.5-22.9,26.7
			C134.8,389.2,154.2,392.3,154.2,392.3z"/>
	</g>
	<g>
		<path fill="#FFFFFF" d="M823,353.8c0,0,0,18.5,6.3,22.7c6.3,4.2,7.9,4.7,9.6,10.6c1.8,5.9,1.1,1.9,6.6,1.9c5.5,0,8.3-0.4,12.4,1.3
			c4.1,1.7,9.9,3.4,9.9,3.4s5.4,3.6,3,5.6c-0.3,0.3-1.2,0.4-2.3,0.5c-0.9,0.1,0.7-1.5-0.5-1.5c-2.5,0-7.7,1.7-8.7,2.1
			c-5.8,2.1-10.1,3.7-20.7,1.7c-10.6-2.1-14.9,0.3-20.7-1.4c-5.8-1.7-6.6-8.3-6.6-8.3s2.6,4.4,10.5,3.3c0,0-14.2-5.5-12.1-17.3
			C811.9,366.6,813.8,361.6,823,353.8z"/>
		<path fill="#FFFFFF" d="M863.3,392.3c0,0,5.5,1.2,7.4-5.7c1.9-6.9,7.3-20,3-24.3c-4.3-4.3-15.9,26.5-22.9,26.7
			C843.9,389.2,863.3,392.3,863.3,392.3z"/>
	</g>
	<g>
		<path fill="#FFFFFF" d="M277.1,362.1c0,0,12.7,3.3,23.8-0.7c11.2-4,19.8-4.8,25.8-2.3c5.9,2.5,8,2.8,7.3,5
			c-0.7,2.1-1.2,2.5-1.2,2.5s-0.6-2.8-5,0c-4.3,2.8-5.5,3.2-5.5,3.2s4.1,8.4,6.2,10.2c2.1,1.8,1.4,7.4,4.1,10.2
			c2.8,2.8,7,5.1,9.4,3.4s1.9-3.4,1.9-3.4s1.1,4-1,5c-2.1,1-9.6,3.4-12.5,1.5c-3-1.9-8.5-0.7-12.8-6.5c-4.3-5.8-6.9-7.2-6.9-7.2
			s-0.2,6.7-5.3,11.4c-5.1,4.8-5.1,4.8-5.1,4.8s-11.2-1.6-13.8,0c0,0-3-1.4-3.6-3.8s0.7-2.8,0.7-2.8s1,2.4,4.3,1.7
			c3.2-0.8,5.2-3.7,4.4-7.7s1.1-13.8,1.1-13.8s-1-5.4-8.3-4.1C277.8,369.8,277.1,362.1,277.1,362.1z"/>
	</g>
	<g>
		<path fill="#FFFFFF" d="M986.2,362.1c0,0,12.7,3.3,23.8-0.7c11.2-4,19.8-4.8,25.8-2.3c5.9,2.5,8,2.8,7.3,5s-1.2,2.5-1.2,2.5
			s-0.6-2.8-5,0c-4.3,2.8-5.5,3.2-5.5,3.2s4.1,8.4,6.2,10.2c2.1,1.8,1.4,7.4,4.1,10.2c2.8,2.8,7,5.1,9.4,3.4s1.9-3.4,1.9-3.4
			s1.1,4-1,5c-2.1,1-9.6,3.4-12.5,1.5c-3-1.9-8.5-0.7-12.8-6.5c-4.3-5.8-6.9-7.2-6.9-7.2s-0.2,6.7-5.3,11.4
			c-5.1,4.8-5.1,4.8-5.1,4.8s-11.2-1.6-13.8,0c0,0-3-1.4-3.6-3.8s0.7-2.8,0.7-2.8s1,2.4,4.3,1.7c3.2-0.8,5.2-3.7,4.4-7.7
			c-0.8-4.1,1.1-13.8,1.1-13.8s-1-5.4-8.3-4.1S986.2,362.1,986.2,362.1z"/>
	</g>
	<g>
		<path fill="#FFFFFF" d="M472,376.2c0,0,1.3-10.1,10.9-13.1c9.6-3,16.5-4.1,18.5-3.3c1.9,0.8-2.5,7.4-3.2,11c0,0,7.2-3.9,10.5-3.9
			c3.2,0.1,4.3,0.7,4.5,1.9s-4.1,7.8-4.4,8.8s3,0.8,4.4,1.5c1.4,0.7,1,2.1,1,2.1s1.7-0.6,1.8,0.8c0.1,1.4-1,2.8-1,2.8s0.2-1.3-1.2-1
			c-1.4,0.3-5.9,0.9-5.9,1.7s-0.7,1.7-0.3,6.2c0.4,4.5-0.8,5.4-4.7,3.2c-3.9-2.2-5.9-3.4-5.9-5.5c0,0-6.1-1.5-7.6-1.5
			s-0.3,6.1-0.6,8.2c-0.3,2.1-7.9,1.4-11.3-4.6s-4.5-6.1-4.5-6.1s-5.6,2.2-6.3,1.8c-0.7-0.4-7.3-5.3-6.8-6.6c0.6-1.3,7.8,1.7,10.6,1
			S472,376.2,472,376.2z"/>
	</g>
</g>
<g>
	<g>
		<path fill="#FFFFFF" d="M-39.9,592.4c0,0,5.6-16.7,16.2-19.4s8.4-2,7.2,1s-4.2,11.9-5.9,17.1c-1.7,5.2-5.2,5-7.3,11.6
			s-0.4,5.2-0.4,5.2l-9.9,1.8l-2.4-13.9L-39.9,592.4z"/>
		<path fill="#FFFFFF" d="M-67.1,563.6c0,0,6.9,1.3,14.3,8.3s11.6,10.2,12.3,14.3s1.2,19.7,2.8,20.8c1.5,1.1,2.3-1,7.7,0.8
			s8.8,2.2,10.2,3.3c1.4,1.1,3.9,2.3,3.3,4c-0.6,1.7-1.4,1.9-1.4,1.9s-1-1.9-2.8-1s-5.5,5.4-17.5,5.1s-15-6.7-20.3-5.5
			c-5.3,1.2-11.3,1.6-13.9-5.2c0,0,8.2,4.5,18.5,2.2c0,0-8.9-5.3-6.5-21.4C-57.9,575.2-67.1,563.6-67.1,563.6z"/>
	</g>
	<g>
		<path fill="#FFFFFF" d="M669.2,592.4c0,0,5.6-16.7,16.2-19.4s8.4-2,7.2,1s-4.2,11.9-5.9,17.1c-1.7,5.2-5.2,5-7.3,11.6
			s-0.4,5.2-0.4,5.2l-9.9,1.8l-2.4-13.9L669.2,592.4z"/>
		<path fill="#FFFFFF" d="M642,563.6c0,0,6.9,1.3,14.3,8.3c7.4,7,11.6,10.2,12.3,14.3c0.7,4.1,1.2,19.7,2.8,20.8
			c1.5,1.1,2.3-1,7.7,0.8c5.4,1.9,8.8,2.2,10.2,3.3c1.4,1.1,3.9,2.3,3.3,4c-0.6,1.7-1.4,1.9-1.4,1.9s-1-1.9-2.8-1s-5.5,5.4-17.5,5.1
			s-15-6.7-20.3-5.5c-5.3,1.2-11.3,1.6-13.9-5.2c0,0,8.2,4.5,18.5,2.2c0,0-8.9-5.3-6.5-21.4S642,563.6,642,563.6z"/>
	</g>
	<g>
		<path fill="#FFFFFF" d="M113.9,567.8c0,0,0,18.5,6.3,22.7c6.3,4.2,7.9,4.7,9.6,10.6s1.1,1.9,6.6,1.9c5.5,0,8.3-0.4,12.4,1.3
			s9.9,3.4,9.9,3.4s5.4,3.6,3,5.6c-0.3,0.3-1.2,0.4-2.3,0.5c-0.9,0.1,0.7-1.5-0.5-1.5c-2.5,0-7.7,1.7-8.7,2.1
			c-5.8,2.1-10.1,3.7-20.7,1.7c-10.6-2.1-14.9,0.3-20.7-1.4c-5.8-1.7-6.6-8.3-6.6-8.3s2.6,4.4,10.5,3.3c0,0-14.2-5.5-12.1-17.3
			S104.7,575.6,113.9,567.8z"/>
		<path fill="#FFFFFF" d="M154.2,606.3c0,0,5.5,1.2,7.4-5.7c1.9-6.9,7.3-20,3-24.3s-15.9,26.5-22.9,26.7
			C134.8,603.2,154.2,606.3,154.2,606.3z"/>
	</g>
	<g>
		<path fill="#FFFFFF" d="M823,567.8c0,0,0,18.5,6.3,22.7c6.3,4.2,7.9,4.7,9.6,10.6s1.1,1.9,6.6,1.9c5.5,0,8.3-0.4,12.4,1.3
			s9.9,3.4,9.9,3.4s5.4,3.6,3,5.6c-0.3,0.3-1.2,0.4-2.3,0.5c-0.9,0.1,0.7-1.5-0.5-1.5c-2.5,0-7.7,1.7-8.7,2.1
			c-5.8,2.1-10.1,3.7-20.7,1.7c-10.6-2.1-14.9,0.3-20.7-1.4c-5.8-1.7-6.6-8.3-6.6-8.3s2.6,4.4,10.5,3.3c0,0-14.2-5.5-12.1-17.3
			S813.8,575.6,823,567.8z"/>
		<path fill="#FFFFFF" d="M863.3,606.3c0,0,5.5,1.2,7.4-5.7c1.9-6.9,7.3-20,3-24.3c-4.3-4.3-15.9,26.5-22.9,26.7
			C843.9,603.2,863.3,606.3,863.3,606.3z"/>
	</g>
	<g>
		<path fill="#FFFFFF" d="M277.1,576.1c0,0,12.7,3.3,23.8-0.7c11.2-4,19.8-4.8,25.8-2.3c5.9,2.5,8,2.8,7.3,5
			c-0.7,2.1-1.2,2.5-1.2,2.5s-0.6-2.8-5,0c-4.3,2.8-5.5,3.2-5.5,3.2s4.1,8.4,6.2,10.2c2.1,1.8,1.4,7.4,4.1,10.2
			c2.8,2.8,7,5.1,9.4,3.4c2.3-1.7,1.9-3.4,1.9-3.4s1.1,4-1,5c-2.1,1-9.6,3.4-12.5,1.5c-3-1.9-8.5-0.7-12.8-6.5
			c-4.3-5.8-6.9-7.2-6.9-7.2s-0.2,6.7-5.3,11.4s-5.1,4.8-5.1,4.8s-11.2-1.6-13.8,0c0,0-3-1.4-3.6-3.8s0.7-2.8,0.7-2.8s1,2.4,4.3,1.7
			c3.2-0.8,5.2-3.7,4.4-7.7c-0.8-4.1,1.1-13.8,1.1-13.8s-1-5.4-8.3-4.1C277.8,583.8,277.1,576.1,277.1,576.1z"/>
	</g>
	<g>
		<path fill="#FFFFFF" d="M986.2,576.1c0,0,12.7,3.3,23.8-0.7c11.2-4,19.8-4.8,25.8-2.3s8,2.8,7.3,5c-0.7,2.1-1.2,2.5-1.2,2.5
			s-0.6-2.8-5,0c-4.3,2.8-5.5,3.2-5.5,3.2s4.1,8.4,6.2,10.2c2.1,1.8,1.4,7.4,4.1,10.2c2.8,2.8,7,5.1,9.4,3.4
			c2.3-1.7,1.9-3.4,1.9-3.4s1.1,4-1,5c-2.1,1-9.6,3.4-12.5,1.5c-3-1.9-8.5-0.7-12.8-6.5c-4.3-5.8-6.9-7.2-6.9-7.2s-0.2,6.7-5.3,11.4
			s-5.1,4.8-5.1,4.8s-11.2-1.6-13.8,0c0,0-3-1.4-3.6-3.8s0.7-2.8,0.7-2.8s1,2.4,4.3,1.7c3.2-0.8,5.2-3.7,4.4-7.7
			c-0.8-4.1,1.1-13.8,1.1-13.8s-1-5.4-8.3-4.1C986.9,583.8,986.2,576.1,986.2,576.1z"/>
	</g>
	<g>
		<path fill="#FFFFFF" d="M472,590.2c0,0,1.3-10.1,10.9-13.1s16.5-4.1,18.5-3.3c1.9,0.8-2.5,7.4-3.2,11c0,0,7.2-3.9,10.5-3.9
			c3.2,0.1,4.3,0.7,4.5,1.9c0.3,1.2-4.1,7.8-4.4,8.8c-0.3,1,3,0.8,4.4,1.5c1.4,0.7,1,2.1,1,2.1s1.7-0.6,1.8,0.8c0.1,1.4-1,2.8-1,2.8
			s0.2-1.3-1.2-1c-1.4,0.3-5.9,0.9-5.9,1.7c0,0.8-0.7,1.7-0.3,6.2s-0.8,5.4-4.7,3.2c-3.9-2.2-5.9-3.4-5.9-5.5c0,0-6.1-1.5-7.6-1.5
			s-0.3,6.1-0.6,8.2c-0.3,2.1-7.9,1.4-11.3-4.6s-4.5-6.1-4.5-6.1s-5.6,2.2-6.3,1.8c-0.7-0.4-7.3-5.3-6.8-6.6c0.6-1.3,7.8,1.7,10.6,1
			C473.3,594.8,472,590.2,472,590.2z"/>
	</g>
</g>
<g>
	<g>
		<path fill="#FFFFFF" d="M1378.1,167.4c0,0,5.6-16.7,16.2-19.4s8.4-2,7.2,1s-4.2,11.9-5.9,17.1s-5.2,5-7.3,11.6
			c-2.1,6.5-0.4,5.2-0.4,5.2l-9.9,1.8l-2.4-13.9L1378.1,167.4z"/>
		<path fill="#FFFFFF" d="M1350.9,138.6c0,0,6.9,1.3,14.3,8.3c7.4,7,11.6,10.2,12.3,14.3s1.2,19.7,2.8,20.8c1.5,1.1,2.3-1,7.7,0.8
			s8.8,2.2,10.2,3.3c1.4,1.1,3.9,2.3,3.3,4s-1.4,1.9-1.4,1.9s-1-1.9-2.8-1s-5.5,5.4-17.5,5.1c-12-0.3-15-6.7-20.3-5.5
			c-5.3,1.2-11.3,1.6-13.9-5.2c0,0,8.2,4.5,18.5,2.2c0,0-8.9-5.3-6.5-21.4C1360.1,150.2,1350.9,138.6,1350.9,138.6z"/>
	</g>
	<g>
		<path fill="#FFFFFF" d="M2087.2,167.4c0,0,5.6-16.7,16.2-19.4c10.5-2.8,8.4-2,7.2,1s-4.2,11.9-5.9,17.1s-5.2,5-7.3,11.6
			c-2.1,6.5-0.4,5.2-0.4,5.2l-9.9,1.8l-2.4-13.9L2087.2,167.4z"/>
		<path fill="#FFFFFF" d="M2060,138.6c0,0,6.9,1.3,14.3,8.3s11.6,10.2,12.3,14.3s1.2,19.7,2.8,20.8c1.5,1.1,2.3-1,7.7,0.8
			s8.8,2.2,10.2,3.3s3.9,2.3,3.3,4c-0.6,1.7-1.4,1.9-1.4,1.9s-1-1.9-2.8-1c-1.7,1-5.5,5.4-17.5,5.1c-12-0.3-15-6.7-20.3-5.5
			c-5.3,1.2-11.3,1.6-13.9-5.2c0,0,8.2,4.5,18.5,2.2c0,0-8.9-5.3-6.5-21.4C2069.2,150.2,2060,138.6,2060,138.6z"/>
	</g>
	<g>
		<path fill="#FFFFFF" d="M1531.9,142.8c0,0,0,18.5,6.3,22.7c6.3,4.2,7.9,4.7,9.6,10.6s1.1,1.9,6.6,1.9s8.3-0.4,12.4,1.3
			c4.1,1.7,9.9,3.4,9.9,3.4s5.4,3.6,3,5.6c-0.3,0.3-1.2,0.4-2.3,0.5c-0.9,0.1,0.7-1.5-0.5-1.5c-2.5,0-7.7,1.7-8.7,2.1
			c-5.8,2.1-10.1,3.7-20.7,1.7c-10.6-2.1-14.9,0.3-20.7-1.4s-6.6-8.3-6.6-8.3s2.6,4.4,10.5,3.3c0,0-14.2-5.5-12.1-17.3
			C1520.8,155.6,1522.7,150.6,1531.9,142.8z"/>
		<path fill="#FFFFFF" d="M1572.2,181.3c0,0,5.5,1.2,7.4-5.7s7.3-20,3-24.3c-4.3-4.3-15.9,26.5-22.9,26.7
			C1552.8,178.2,1572.2,181.3,1572.2,181.3z"/>
	</g>
	<g>
		<path fill="#FFFFFF" d="M2241,142.8c0,0,0,18.5,6.3,22.7s7.9,4.7,9.6,10.6s1.1,1.9,6.6,1.9c5.5,0,8.3-0.4,12.4,1.3
			c4.1,1.7,9.9,3.4,9.9,3.4s5.4,3.6,3,5.6c-0.3,0.3-1.2,0.4-2.3,0.5c-0.9,0.1,0.7-1.5-0.5-1.5c-2.5,0-7.7,1.7-8.7,2.1
			c-5.8,2.1-10.1,3.7-20.7,1.7c-10.6-2.1-14.9,0.3-20.7-1.4c-5.8-1.7-6.6-8.3-6.6-8.3s2.6,4.4,10.5,3.3c0,0-14.2-5.5-12.1-17.3
			C2229.9,155.6,2231.8,150.6,2241,142.8z"/>
		<path fill="#FFFFFF" d="M2281.3,181.3c0,0,5.5,1.2,7.4-5.7c1.9-6.9,7.3-20,3-24.3c-4.3-4.3-15.9,26.5-22.9,26.7
			C2261.9,178.2,2281.3,181.3,2281.3,181.3z"/>
	</g>
	<g>
		<path fill="#FFFFFF" d="M1695.1,151.1c0,0,12.7,3.3,23.8-0.7c11.2-4,19.8-4.8,25.8-2.3s8,2.8,7.3,5c-0.7,2.1-1.2,2.5-1.2,2.5
			s-0.6-2.8-5,0c-4.3,2.8-5.5,3.2-5.5,3.2s4.1,8.4,6.2,10.2c2.1,1.8,1.4,7.4,4.1,10.2c2.8,2.8,7,5.1,9.4,3.4
			c2.3-1.7,1.9-3.4,1.9-3.4s1.1,4-1,5c-2.1,1-9.6,3.4-12.5,1.5c-3-1.9-8.5-0.7-12.8-6.5c-4.3-5.8-6.9-7.2-6.9-7.2s-0.2,6.7-5.3,11.4
			c-5.1,4.8-5.1,4.8-5.1,4.8s-11.2-1.6-13.8,0c0,0-3-1.4-3.6-3.8c-0.6-2.4,0.7-2.8,0.7-2.8s1,2.4,4.3,1.7s5.2-3.7,4.4-7.7
			c-0.8-4.1,1.1-13.8,1.1-13.8s-1-5.4-8.3-4.1C1695.8,158.8,1695.1,151.1,1695.1,151.1z"/>
	</g>
	<g>
		<path fill="#FFFFFF" d="M2404.2,151.1c0,0,12.7,3.3,23.8-0.7c11.2-4,19.8-4.8,25.8-2.3c5.9,2.5,8,2.8,7.3,5
			c-0.7,2.1-1.2,2.5-1.2,2.5s-0.6-2.8-5,0s-5.5,3.2-5.5,3.2s4.1,8.4,6.2,10.2c2.1,1.8,1.4,7.4,4.1,10.2c2.8,2.8,7,5.1,9.4,3.4
			c2.3-1.7,1.9-3.4,1.9-3.4s1.1,4-1,5s-9.6,3.4-12.5,1.5s-8.5-0.7-12.8-6.5c-4.3-5.8-6.9-7.2-6.9-7.2s-0.2,6.7-5.3,11.4
			c-5.1,4.8-5.1,4.8-5.1,4.8s-11.2-1.6-13.8,0c0,0-3-1.4-3.6-3.8c-0.6-2.4,0.7-2.8,0.7-2.8s1,2.4,4.3,1.7s5.2-3.7,4.4-7.7
			c-0.8-4.1,1.1-13.8,1.1-13.8s-1-5.4-8.3-4.1C2404.9,158.8,2404.2,151.1,2404.2,151.1z"/>
	</g>
	<g>
		<path fill="#FFFFFF" d="M1890,165.2c0,0,1.3-10.1,10.9-13.1c9.6-3,16.5-4.1,18.5-3.3s-2.5,7.4-3.2,11c0,0,7.2-3.9,10.5-3.9
			s4.3,0.7,4.5,1.9c0.3,1.2-4.1,7.8-4.4,8.8c-0.3,1,3,0.8,4.4,1.5c1.4,0.7,1,2.1,1,2.1s1.7-0.6,1.8,0.8c0.1,1.4-1,2.8-1,2.8
			s0.2-1.3-1.2-1c-1.4,0.3-5.9,0.9-5.9,1.7s-0.7,1.7-0.3,6.2c0.4,4.5-0.8,5.4-4.7,3.2c-3.9-2.2-5.9-3.4-5.9-5.5c0,0-6.1-1.5-7.6-1.5
			c-1.5,0-0.3,6.1-0.6,8.2c-0.3,2.1-7.9,1.4-11.3-4.6s-4.5-6.1-4.5-6.1s-5.6,2.2-6.3,1.8c-0.7-0.4-7.3-5.3-6.8-6.6
			c0.6-1.3,7.8,1.7,10.6,1C1891.3,169.8,1890,165.2,1890,165.2z"/>
	</g>
</g>
<g>
	<g>
		<path fill="#FFFFFF" d="M1378.1,378.4c0,0,5.6-16.7,16.2-19.4c10.5-2.8,8.4-2,7.2,1s-4.2,11.9-5.9,17.1c-1.7,5.2-5.2,5-7.3,11.6
			c-2.1,6.5-0.4,5.2-0.4,5.2l-9.9,1.8l-2.4-13.9L1378.1,378.4z"/>
		<path fill="#FFFFFF" d="M1350.9,349.6c0,0,6.9,1.3,14.3,8.3c7.4,7,11.6,10.2,12.3,14.3c0.7,4.1,1.2,19.7,2.8,20.8
			c1.5,1.1,2.3-1,7.7,0.8c5.4,1.9,8.8,2.2,10.2,3.3c1.4,1.1,3.9,2.3,3.3,4c-0.6,1.7-1.4,1.9-1.4,1.9s-1-1.9-2.8-1
			c-1.7,1-5.5,5.4-17.5,5.1c-12-0.3-15-6.7-20.3-5.5s-11.3,1.6-13.9-5.2c0,0,8.2,4.5,18.5,2.2c0,0-8.9-5.3-6.5-21.4
			C1360.1,361.2,1350.9,349.6,1350.9,349.6z"/>
	</g>
	<g>
		<path fill="#FFFFFF" d="M2087.2,378.4c0,0,5.6-16.7,16.2-19.4c10.5-2.8,8.4-2,7.2,1s-4.2,11.9-5.9,17.1c-1.7,5.2-5.2,5-7.3,11.6
			c-2.1,6.5-0.4,5.2-0.4,5.2l-9.9,1.8l-2.4-13.9L2087.2,378.4z"/>
		<path fill="#FFFFFF" d="M2060,349.6c0,0,6.9,1.3,14.3,8.3c7.4,7,11.6,10.2,12.3,14.3c0.7,4.1,1.2,19.7,2.8,20.8s2.3-1,7.7,0.8
			c5.4,1.9,8.8,2.2,10.2,3.3c1.4,1.1,3.9,2.3,3.3,4c-0.6,1.7-1.4,1.9-1.4,1.9s-1-1.9-2.8-1c-1.7,1-5.5,5.4-17.5,5.1
			c-12-0.3-15-6.7-20.3-5.5s-11.3,1.6-13.9-5.2c0,0,8.2,4.5,18.5,2.2c0,0-8.9-5.3-6.5-21.4C2069.2,361.2,2060,349.6,2060,349.6z"/>
	</g>
	<g>
		<path fill="#FFFFFF" d="M1531.9,353.8c0,0,0,18.5,6.3,22.7c6.3,4.2,7.9,4.7,9.6,10.6c1.8,5.9,1.1,1.9,6.6,1.9s8.3-0.4,12.4,1.3
			c4.1,1.7,9.9,3.4,9.9,3.4s5.4,3.6,3,5.6c-0.3,0.3-1.2,0.4-2.3,0.5c-0.9,0.1,0.7-1.5-0.5-1.5c-2.5,0-7.7,1.7-8.7,2.1
			c-5.8,2.1-10.1,3.7-20.7,1.7c-10.6-2.1-14.9,0.3-20.7-1.4s-6.6-8.3-6.6-8.3s2.6,4.4,10.5,3.3c0,0-14.2-5.5-12.1-17.3
			C1520.8,366.6,1522.7,361.6,1531.9,353.8z"/>
		<path fill="#FFFFFF" d="M1572.2,392.3c0,0,5.5,1.2,7.4-5.7s7.3-20,3-24.3c-4.3-4.3-15.9,26.5-22.9,26.7
			C1552.8,389.2,1572.2,392.3,1572.2,392.3z"/>
	</g>
	<g>
		<path fill="#FFFFFF" d="M2241,353.8c0,0,0,18.5,6.3,22.7s7.9,4.7,9.6,10.6c1.8,5.9,1.1,1.9,6.6,1.9c5.5,0,8.3-0.4,12.4,1.3
			c4.1,1.7,9.9,3.4,9.9,3.4s5.4,3.6,3,5.6c-0.3,0.3-1.2,0.4-2.3,0.5c-0.9,0.1,0.7-1.5-0.5-1.5c-2.5,0-7.7,1.7-8.7,2.1
			c-5.8,2.1-10.1,3.7-20.7,1.7c-10.6-2.1-14.9,0.3-20.7-1.4c-5.8-1.7-6.6-8.3-6.6-8.3s2.6,4.4,10.5,3.3c0,0-14.2-5.5-12.1-17.3
			C2229.9,366.6,2231.8,361.6,2241,353.8z"/>
		<path fill="#FFFFFF" d="M2281.3,392.3c0,0,5.5,1.2,7.4-5.7c1.9-6.9,7.3-20,3-24.3c-4.3-4.3-15.9,26.5-22.9,26.7
			C2261.9,389.2,2281.3,392.3,2281.3,392.3z"/>
	</g>
	<g>
		<path fill="#FFFFFF" d="M1695.1,362.1c0,0,12.7,3.3,23.8-0.7c11.2-4,19.8-4.8,25.8-2.3c5.9,2.5,8,2.8,7.3,5s-1.2,2.5-1.2,2.5
			s-0.6-2.8-5,0c-4.3,2.8-5.5,3.2-5.5,3.2s4.1,8.4,6.2,10.2c2.1,1.8,1.4,7.4,4.1,10.2c2.8,2.8,7,5.1,9.4,3.4s1.9-3.4,1.9-3.4
			s1.1,4-1,5c-2.1,1-9.6,3.4-12.5,1.5c-3-1.9-8.5-0.7-12.8-6.5c-4.3-5.8-6.9-7.2-6.9-7.2s-0.2,6.7-5.3,11.4
			c-5.1,4.8-5.1,4.8-5.1,4.8s-11.2-1.6-13.8,0c0,0-3-1.4-3.6-3.8c-0.6-2.4,0.7-2.8,0.7-2.8s1,2.4,4.3,1.7s5.2-3.7,4.4-7.7
			s1.1-13.8,1.1-13.8s-1-5.4-8.3-4.1C1695.8,369.8,1695.1,362.1,1695.1,362.1z"/>
	</g>
	<g>
		<path fill="#FFFFFF" d="M2404.2,362.1c0,0,12.7,3.3,23.8-0.7c11.2-4,19.8-4.8,25.8-2.3c5.9,2.5,8,2.8,7.3,5s-1.2,2.5-1.2,2.5
			s-0.6-2.8-5,0c-4.3,2.8-5.5,3.2-5.5,3.2s4.1,8.4,6.2,10.2c2.1,1.8,1.4,7.4,4.1,10.2c2.8,2.8,7,5.1,9.4,3.4
			c2.3-1.7,1.9-3.4,1.9-3.4s1.1,4-1,5c-2.1,1-9.6,3.4-12.5,1.5s-8.5-0.7-12.8-6.5c-4.3-5.8-6.9-7.2-6.9-7.2s-0.2,6.7-5.3,11.4
			c-5.1,4.8-5.1,4.8-5.1,4.8s-11.2-1.6-13.8,0c0,0-3-1.4-3.6-3.8c-0.6-2.4,0.7-2.8,0.7-2.8s1,2.4,4.3,1.7s5.2-3.7,4.4-7.7
			c-0.8-4.1,1.1-13.8,1.1-13.8s-1-5.4-8.3-4.1C2404.9,369.8,2404.2,362.1,2404.2,362.1z"/>
	</g>
	<g>
		<path fill="#FFFFFF" d="M1890,376.2c0,0,1.3-10.1,10.9-13.1c9.6-3,16.5-4.1,18.5-3.3c1.9,0.8-2.5,7.4-3.2,11c0,0,7.2-3.9,10.5-3.9
			c3.2,0.1,4.3,0.7,4.5,1.9c0.3,1.2-4.1,7.8-4.4,8.8c-0.3,1,3,0.8,4.4,1.5c1.4,0.7,1,2.1,1,2.1s1.7-0.6,1.8,0.8c0.1,1.4-1,2.8-1,2.8
			s0.2-1.3-1.2-1c-1.4,0.3-5.9,0.9-5.9,1.7s-0.7,1.7-0.3,6.2c0.4,4.5-0.8,5.4-4.7,3.2c-3.9-2.2-5.9-3.4-5.9-5.5c0,0-6.1-1.5-7.6-1.5
			c-1.5,0-0.3,6.1-0.6,8.2c-0.3,2.1-7.9,1.4-11.3-4.6s-4.5-6.1-4.5-6.1s-5.6,2.2-6.3,1.8c-0.7-0.4-7.3-5.3-6.8-6.6s7.8,1.7,10.6,1
			C1891.3,380.8,1890,376.2,1890,376.2z"/>
	</g>
</g>
<g>
	<g>
		<path fill="#FFFFFF" d="M1378.1,592.4c0,0,5.6-16.7,16.2-19.4s8.4-2,7.2,1s-4.2,11.9-5.9,17.1s-5.2,5-7.3,11.6s-0.4,5.2-0.4,5.2
			l-9.9,1.8l-2.4-13.9L1378.1,592.4z"/>
		<path fill="#FFFFFF" d="M1350.9,563.6c0,0,6.9,1.3,14.3,8.3c7.4,7,11.6,10.2,12.3,14.3s1.2,19.7,2.8,20.8c1.5,1.1,2.3-1,7.7,0.8
			s8.8,2.2,10.2,3.3c1.4,1.1,3.9,2.3,3.3,4c-0.6,1.7-1.4,1.9-1.4,1.9s-1-1.9-2.8-1s-5.5,5.4-17.5,5.1s-15-6.7-20.3-5.5
			c-5.3,1.2-11.3,1.6-13.9-5.2c0,0,8.2,4.5,18.5,2.2c0,0-8.9-5.3-6.5-21.4C1360.1,575.2,1350.9,563.6,1350.9,563.6z"/>
	</g>
	<g>
		<path fill="#FFFFFF" d="M2087.2,592.4c0,0,5.6-16.7,16.2-19.4c10.5-2.8,8.4-2,7.2,1s-4.2,11.9-5.9,17.1s-5.2,5-7.3,11.6
			c-2.1,6.5-0.4,5.2-0.4,5.2l-9.9,1.8l-2.4-13.9L2087.2,592.4z"/>
		<path fill="#FFFFFF" d="M2060,563.6c0,0,6.9,1.3,14.3,8.3s11.6,10.2,12.3,14.3s1.2,19.7,2.8,20.8c1.5,1.1,2.3-1,7.7,0.8
			s8.8,2.2,10.2,3.3c1.4,1.1,3.9,2.3,3.3,4c-0.6,1.7-1.4,1.9-1.4,1.9s-1-1.9-2.8-1c-1.7,1-5.5,5.4-17.5,5.1c-12-0.3-15-6.7-20.3-5.5
			c-5.3,1.2-11.3,1.6-13.9-5.2c0,0,8.2,4.5,18.5,2.2c0,0-8.9-5.3-6.5-21.4C2069.2,575.2,2060,563.6,2060,563.6z"/>
	</g>
	<g>
		<path fill="#FFFFFF" d="M1531.9,567.8c0,0,0,18.5,6.3,22.7c6.3,4.2,7.9,4.7,9.6,10.6s1.1,1.9,6.6,1.9s8.3-0.4,12.4,1.3
			s9.9,3.4,9.9,3.4s5.4,3.6,3,5.6c-0.3,0.3-1.2,0.4-2.3,0.5c-0.9,0.1,0.7-1.5-0.5-1.5c-2.5,0-7.7,1.7-8.7,2.1
			c-5.8,2.1-10.1,3.7-20.7,1.7c-10.6-2.1-14.9,0.3-20.7-1.4c-5.8-1.7-6.6-8.3-6.6-8.3s2.6,4.4,10.5,3.3c0,0-14.2-5.5-12.1-17.3
			C1520.8,580.6,1522.7,575.6,1531.9,567.8z"/>
		<path fill="#FFFFFF" d="M1572.2,606.3c0,0,5.5,1.2,7.4-5.7s7.3-20,3-24.3s-15.9,26.5-22.9,26.7
			C1552.8,603.2,1572.2,606.3,1572.2,606.3z"/>
	</g>
	<g>
		<path fill="#FFFFFF" d="M2241,567.8c0,0,0,18.5,6.3,22.7s7.9,4.7,9.6,10.6s1.1,1.9,6.6,1.9c5.5,0,8.3-0.4,12.4,1.3
			c4.1,1.7,9.9,3.4,9.9,3.4s5.4,3.6,3,5.6c-0.3,0.3-1.2,0.4-2.3,0.5c-0.9,0.1,0.7-1.5-0.5-1.5c-2.5,0-7.7,1.7-8.7,2.1
			c-5.8,2.1-10.1,3.7-20.7,1.7c-10.6-2.1-14.9,0.3-20.7-1.4c-5.8-1.7-6.6-8.3-6.6-8.3s2.6,4.4,10.5,3.3c0,0-14.2-5.5-12.1-17.3
			C2229.9,580.6,2231.8,575.6,2241,567.8z"/>
		<path fill="#FFFFFF" d="M2281.3,606.3c0,0,5.5,1.2,7.4-5.7c1.9-6.9,7.3-20,3-24.3s-15.9,26.5-22.9,26.7
			C2261.9,603.2,2281.3,606.3,2281.3,606.3z"/>
	</g>
	<g>
		<path fill="#FFFFFF" d="M1695.1,576.1c0,0,12.7,3.3,23.8-0.7c11.2-4,19.8-4.8,25.8-2.3s8,2.8,7.3,5c-0.7,2.1-1.2,2.5-1.2,2.5
			s-0.6-2.8-5,0c-4.3,2.8-5.5,3.2-5.5,3.2s4.1,8.4,6.2,10.2c2.1,1.8,1.4,7.4,4.1,10.2c2.8,2.8,7,5.1,9.4,3.4
			c2.3-1.7,1.9-3.4,1.9-3.4s1.1,4-1,5c-2.1,1-9.6,3.4-12.5,1.5c-3-1.9-8.5-0.7-12.8-6.5c-4.3-5.8-6.9-7.2-6.9-7.2s-0.2,6.7-5.3,11.4
			c-5.1,4.8-5.1,4.8-5.1,4.8s-11.2-1.6-13.8,0c0,0-3-1.4-3.6-3.8c-0.6-2.4,0.7-2.8,0.7-2.8s1,2.4,4.3,1.7c3.2-0.8,5.2-3.7,4.4-7.7
			c-0.8-4.1,1.1-13.8,1.1-13.8s-1-5.4-8.3-4.1C1695.8,583.8,1695.1,576.1,1695.1,576.1z"/>
	</g>
	<g>
		<path fill="#FFFFFF" d="M2404.2,576.1c0,0,12.7,3.3,23.8-0.7c11.2-4,19.8-4.8,25.8-2.3c5.9,2.5,8,2.8,7.3,5
			c-0.7,2.1-1.2,2.5-1.2,2.5s-0.6-2.8-5,0c-4.3,2.8-5.5,3.2-5.5,3.2s4.1,8.4,6.2,10.2c2.1,1.8,1.4,7.4,4.1,10.2
			c2.8,2.8,7,5.1,9.4,3.4c2.3-1.7,1.9-3.4,1.9-3.4s1.1,4-1,5s-9.6,3.4-12.5,1.5s-8.5-0.7-12.8-6.5c-4.3-5.8-6.9-7.2-6.9-7.2
			s-0.2,6.7-5.3,11.4s-5.1,4.8-5.1,4.8s-11.2-1.6-13.8,0c0,0-3-1.4-3.6-3.8c-0.6-2.4,0.7-2.8,0.7-2.8s1,2.4,4.3,1.7
			c3.2-0.8,5.2-3.7,4.4-7.7c-0.8-4.1,1.1-13.8,1.1-13.8s-1-5.4-8.3-4.1C2404.9,583.8,2404.2,576.1,2404.2,576.1z"/>
	</g>
	<g>
		<path fill="#FFFFFF" d="M1890,590.2c0,0,1.3-10.1,10.9-13.1c9.6-3,16.5-4.1,18.5-3.3s-2.5,7.4-3.2,11c0,0,7.2-3.9,10.5-3.9
			s4.3,0.7,4.5,1.9c0.3,1.2-4.1,7.8-4.4,8.8c-0.3,1,3,0.8,4.4,1.5c1.4,0.7,1,2.1,1,2.1s1.7-0.6,1.8,0.8c0.1,1.4-1,2.8-1,2.8
			s0.2-1.3-1.2-1c-1.4,0.3-5.9,0.9-5.9,1.7c0,0.8-0.7,1.7-0.3,6.2c0.4,4.5-0.8,5.4-4.7,3.2c-3.9-2.2-5.9-3.4-5.9-5.5
			c0,0-6.1-1.5-7.6-1.5c-1.5,0-0.3,6.1-0.6,8.2c-0.3,2.1-7.9,1.4-11.3-4.6s-4.5-6.1-4.5-6.1s-5.6,2.2-6.3,1.8
			c-0.7-0.4-7.3-5.3-6.8-6.6c0.6-1.3,7.8,1.7,10.6,1C1891.3,594.8,1890,590.2,1890,590.2z"/>
	</g>
</g>
<g>
	<g>
		<path fill="#FFFFFF" d="M415.5,61.1c0,0,5.6-16.7,16.2-19.4c10.5-2.8,8.4-2,7.2,1c-1.1,3-4.2,11.9-5.9,17.1s-5.2,5-7.3,11.6
			s-0.4,5.2-0.4,5.2l-9.9,1.8L413,64.4L415.5,61.1z"/>
		<path fill="#FFFFFF" d="M388.2,32.3c0,0,6.9,1.3,14.3,8.3s11.6,10.2,12.3,14.3c0.7,4.1,1.2,19.7,2.8,20.8c1.5,1.1,2.3-1,7.7,0.8
			c5.4,1.9,8.8,2.2,10.2,3.3c1.4,1.1,3.9,2.3,3.3,4c-0.6,1.7-1.4,1.9-1.4,1.9s-1-1.9-2.8-1c-1.7,1-5.5,5.4-17.5,5.1
			c-12-0.3-15-6.7-20.3-5.5c-5.3,1.2-11.3,1.6-13.9-5.2c0,0,8.2,4.5,18.5,2.2c0,0-8.9-5.3-6.5-21.4
			C397.4,43.9,388.2,32.3,388.2,32.3z"/>
	</g>
	<g>
		<path fill="#FFFFFF" d="M1124.6,61.1c0,0,5.6-16.7,16.2-19.4c10.5-2.8,8.4-2,7.2,1c-1.1,3-4.2,11.9-5.9,17.1
			c-1.7,5.2-5.2,5-7.3,11.6c-2.1,6.5-0.4,5.2-0.4,5.2l-9.9,1.8l-2.4-13.9L1124.6,61.1z"/>
		<path fill="#FFFFFF" d="M1097.3,32.3c0,0,6.9,1.3,14.3,8.3c7.4,7,11.6,10.2,12.3,14.3s1.2,19.7,2.8,20.8c1.5,1.1,2.3-1,7.7,0.8
			c5.4,1.9,8.8,2.2,10.2,3.3c1.4,1.1,3.9,2.3,3.3,4s-1.4,1.9-1.4,1.9s-1-1.9-2.8-1c-1.7,1-5.5,5.4-17.5,5.1c-12-0.3-15-6.7-20.3-5.5
			s-11.3,1.6-13.9-5.2c0,0,8.2,4.5,18.5,2.2c0,0-8.9-5.3-6.5-21.4C1106.5,43.9,1097.3,32.3,1097.3,32.3z"/>
	</g>
	<g>
		<path fill="#FFFFFF" d="M569.3,36.5c0,0,0,18.5,6.3,22.7s7.9,4.7,9.6,10.6c1.8,5.9,1.1,1.9,6.6,1.9c5.5,0,8.3-0.4,12.4,1.3
			c4.1,1.7,9.9,3.4,9.9,3.4s5.4,3.6,3,5.6c-0.3,0.3-1.2,0.4-2.3,0.5c-0.9,0.1,0.7-1.5-0.5-1.5c-2.5,0-7.7,1.7-8.7,2.1
			c-5.8,2.1-10.1,3.7-20.7,1.7c-10.6-2.1-14.9,0.3-20.7-1.4c-5.8-1.7-6.6-8.3-6.6-8.3s2.6,4.4,10.5,3.3c0,0-14.2-5.5-12.1-17.3
			S560,44.4,569.3,36.5z"/>
		<path fill="#FFFFFF" d="M609.5,75c0,0,5.5,1.2,7.4-5.7c1.9-6.9,7.3-20,3-24.3s-15.9,26.5-22.9,26.7C590.1,71.9,609.5,75,609.5,75z
			"/>
	</g>
	<g>
		<path fill="#FFFFFF" d="M1278.4,36.5c0,0,0,18.5,6.3,22.7s7.9,4.7,9.6,10.6c1.8,5.9,1.1,1.9,6.6,1.9s8.3-0.4,12.4,1.3
			c4.1,1.7,9.9,3.4,9.9,3.4s5.4,3.6,3,5.6c-0.3,0.3-1.2,0.4-2.3,0.5c-0.9,0.1,0.7-1.5-0.5-1.5c-2.5,0-7.7,1.7-8.7,2.1
			c-5.8,2.1-10.1,3.7-20.7,1.7c-10.6-2.1-14.9,0.3-20.7-1.4s-6.6-8.3-6.6-8.3s2.6,4.4,10.5,3.3c0,0-14.2-5.5-12.1-17.3
			C1267.2,49.3,1269.1,44.4,1278.4,36.5z"/>
		<path fill="#FFFFFF" d="M1318.6,75c0,0,5.5,1.2,7.4-5.7s7.3-20,3-24.3s-15.9,26.5-22.9,26.7C1299.3,71.9,1318.6,75,1318.6,75z"/>
	</g>
	<g>
		<path fill="#FFFFFF" d="M732.4,44.8c0,0,12.7,3.3,23.8-0.7c11.2-4,19.8-4.8,25.8-2.3c5.9,2.5,8,2.8,7.3,5s-1.2,2.5-1.2,2.5
			s-0.6-2.8-5,0c-4.3,2.8-5.5,3.2-5.5,3.2s4.1,8.4,6.2,10.2c2.1,1.8,1.4,7.4,4.1,10.2c2.8,2.8,7,5.1,9.4,3.4s1.9-3.4,1.9-3.4
			s1.1,4-1,5c-2.1,1-9.6,3.4-12.5,1.5c-3-1.9-8.5-0.7-12.8-6.5c-4.3-5.8-6.9-7.2-6.9-7.2s-0.2,6.7-5.3,11.4s-5.1,4.8-5.1,4.8
			s-11.2-1.6-13.8,0c0,0-3-1.4-3.6-3.8c-0.6-2.4,0.7-2.8,0.7-2.8s1,2.4,4.3,1.7s5.2-3.7,4.4-7.7c-0.8-4.1,1.1-13.8,1.1-13.8
			s-1-5.4-8.3-4.1S732.4,44.8,732.4,44.8z"/>
	</g>
	<g>
		<path fill="#FFFFFF" d="M1441.5,44.8c0,0,12.7,3.3,23.8-0.7c11.2-4,19.8-4.8,25.8-2.3c5.9,2.5,8,2.8,7.3,5s-1.2,2.5-1.2,2.5
			s-0.6-2.8-5,0c-4.3,2.8-5.5,3.2-5.5,3.2s4.1,8.4,6.2,10.2c2.1,1.8,1.4,7.4,4.1,10.2c2.8,2.8,7,5.1,9.4,3.4
			c2.3-1.7,1.9-3.4,1.9-3.4s1.1,4-1,5c-2.1,1-9.6,3.4-12.5,1.5c-3-1.9-8.5-0.7-12.8-6.5c-4.3-5.8-6.9-7.2-6.9-7.2s-0.2,6.7-5.3,11.4
			c-5.1,4.8-5.1,4.8-5.1,4.8s-11.2-1.6-13.8,0c0,0-3-1.4-3.6-3.8c-0.6-2.4,0.7-2.8,0.7-2.8s1,2.4,4.3,1.7s5.2-3.7,4.4-7.7
			c-0.8-4.1,1.1-13.8,1.1-13.8s-1-5.4-8.3-4.1C1442.3,52.5,1441.5,44.8,1441.5,44.8z"/>
	</g>
	<g>
		<path fill="#FFFFFF" d="M927.4,58.9c0,0,1.3-10.1,10.9-13.1c9.6-3,16.5-4.1,18.5-3.3c1.9,0.8-2.5,7.4-3.2,11c0,0,7.2-3.9,10.5-3.9
			c3.2,0.1,4.3,0.7,4.5,1.9s-4.1,7.8-4.4,8.8c-0.3,1,3,0.8,4.4,1.5c1.4,0.7,1,2.1,1,2.1s1.7-0.6,1.8,0.8c0.1,1.4-1,2.8-1,2.8
			s0.2-1.3-1.2-1c-1.4,0.3-5.9,0.9-5.9,1.7s-0.7,1.7-0.3,6.2c0.4,4.5-0.8,5.4-4.7,3.2s-5.9-3.4-5.9-5.5c0,0-6.1-1.5-7.6-1.5
			s-0.3,6.1-0.6,8.2c-0.3,2.1-7.9,1.4-11.3-4.6c-3.4-6-4.5-6.1-4.5-6.1s-5.6,2.2-6.3,1.8s-7.3-5.3-6.8-6.6c0.6-1.3,7.8,1.7,10.6,1
			C928.7,63.5,927.4,58.9,927.4,58.9z"/>
	</g>
	<g>
		<path fill="#FFFFFF" d="M1822.5,61.1c0,0,5.6-16.7,16.2-19.4c10.5-2.8,8.4-2,7.2,1s-4.2,11.9-5.9,17.1s-5.2,5-7.3,11.6
			s-0.4,5.2-0.4,5.2l-9.9,1.8l-2.4-13.9L1822.5,61.1z"/>
		<path fill="#FFFFFF" d="M1795.2,32.3c0,0,6.9,1.3,14.3,8.3c7.4,7,11.6,10.2,12.3,14.3s1.2,19.7,2.8,20.8c1.5,1.1,2.3-1,7.7,0.8
			c5.4,1.9,8.8,2.2,10.2,3.3c1.4,1.1,3.9,2.3,3.3,4s-1.4,1.9-1.4,1.9s-1-1.9-2.8-1s-5.5,5.4-17.5,5.1c-12-0.3-15-6.7-20.3-5.5
			s-11.3,1.6-13.9-5.2c0,0,8.2,4.5,18.5,2.2c0,0-8.9-5.3-6.5-21.4C1804.4,43.9,1795.2,32.3,1795.2,32.3z"/>
	</g>
	<g>
		<path fill="#FFFFFF" d="M1976.3,36.5c0,0,0,18.5,6.3,22.7c6.3,4.2,7.9,4.7,9.6,10.6c1.8,5.9,1.1,1.9,6.6,1.9s8.3-0.4,12.4,1.3
			c4.1,1.7,9.9,3.4,9.9,3.4s5.4,3.6,3,5.6c-0.3,0.3-1.2,0.4-2.3,0.5c-0.9,0.1,0.7-1.5-0.5-1.5c-2.5,0-7.7,1.7-8.7,2.1
			c-5.8,2.1-10.1,3.7-20.7,1.7c-10.6-2.1-14.9,0.3-20.7-1.4s-6.6-8.3-6.6-8.3s2.6,4.4,10.5,3.3c0,0-14.2-5.5-12.1-17.3
			C1965.1,49.3,1967,44.4,1976.3,36.5z"/>
		<path fill="#FFFFFF" d="M2016.5,75c0,0,5.5,1.2,7.4-5.7s7.3-20,3-24.3s-15.9,26.5-22.9,26.7C1997.2,71.9,2016.5,75,2016.5,75z"/>
	</g>
	<g>
		<path fill="#FFFFFF" d="M1625.3,58.9c0,0,1.3-10.1,10.9-13.1c9.6-3,16.5-4.1,18.5-3.3s-2.5,7.4-3.2,11c0,0,7.2-3.9,10.5-3.9
			s4.3,0.7,4.5,1.9c0.3,1.2-4.1,7.8-4.4,8.8c-0.3,1,3,0.8,4.4,1.5c1.4,0.7,1,2.1,1,2.1s1.7-0.6,1.8,0.8c0.1,1.4-1,2.8-1,2.8
			s0.2-1.3-1.2-1s-5.9,0.9-5.9,1.7s-0.7,1.7-0.3,6.2c0.4,4.5-0.8,5.4-4.7,3.2c-3.9-2.2-5.9-3.4-5.9-5.5c0,0-6.1-1.5-7.6-1.5
			c-1.5,0-0.3,6.1-0.6,8.2c-0.3,2.1-7.9,1.4-11.3-4.6s-4.5-6.1-4.5-6.1s-5.6,2.2-6.3,1.8s-7.3-5.3-6.8-6.6c0.6-1.3,7.8,1.7,10.6,1
			C1626.6,63.5,1625.3,58.9,1625.3,58.9z"/>
	</g>
</g>
</svg>
